<?xml version="1.0" encoding="UTF-8" standalone="no"?>
<!DOCTYPE svg PUBLIC "-//W3C//DTD SVG 1.1//EN"
 "http://www.w3.org/Graphics/SVG/1.1/DTD/svg11.dtd">
<!-- Generated by graphviz version 2.40.1 (20161225.0304)
 -->
<!-- Title: dependencies Pages: 1 -->
<svg width="504pt" height="284pt"
 viewBox="0.00 0.00 504.00 284.00" xmlns="http://www.w3.org/2000/svg" xmlns:xlink="http://www.w3.org/1999/xlink">
<g id="graph0" class="graph" transform="scale(1 1) rotate(0) translate(4 280)">
<title>dependencies</title>
<polygon fill="#ffffff" stroke="transparent" points="-4,4 -4,-280 500,-280 500,4 -4,4"/>
<text text-anchor="start" x="227.0091" y="-42.4" font-family="sans-serif" font-weight="bold" font-size="14.00" fill="#000000">Legend</text>
<polygon fill="#ffffb3" stroke="transparent" points="14,-10 14,-30 34,-30 34,-10 14,-10"/>
<text text-anchor="start" x="37.629" y="-15.4" font-family="sans-serif" font-size="14.00" fill="#000000"> &#160;Declarations</text>
<polygon fill="#8dd3c7" stroke="transparent" points="127,-10 127,-30 147,-30 147,-10 127,-10"/>
<text text-anchor="start" x="150.7251" y="-15.4" font-family="sans-serif" font-size="14.00" fill="#000000"> &#160;Module</text>
<polygon fill="#80b1d3" stroke="transparent" points="213,-10 213,-30 233,-30 233,-10 213,-10"/>
<text text-anchor="start" x="236.7812" y="-15.4" font-family="sans-serif" font-size="14.00" fill="#000000"> &#160;Bootstrap</text>
<polygon fill="#fdb462" stroke="transparent" points="310,-10 310,-30 330,-30 330,-10 310,-10"/>
<text text-anchor="start" x="333.6732" y="-15.4" font-family="sans-serif" font-size="14.00" fill="#000000"> &#160;Providers</text>
<polygon fill="#fb8072" stroke="transparent" points="406,-10 406,-30 426,-30 426,-10 406,-10"/>
<text text-anchor="start" x="429.7258" y="-15.4" font-family="sans-serif" font-size="14.00" fill="#000000"> &#160;Exports</text>
<g id="clust1" class="cluster">
<title>cluster_SmartadminValidationModule</title>
<polygon fill="none" stroke="#000000" stroke-dasharray="1,5" points="67,-70 67,-268 429,-268 429,-70 67,-70"/>
</g>
<g id="clust2" class="cluster">
<title>cluster_SmartadminValidationModule_declarations</title>
<polygon fill="none" stroke="#000000" points="78,-78 78,-130 417,-130 417,-78 78,-78"/>
</g>
<g id="clust6" class="cluster">
<title>cluster_SmartadminValidationModule_exports</title>
<polygon fill="none" stroke="#000000" points="75,-208 75,-260 421,-260 421,-208 75,-208"/>
</g>
<!-- BootstrapValidatorDirective -->
<g id="node1" class="node">
<title>BootstrapValidatorDirective</title>
<polygon fill="#ffffb3" stroke="#000000" points="408.889,-122 233.111,-122 233.111,-86 408.889,-86 408.889,-122"/>
<text text-anchor="middle" x="321" y="-99.8" font-family="Times,serif" font-size="14.00" fill="#000000">BootstrapValidatorDirective</text>
</g>
<!-- SmartadminValidationModule -->
<g id="node3" class="node">
<title>SmartadminValidationModule</title>
<polygon fill="#8dd3c7" stroke="#000000" points="336.5828,-187 333.5828,-191 312.5828,-191 309.5828,-187 149.4172,-187 149.4172,-151 336.5828,-151 336.5828,-187"/>
<text text-anchor="middle" x="243" y="-164.8" font-family="Times,serif" font-size="14.00" fill="#000000">SmartadminValidationModule</text>
</g>
<!-- BootstrapValidatorDirective&#45;&gt;SmartadminValidationModule -->
<g id="edge1" class="edge">
<title>BootstrapValidatorDirective&#45;&gt;SmartadminValidationModule</title>
<path fill="none" stroke="#000000" d="M284.9236,-122.1061C284.9236,-122.1061 284.9236,-140.991 284.9236,-140.991"/>
<polygon fill="#000000" stroke="#000000" points="281.4236,-140.9909 284.9236,-150.991 288.4236,-140.991 281.4236,-140.9909"/>
</g>
<!-- UiValidateDirective -->
<g id="node2" class="node">
<title>UiValidateDirective</title>
<polygon fill="#ffffb3" stroke="#000000" points="215.5032,-122 86.4968,-122 86.4968,-86 215.5032,-86 215.5032,-122"/>
<text text-anchor="middle" x="151" y="-99.8" font-family="Times,serif" font-size="14.00" fill="#000000">UiValidateDirective</text>
</g>
<!-- UiValidateDirective&#45;&gt;SmartadminValidationModule -->
<g id="edge2" class="edge">
<title>UiValidateDirective&#45;&gt;SmartadminValidationModule</title>
<path fill="none" stroke="#000000" d="M182.6049,-122.1061C182.6049,-122.1061 182.6049,-140.991 182.6049,-140.991"/>
<polygon fill="#000000" stroke="#000000" points="179.1049,-140.9909 182.6049,-150.991 186.1049,-140.991 179.1049,-140.9909"/>
</g>
<!-- BootstrapValidatorDirective  -->
<g id="node4" class="node">
<title>BootstrapValidatorDirective </title>
<polygon fill="#fb8072" stroke="#000000" points="413.3886,-252 234.6114,-252 234.6114,-216 413.3886,-216 413.3886,-252"/>
<text text-anchor="middle" x="324" y="-229.8" font-family="Times,serif" font-size="14.00" fill="#000000">BootstrapValidatorDirective </text>
</g>
<!-- SmartadminValidationModule&#45;&gt;BootstrapValidatorDirective  -->
<g id="edge3" class="edge">
<title>SmartadminValidationModule&#45;&gt;BootstrapValidatorDirective </title>
<path fill="none" stroke="#000000" stroke-dasharray="5,2" d="M285.5486,-187.1061C285.5486,-187.1061 285.5486,-205.991 285.5486,-205.991"/>
<polygon fill="#000000" stroke="#000000" points="282.0486,-205.9909 285.5486,-215.991 289.0486,-205.991 282.0486,-205.9909"/>
</g>
<!-- UiValidateDirective  -->
<g id="node5" class="node">
<title>UiValidateDirective </title>
<polygon fill="#fb8072" stroke="#000000" points="216.5022,-252 83.4978,-252 83.4978,-216 216.5022,-216 216.5022,-252"/>
<text text-anchor="middle" x="150" y="-229.8" font-family="Times,serif" font-size="14.00" fill="#000000">UiValidateDirective </text>
</g>
<!-- SmartadminValidationModule&#45;&gt;UiValidateDirective  -->
<g id="edge4" class="edge">
<title>SmartadminValidationModule&#45;&gt;UiValidateDirective </title>
<path fill="none" stroke="#000000" stroke-dasharray="5,2" d="M182.9799,-187.1061C182.9799,-187.1061 182.9799,-205.991 182.9799,-205.991"/>
<polygon fill="#000000" stroke="#000000" points="179.4799,-205.9909 182.9799,-215.991 186.4799,-205.991 179.4799,-205.9909"/>
</g>
</g>
</svg>
