<?xml version="1.0" encoding="UTF-8" standalone="no"?>
<!DOCTYPE svg PUBLIC "-//W3C//DTD SVG 1.1//EN"
 "http://www.w3.org/Graphics/SVG/1.1/DTD/svg11.dtd">
<!-- Generated by graphviz version 2.40.1 (20161225.0304)
 -->
<!-- Title: dependencies Pages: 1 -->
<svg width="888pt" height="284pt"
 viewBox="0.00 0.00 888.00 284.00" xmlns="http://www.w3.org/2000/svg" xmlns:xlink="http://www.w3.org/1999/xlink">
<g id="graph0" class="graph" transform="scale(1 1) rotate(0) translate(4 280)">
<title>dependencies</title>
<polygon fill="#ffffff" stroke="transparent" points="-4,4 -4,-280 884,-280 884,4 -4,4"/>
<text text-anchor="start" x="419.0091" y="-42.4" font-family="sans-serif" font-weight="bold" font-size="14.00" fill="#000000">Legend</text>
<polygon fill="#ffffb3" stroke="transparent" points="206,-10 206,-30 226,-30 226,-10 206,-10"/>
<text text-anchor="start" x="229.629" y="-15.4" font-family="sans-serif" font-size="14.00" fill="#000000"> &#160;Declarations</text>
<polygon fill="#8dd3c7" stroke="transparent" points="319,-10 319,-30 339,-30 339,-10 319,-10"/>
<text text-anchor="start" x="342.7251" y="-15.4" font-family="sans-serif" font-size="14.00" fill="#000000"> &#160;Module</text>
<polygon fill="#80b1d3" stroke="transparent" points="405,-10 405,-30 425,-30 425,-10 405,-10"/>
<text text-anchor="start" x="428.7812" y="-15.4" font-family="sans-serif" font-size="14.00" fill="#000000"> &#160;Bootstrap</text>
<polygon fill="#fdb462" stroke="transparent" points="502,-10 502,-30 522,-30 522,-10 502,-10"/>
<text text-anchor="start" x="525.6732" y="-15.4" font-family="sans-serif" font-size="14.00" fill="#000000"> &#160;Providers</text>
<polygon fill="#fb8072" stroke="transparent" points="598,-10 598,-30 618,-30 618,-10 598,-10"/>
<text text-anchor="start" x="621.7258" y="-15.4" font-family="sans-serif" font-size="14.00" fill="#000000"> &#160;Exports</text>
<g id="clust1" class="cluster">
<title>cluster_VoiceControlModule</title>
<polygon fill="none" stroke="#000000" stroke-dasharray="1,5" points="8,-70 8,-268 872,-268 872,-70 8,-70"/>
</g>
<g id="clust2" class="cluster">
<title>cluster_VoiceControlModule_declarations</title>
<polygon fill="none" stroke="#000000" points="688,-78 688,-130 864,-130 864,-78 688,-78"/>
</g>
<g id="clust4" class="cluster">
<title>cluster_VoiceControlModule_imports</title>
<polygon fill="none" stroke="#000000" points="464,-78 464,-130 680,-130 680,-78 464,-78"/>
</g>
<g id="clust5" class="cluster">
<title>cluster_VoiceControlModule_exports</title>
<polygon fill="none" stroke="#000000" points="425,-208 425,-260 605,-260 605,-208 425,-208"/>
</g>
<g id="clust7" class="cluster">
<title>cluster_VoiceControlModule_providers</title>
<polygon fill="none" stroke="#000000" points="16,-78 16,-130 456,-130 456,-78 16,-78"/>
</g>
<!-- SpeechButtonComponent -->
<g id="node1" class="node">
<title>SpeechButtonComponent</title>
<polygon fill="#ffffb3" stroke="#000000" points="855.8766,-122 696.1234,-122 696.1234,-86 855.8766,-86 855.8766,-122"/>
<text text-anchor="middle" x="776" y="-99.8" font-family="Times,serif" font-size="14.00" fill="#000000">SpeechButtonComponent</text>
</g>
<!-- VoiceControlModule -->
<g id="node2" class="node">
<title>VoiceControlModule</title>
<polygon fill="#8dd3c7" stroke="#000000" points="582.7548,-187 579.7548,-191 558.7548,-191 555.7548,-187 447.2452,-187 447.2452,-151 582.7548,-151 582.7548,-187"/>
<text text-anchor="middle" x="515" y="-164.8" font-family="Times,serif" font-size="14.00" fill="#000000">VoiceControlModule</text>
</g>
<!-- SpeechButtonComponent&#45;&gt;VoiceControlModule -->
<g id="edge1" class="edge">
<title>SpeechButtonComponent&#45;&gt;VoiceControlModule</title>
<path fill="none" stroke="#000000" d="M776,-122.2843C776,-143.3211 776,-175 776,-175 776,-175 592.8933,-175 592.8933,-175"/>
<polygon fill="#000000" stroke="#000000" points="592.8934,-171.5001 582.8933,-175 592.8933,-178.5001 592.8934,-171.5001"/>
</g>
<!-- SpeechButtonComponent  -->
<g id="node5" class="node">
<title>SpeechButtonComponent </title>
<polygon fill="#fb8072" stroke="#000000" points="596.877,-252 433.123,-252 433.123,-216 596.877,-216 596.877,-252"/>
<text text-anchor="middle" x="515" y="-229.8" font-family="Times,serif" font-size="14.00" fill="#000000">SpeechButtonComponent </text>
</g>
<!-- VoiceControlModule&#45;&gt;SpeechButtonComponent  -->
<g id="edge4" class="edge">
<title>VoiceControlModule&#45;&gt;SpeechButtonComponent </title>
<path fill="none" stroke="#000000" stroke-dasharray="5,2" d="M515,-187.1061C515,-187.1061 515,-205.991 515,-205.991"/>
<polygon fill="#000000" stroke="#000000" points="511.5001,-205.9909 515,-215.991 518.5001,-205.991 511.5001,-205.9909"/>
</g>
<!-- SoundModule -->
<g id="node3" class="node">
<title>SoundModule</title>
<polygon fill="#8dd3c7" stroke="#000000" points="671.833,-122 668.833,-126 647.833,-126 644.833,-122 576.167,-122 576.167,-86 671.833,-86 671.833,-122"/>
<text text-anchor="middle" x="624" y="-99.8" font-family="Times,serif" font-size="14.00" fill="#000000">SoundModule</text>
</g>
<!-- SoundModule&#45;&gt;VoiceControlModule -->
<g id="edge2" class="edge">
<title>SoundModule&#45;&gt;VoiceControlModule</title>
<path fill="none" stroke="#000000" d="M589.7828,-122.0225C589.7828,-139.3734 589.7828,-163 589.7828,-163 589.7828,-163 589.0927,-163 589.0927,-163"/>
<polygon fill="#000000" stroke="#000000" points="592.8815,-159.5002 582.8815,-163 592.8814,-166.5002 592.8815,-159.5002"/>
</g>
<!-- UtilsModule -->
<g id="node4" class="node">
<title>UtilsModule</title>
<polygon fill="#8dd3c7" stroke="#000000" points="558.2731,-122 555.2731,-126 534.2731,-126 531.2731,-122 471.7269,-122 471.7269,-86 558.2731,-86 558.2731,-122"/>
<text text-anchor="middle" x="515" y="-99.8" font-family="Times,serif" font-size="14.00" fill="#000000">UtilsModule</text>
</g>
<!-- UtilsModule&#45;&gt;VoiceControlModule -->
<g id="edge3" class="edge">
<title>UtilsModule&#45;&gt;VoiceControlModule</title>
<path fill="none" stroke="#000000" d="M515,-122.1061C515,-122.1061 515,-140.991 515,-140.991"/>
<polygon fill="#000000" stroke="#000000" points="511.5001,-140.9909 515,-150.991 518.5001,-140.991 511.5001,-140.9909"/>
</g>
<!-- VoiceControlService -->
<g id="node6" class="node">
<title>VoiceControlService</title>
<ellipse fill="#fdb462" stroke="#000000" cx="355" cy="-104" rx="92.6132" ry="18"/>
<text text-anchor="middle" x="355" y="-99.8" font-family="Times,serif" font-size="14.00" fill="#000000">VoiceControlService</text>
</g>
<!-- VoiceControlService&#45;&gt;VoiceControlModule -->
<g id="edge5" class="edge">
<title>VoiceControlService&#45;&gt;VoiceControlModule</title>
<path fill="none" stroke="#000000" d="M440.2172,-111.0673C440.2172,-129.0259 440.2172,-175 440.2172,-175 440.2172,-175 440.9073,-175 440.9073,-175"/>
<polygon fill="#000000" stroke="#000000" points="437.1186,-178.5002 447.1185,-175 437.1185,-171.5002 437.1186,-178.5002"/>
</g>
<!-- VoiceRecognitionService -->
<g id="node7" class="node">
<title>VoiceRecognitionService</title>
<ellipse fill="#fdb462" stroke="#000000" cx="134" cy="-104" rx="110.0122" ry="18"/>
<text text-anchor="middle" x="134" y="-99.8" font-family="Times,serif" font-size="14.00" fill="#000000">VoiceRecognitionService</text>
</g>
<!-- VoiceRecognitionService&#45;&gt;VoiceControlModule -->
<g id="edge6" class="edge">
<title>VoiceRecognitionService&#45;&gt;VoiceControlModule</title>
<path fill="none" stroke="#000000" d="M134,-122.0225C134,-139.3734 134,-163 134,-163 134,-163 436.8848,-163 436.8848,-163"/>
<polygon fill="#000000" stroke="#000000" points="436.8849,-166.5001 446.8848,-163 436.8848,-159.5001 436.8849,-166.5001"/>
</g>
</g>
</svg>
