<?xml version="1.0" encoding="UTF-8" standalone="no"?>
<!DOCTYPE svg PUBLIC "-//W3C//DTD SVG 1.1//EN"
 "http://www.w3.org/Graphics/SVG/1.1/DTD/svg11.dtd">
<!-- Generated by graphviz version 2.40.1 (20161225.0304)
 -->
<!-- Title: dependencies Pages: 1 -->
<svg width="879pt" height="284pt"
 viewBox="0.00 0.00 879.00 284.00" xmlns="http://www.w3.org/2000/svg" xmlns:xlink="http://www.w3.org/1999/xlink">
<g id="graph0" class="graph" transform="scale(1 1) rotate(0) translate(4 280)">
<title>dependencies</title>
<polygon fill="#ffffff" stroke="transparent" points="-4,4 -4,-280 875,-280 875,4 -4,4"/>
<text text-anchor="start" x="414.5091" y="-42.4" font-family="sans-serif" font-weight="bold" font-size="14.00" fill="#000000">Legend</text>
<polygon fill="#ffffb3" stroke="transparent" points="201.5,-10 201.5,-30 221.5,-30 221.5,-10 201.5,-10"/>
<text text-anchor="start" x="225.129" y="-15.4" font-family="sans-serif" font-size="14.00" fill="#000000"> &#160;Declarations</text>
<polygon fill="#8dd3c7" stroke="transparent" points="314.5,-10 314.5,-30 334.5,-30 334.5,-10 314.5,-10"/>
<text text-anchor="start" x="338.2251" y="-15.4" font-family="sans-serif" font-size="14.00" fill="#000000"> &#160;Module</text>
<polygon fill="#80b1d3" stroke="transparent" points="400.5,-10 400.5,-30 420.5,-30 420.5,-10 400.5,-10"/>
<text text-anchor="start" x="424.2812" y="-15.4" font-family="sans-serif" font-size="14.00" fill="#000000"> &#160;Bootstrap</text>
<polygon fill="#fdb462" stroke="transparent" points="497.5,-10 497.5,-30 517.5,-30 517.5,-10 497.5,-10"/>
<text text-anchor="start" x="521.1732" y="-15.4" font-family="sans-serif" font-size="14.00" fill="#000000"> &#160;Providers</text>
<polygon fill="#fb8072" stroke="transparent" points="593.5,-10 593.5,-30 613.5,-30 613.5,-10 593.5,-10"/>
<text text-anchor="start" x="617.2258" y="-15.4" font-family="sans-serif" font-size="14.00" fill="#000000"> &#160;Exports</text>
<g id="clust1" class="cluster">
<title>cluster_UtilsModule</title>
<polygon fill="none" stroke="#000000" stroke-dasharray="1,5" points="8,-70 8,-268 863,-268 863,-70 8,-70"/>
</g>
<g id="clust2" class="cluster">
<title>cluster_UtilsModule_declarations</title>
<polygon fill="none" stroke="#000000" points="354,-78 354,-130 855,-130 855,-78 354,-78"/>
</g>
<g id="clust8" class="cluster">
<title>cluster_UtilsModule_exports</title>
<polygon fill="none" stroke="#000000" points="218,-208 218,-260 733,-260 733,-208 218,-208"/>
</g>
<g id="clust10" class="cluster">
<title>cluster_UtilsModule_providers</title>
<polygon fill="none" stroke="#000000" points="16,-78 16,-130 346,-130 346,-78 16,-78"/>
</g>
<!-- FieldFilterPipe -->
<g id="node1" class="node">
<title>FieldFilterPipe</title>
<polygon fill="#ffffb3" stroke="#000000" points="846.9958,-122 747.0042,-122 747.0042,-86 846.9958,-86 846.9958,-122"/>
<text text-anchor="middle" x="797" y="-99.8" font-family="Times,serif" font-size="14.00" fill="#000000">FieldFilterPipe</text>
</g>
<!-- UtilsModule -->
<g id="node5" class="node">
<title>UtilsModule</title>
<polygon fill="#8dd3c7" stroke="#000000" points="543.2731,-187 540.2731,-191 519.2731,-191 516.2731,-187 456.7269,-187 456.7269,-151 543.2731,-151 543.2731,-187"/>
<text text-anchor="middle" x="500" y="-164.8" font-family="Times,serif" font-size="14.00" fill="#000000">UtilsModule</text>
</g>
<!-- FieldFilterPipe&#45;&gt;UtilsModule -->
<g id="edge1" class="edge">
<title>FieldFilterPipe&#45;&gt;UtilsModule</title>
<path fill="none" stroke="#000000" d="M797,-122.1061C797,-141.3391 797,-169 797,-169 797,-169 553.5044,-169 553.5044,-169"/>
<polygon fill="#000000" stroke="#000000" points="553.5045,-165.5001 543.5044,-169 553.5044,-172.5001 553.5045,-165.5001"/>
</g>
<!-- MomentPipe -->
<g id="node2" class="node">
<title>MomentPipe</title>
<polygon fill="#ffffb3" stroke="#000000" points="729.3288,-122 640.6712,-122 640.6712,-86 729.3288,-86 729.3288,-122"/>
<text text-anchor="middle" x="685" y="-99.8" font-family="Times,serif" font-size="14.00" fill="#000000">MomentPipe</text>
</g>
<!-- MomentPipe&#45;&gt;UtilsModule -->
<g id="edge2" class="edge">
<title>MomentPipe&#45;&gt;UtilsModule</title>
<path fill="none" stroke="#000000" d="M682.7919,-122.027C682.7919,-138.3976 682.7919,-160 682.7919,-160 682.7919,-160 553.3191,-160 553.3191,-160"/>
<polygon fill="#000000" stroke="#000000" points="553.3192,-156.5001 543.3191,-160 553.3191,-163.5001 553.3192,-156.5001"/>
</g>
<!-- TimeDirective -->
<g id="node3" class="node">
<title>TimeDirective</title>
<polygon fill="#ffffb3" stroke="#000000" points="622.6319,-122 525.3681,-122 525.3681,-86 622.6319,-86 622.6319,-122"/>
<text text-anchor="middle" x="574" y="-99.8" font-family="Times,serif" font-size="14.00" fill="#000000">TimeDirective</text>
</g>
<!-- TimeDirective&#45;&gt;UtilsModule -->
<g id="edge3" class="edge">
<title>TimeDirective&#45;&gt;UtilsModule</title>
<path fill="none" stroke="#000000" d="M534.2854,-122.1061C534.2854,-122.1061 534.2854,-140.991 534.2854,-140.991"/>
<polygon fill="#000000" stroke="#000000" points="530.7855,-140.9909 534.2854,-150.991 537.7855,-140.991 530.7855,-140.9909"/>
</g>
<!-- ToggleActiveDirective -->
<g id="node4" class="node">
<title>ToggleActiveDirective</title>
<polygon fill="#ffffb3" stroke="#000000" points="507.5576,-122 362.4424,-122 362.4424,-86 507.5576,-86 507.5576,-122"/>
<text text-anchor="middle" x="435" y="-99.8" font-family="Times,serif" font-size="14.00" fill="#000000">ToggleActiveDirective</text>
</g>
<!-- ToggleActiveDirective&#45;&gt;UtilsModule -->
<g id="edge4" class="edge">
<title>ToggleActiveDirective&#45;&gt;UtilsModule</title>
<path fill="none" stroke="#000000" d="M482.0712,-122.1061C482.0712,-122.1061 482.0712,-140.991 482.0712,-140.991"/>
<polygon fill="#000000" stroke="#000000" points="478.5713,-140.9909 482.0712,-150.991 485.5713,-140.991 478.5713,-140.9909"/>
</g>
<!-- FieldFilterPipe  -->
<g id="node6" class="node">
<title>FieldFilterPipe </title>
<polygon fill="#fb8072" stroke="#000000" points="724.997,-252 621.003,-252 621.003,-216 724.997,-216 724.997,-252"/>
<text text-anchor="middle" x="673" y="-229.8" font-family="Times,serif" font-size="14.00" fill="#000000">FieldFilterPipe </text>
</g>
<!-- UtilsModule&#45;&gt;FieldFilterPipe  -->
<g id="edge5" class="edge">
<title>UtilsModule&#45;&gt;FieldFilterPipe </title>
<path fill="none" stroke="#000000" stroke-dasharray="5,2" d="M543.53,-178C581.9279,-178 631.8258,-178 631.8258,-178 631.8258,-178 631.8258,-205.973 631.8258,-205.973"/>
<polygon fill="#000000" stroke="#000000" points="628.3258,-205.973 631.8258,-215.973 635.3258,-205.973 628.3258,-205.973"/>
</g>
<!-- MomentPipe  -->
<g id="node7" class="node">
<title>MomentPipe </title>
<polygon fill="#fb8072" stroke="#000000" points="602.8284,-252 511.1716,-252 511.1716,-216 602.8284,-216 602.8284,-252"/>
<text text-anchor="middle" x="557" y="-229.8" font-family="Times,serif" font-size="14.00" fill="#000000">MomentPipe </text>
</g>
<!-- UtilsModule&#45;&gt;MomentPipe  -->
<g id="edge6" class="edge">
<title>UtilsModule&#45;&gt;MomentPipe </title>
<path fill="none" stroke="#000000" stroke-dasharray="5,2" d="M527.2361,-187.1061C527.2361,-187.1061 527.2361,-205.991 527.2361,-205.991"/>
<polygon fill="#000000" stroke="#000000" points="523.7362,-205.9909 527.2361,-215.991 530.7362,-205.991 523.7362,-205.9909"/>
</g>
<!-- TimeDirective  -->
<g id="node8" class="node">
<title>TimeDirective </title>
<polygon fill="#fb8072" stroke="#000000" points="493.6313,-252 392.3687,-252 392.3687,-216 493.6313,-216 493.6313,-252"/>
<text text-anchor="middle" x="443" y="-229.8" font-family="Times,serif" font-size="14.00" fill="#000000">TimeDirective </text>
</g>
<!-- UtilsModule&#45;&gt;TimeDirective  -->
<g id="edge7" class="edge">
<title>UtilsModule&#45;&gt;TimeDirective </title>
<path fill="none" stroke="#000000" stroke-dasharray="5,2" d="M475.0896,-187.1061C475.0896,-187.1061 475.0896,-205.991 475.0896,-205.991"/>
<polygon fill="#000000" stroke="#000000" points="471.5897,-205.9909 475.0896,-215.991 478.5897,-205.991 471.5897,-205.9909"/>
</g>
<!-- ToggleActiveDirective  -->
<g id="node9" class="node">
<title>ToggleActiveDirective </title>
<polygon fill="#fb8072" stroke="#000000" points="374.0583,-252 225.9417,-252 225.9417,-216 374.0583,-216 374.0583,-252"/>
<text text-anchor="middle" x="300" y="-229.8" font-family="Times,serif" font-size="14.00" fill="#000000">ToggleActiveDirective </text>
</g>
<!-- UtilsModule&#45;&gt;ToggleActiveDirective  -->
<g id="edge8" class="edge">
<title>UtilsModule&#45;&gt;ToggleActiveDirective </title>
<path fill="none" stroke="#000000" stroke-dasharray="5,2" d="M456.5363,-178C418.1968,-178 368.375,-178 368.375,-178 368.375,-178 368.375,-205.973 368.375,-205.973"/>
<polygon fill="#000000" stroke="#000000" points="364.8751,-205.973 368.375,-215.973 371.8751,-205.973 364.8751,-205.973"/>
</g>
<!-- BodyService -->
<g id="node10" class="node">
<title>BodyService</title>
<ellipse fill="#fdb462" stroke="#000000" cx="277" cy="-104" rx="60.8352" ry="18"/>
<text text-anchor="middle" x="277" y="-99.8" font-family="Times,serif" font-size="14.00" fill="#000000">BodyService</text>
</g>
<!-- BodyService&#45;&gt;UtilsModule -->
<g id="edge9" class="edge">
<title>BodyService&#45;&gt;UtilsModule</title>
<path fill="none" stroke="#000000" d="M281.8194,-122.027C281.8194,-138.3976 281.8194,-160 281.8194,-160 281.8194,-160 446.6337,-160 446.6337,-160"/>
<polygon fill="#000000" stroke="#000000" points="446.6337,-163.5001 456.6337,-160 446.6336,-156.5001 446.6337,-163.5001"/>
</g>
<!-- NotificationService -->
<g id="node11" class="node">
<title>NotificationService</title>
<ellipse fill="#fdb462" stroke="#000000" cx="111" cy="-104" rx="86.8107" ry="18"/>
<text text-anchor="middle" x="111" y="-99.8" font-family="Times,serif" font-size="14.00" fill="#000000">NotificationService</text>
</g>
<!-- NotificationService&#45;&gt;UtilsModule -->
<g id="edge10" class="edge">
<title>NotificationService&#45;&gt;UtilsModule</title>
<path fill="none" stroke="#000000" d="M111,-122.1061C111,-141.3391 111,-169 111,-169 111,-169 446.5091,-169 446.5091,-169"/>
<polygon fill="#000000" stroke="#000000" points="446.5091,-172.5001 456.5091,-169 446.509,-165.5001 446.5091,-172.5001"/>
</g>
</g>
</svg>
