<?xml version="1.0" encoding="UTF-8" standalone="no"?>
<!DOCTYPE svg PUBLIC "-//W3C//DTD SVG 1.1//EN"
 "http://www.w3.org/Graphics/SVG/1.1/DTD/svg11.dtd">
<!-- Generated by graphviz version 2.40.1 (20161225.0304)
 -->
<!-- Title: dependencies Pages: 1 -->
<svg width="1076pt" height="211pt"
 viewBox="0.00 0.00 1076.00 211.00" xmlns="http://www.w3.org/2000/svg" xmlns:xlink="http://www.w3.org/1999/xlink">
<g id="graph0" class="graph" transform="scale(1 1) rotate(0) translate(4 207)">
<title>dependencies</title>
<polygon fill="#ffffff" stroke="transparent" points="-4,4 -4,-207 1072,-207 1072,4 -4,4"/>
<text text-anchor="start" x="513.0091" y="-42.4" font-family="sans-serif" font-weight="bold" font-size="14.00" fill="#000000">Legend</text>
<polygon fill="#ffffb3" stroke="transparent" points="300,-10 300,-30 320,-30 320,-10 300,-10"/>
<text text-anchor="start" x="323.629" y="-15.4" font-family="sans-serif" font-size="14.00" fill="#000000"> &#160;Declarations</text>
<polygon fill="#8dd3c7" stroke="transparent" points="413,-10 413,-30 433,-30 433,-10 413,-10"/>
<text text-anchor="start" x="436.7251" y="-15.4" font-family="sans-serif" font-size="14.00" fill="#000000"> &#160;Module</text>
<polygon fill="#80b1d3" stroke="transparent" points="499,-10 499,-30 519,-30 519,-10 499,-10"/>
<text text-anchor="start" x="522.7812" y="-15.4" font-family="sans-serif" font-size="14.00" fill="#000000"> &#160;Bootstrap</text>
<polygon fill="#fdb462" stroke="transparent" points="596,-10 596,-30 616,-30 616,-10 596,-10"/>
<text text-anchor="start" x="619.6732" y="-15.4" font-family="sans-serif" font-size="14.00" fill="#000000"> &#160;Providers</text>
<polygon fill="#fb8072" stroke="transparent" points="692,-10 692,-30 712,-30 712,-10 692,-10"/>
<text text-anchor="start" x="715.7258" y="-15.4" font-family="sans-serif" font-size="14.00" fill="#000000"> &#160;Exports</text>
<g id="clust1" class="cluster">
<title>cluster_CoreModule</title>
<polygon fill="none" stroke="#000000" stroke-dasharray="1,5" points="8,-70 8,-195 1060,-195 1060,-70 8,-70"/>
</g>
<g id="clust6" class="cluster">
<title>cluster_CoreModule_providers</title>
<polygon fill="none" stroke="#000000" points="16,-78 16,-130 1052,-130 1052,-78 16,-78"/>
</g>
<!-- JsonApiService -->
<g id="node1" class="node">
<title>JsonApiService</title>
<ellipse fill="#fdb462" stroke="#000000" cx="972" cy="-104" rx="71.7873" ry="18"/>
<text text-anchor="middle" x="972" y="-99.8" font-family="Times,serif" font-size="14.00" fill="#000000">JsonApiService</text>
</g>
<!-- CoreModule -->
<g id="node7" class="node">
<title>CoreModule</title>
<polygon fill="#8dd3c7" stroke="#000000" points="637.2619,-187 634.2619,-191 613.2619,-191 610.2619,-187 550.7381,-187 550.7381,-151 637.2619,-151 637.2619,-187"/>
<text text-anchor="middle" x="594" y="-164.8" font-family="Times,serif" font-size="14.00" fill="#000000">CoreModule</text>
</g>
<!-- JsonApiService&#45;&gt;CoreModule -->
<g id="edge1" class="edge">
<title>JsonApiService&#45;&gt;CoreModule</title>
<path fill="none" stroke="#000000" d="M972,-122.2843C972,-143.3211 972,-175 972,-175 972,-175 647.3614,-175 647.3614,-175"/>
<polygon fill="#000000" stroke="#000000" points="647.3614,-171.5001 637.3614,-175 647.3614,-178.5001 647.3614,-171.5001"/>
</g>
<!-- LayoutService -->
<g id="node2" class="node">
<title>LayoutService</title>
<ellipse fill="#fdb462" stroke="#000000" cx="815" cy="-104" rx="67.1946" ry="18"/>
<text text-anchor="middle" x="815" y="-99.8" font-family="Times,serif" font-size="14.00" fill="#000000">LayoutService</text>
</g>
<!-- LayoutService&#45;&gt;CoreModule -->
<g id="edge2" class="edge">
<title>LayoutService&#45;&gt;CoreModule</title>
<path fill="none" stroke="#000000" d="M815,-122.0225C815,-139.3734 815,-163 815,-163 815,-163 647.3988,-163 647.3988,-163"/>
<polygon fill="#000000" stroke="#000000" points="647.3988,-159.5001 637.3988,-163 647.3988,-166.5001 647.3988,-159.5001"/>
</g>
<!-- SoundService -->
<g id="node3" class="node">
<title>SoundService</title>
<ellipse fill="#fdb462" stroke="#000000" cx="665" cy="-104" rx="64.8486" ry="18"/>
<text text-anchor="middle" x="665" y="-99.8" font-family="Times,serif" font-size="14.00" fill="#000000">SoundService</text>
</g>
<!-- SoundService&#45;&gt;CoreModule -->
<g id="edge3" class="edge">
<title>SoundService&#45;&gt;CoreModule</title>
<path fill="none" stroke="#000000" d="M618.8534,-116.8419C618.8534,-116.8419 618.8534,-140.5231 618.8534,-140.5231"/>
<polygon fill="#000000" stroke="#000000" points="615.3535,-140.523 618.8534,-150.5231 622.3535,-140.5231 615.3535,-140.523"/>
</g>
<!-- UserService -->
<g id="node4" class="node">
<title>UserService</title>
<ellipse fill="#fdb462" stroke="#000000" cx="524" cy="-104" rx="58.4415" ry="18"/>
<text text-anchor="middle" x="524" y="-99.8" font-family="Times,serif" font-size="14.00" fill="#000000">UserService</text>
</g>
<!-- UserService&#45;&gt;CoreModule -->
<g id="edge4" class="edge">
<title>UserService&#45;&gt;CoreModule</title>
<path fill="none" stroke="#000000" d="M566.4198,-116.5327C566.4198,-116.5327 566.4198,-140.8507 566.4198,-140.8507"/>
<polygon fill="#000000" stroke="#000000" points="562.9199,-140.8506 566.4198,-150.8507 569.9199,-140.8507 562.9199,-140.8506"/>
</g>
<!-- VoiceControlService -->
<g id="node5" class="node">
<title>VoiceControlService</title>
<ellipse fill="#fdb462" stroke="#000000" cx="355" cy="-104" rx="92.6132" ry="18"/>
<text text-anchor="middle" x="355" y="-99.8" font-family="Times,serif" font-size="14.00" fill="#000000">VoiceControlService</text>
</g>
<!-- VoiceControlService&#45;&gt;CoreModule -->
<g id="edge5" class="edge">
<title>VoiceControlService&#45;&gt;CoreModule</title>
<path fill="none" stroke="#000000" d="M355,-122.0225C355,-139.3734 355,-163 355,-163 355,-163 540.7189,-163 540.7189,-163"/>
<polygon fill="#000000" stroke="#000000" points="540.7189,-166.5001 550.7189,-163 540.7189,-159.5001 540.7189,-166.5001"/>
</g>
<!-- VoiceRecognitionService -->
<g id="node6" class="node">
<title>VoiceRecognitionService</title>
<ellipse fill="#fdb462" stroke="#000000" cx="134" cy="-104" rx="110.0122" ry="18"/>
<text text-anchor="middle" x="134" y="-99.8" font-family="Times,serif" font-size="14.00" fill="#000000">VoiceRecognitionService</text>
</g>
<!-- VoiceRecognitionService&#45;&gt;CoreModule -->
<g id="edge6" class="edge">
<title>VoiceRecognitionService&#45;&gt;CoreModule</title>
<path fill="none" stroke="#000000" d="M134,-122.2843C134,-143.3211 134,-175 134,-175 134,-175 540.7243,-175 540.7243,-175"/>
<polygon fill="#000000" stroke="#000000" points="540.7244,-178.5001 550.7243,-175 540.7243,-171.5001 540.7244,-178.5001"/>
</g>
</g>
</svg>
