<?xml version="1.0" encoding="UTF-8" standalone="no"?>
<!DOCTYPE svg PUBLIC "-//W3C//DTD SVG 1.1//EN"
 "http://www.w3.org/Graphics/SVG/1.1/DTD/svg11.dtd">
<!-- Generated by graphviz version 2.40.1 (20161225.0304)
 -->
<!-- Title: dependencies Pages: 1 -->
<svg width="504pt" height="284pt"
 viewBox="0.00 0.00 504.00 284.00" xmlns="http://www.w3.org/2000/svg" xmlns:xlink="http://www.w3.org/1999/xlink">
<g id="graph0" class="graph" transform="scale(1 1) rotate(0) translate(4 280)">
<title>dependencies</title>
<polygon fill="#ffffff" stroke="transparent" points="-4,4 -4,-280 500,-280 500,4 -4,4"/>
<text text-anchor="start" x="227.0091" y="-42.4" font-family="sans-serif" font-weight="bold" font-size="14.00" fill="#000000">Legend</text>
<polygon fill="#ffffb3" stroke="transparent" points="14,-10 14,-30 34,-30 34,-10 14,-10"/>
<text text-anchor="start" x="37.629" y="-15.4" font-family="sans-serif" font-size="14.00" fill="#000000"> &#160;Declarations</text>
<polygon fill="#8dd3c7" stroke="transparent" points="127,-10 127,-30 147,-30 147,-10 127,-10"/>
<text text-anchor="start" x="150.7251" y="-15.4" font-family="sans-serif" font-size="14.00" fill="#000000"> &#160;Module</text>
<polygon fill="#80b1d3" stroke="transparent" points="213,-10 213,-30 233,-30 233,-10 213,-10"/>
<text text-anchor="start" x="236.7812" y="-15.4" font-family="sans-serif" font-size="14.00" fill="#000000"> &#160;Bootstrap</text>
<polygon fill="#fdb462" stroke="transparent" points="310,-10 310,-30 330,-30 330,-10 310,-10"/>
<text text-anchor="start" x="333.6732" y="-15.4" font-family="sans-serif" font-size="14.00" fill="#000000"> &#160;Providers</text>
<polygon fill="#fb8072" stroke="transparent" points="406,-10 406,-30 426,-30 426,-10 406,-10"/>
<text text-anchor="start" x="429.7258" y="-15.4" font-family="sans-serif" font-size="14.00" fill="#000000"> &#160;Exports</text>
<g id="clust1" class="cluster">
<title>cluster_SmartadminWidgetsModule</title>
<polygon fill="none" stroke="#000000" stroke-dasharray="1,5" points="81,-70 81,-268 415,-268 415,-70 81,-70"/>
</g>
<g id="clust2" class="cluster">
<title>cluster_SmartadminWidgetsModule_declarations</title>
<polygon fill="none" stroke="#000000" points="90,-78 90,-130 400,-130 400,-78 90,-78"/>
</g>
<g id="clust6" class="cluster">
<title>cluster_SmartadminWidgetsModule_exports</title>
<polygon fill="none" stroke="#000000" points="89,-208 89,-260 407,-260 407,-208 89,-208"/>
</g>
<!-- WidgetComponent -->
<g id="node1" class="node">
<title>WidgetComponent</title>
<polygon fill="#ffffb3" stroke="#000000" points="392.0436,-122 269.9564,-122 269.9564,-86 392.0436,-86 392.0436,-122"/>
<text text-anchor="middle" x="331" y="-99.8" font-family="Times,serif" font-size="14.00" fill="#000000">WidgetComponent</text>
</g>
<!-- SmartadminWidgetsModule -->
<g id="node3" class="node">
<title>SmartadminWidgetsModule</title>
<polygon fill="#8dd3c7" stroke="#000000" points="335.14,-187 332.14,-191 311.14,-191 308.14,-187 160.86,-187 160.86,-151 335.14,-151 335.14,-187"/>
<text text-anchor="middle" x="248" y="-164.8" font-family="Times,serif" font-size="14.00" fill="#000000">SmartadminWidgetsModule</text>
</g>
<!-- WidgetComponent&#45;&gt;SmartadminWidgetsModule -->
<g id="edge1" class="edge">
<title>WidgetComponent&#45;&gt;SmartadminWidgetsModule</title>
<path fill="none" stroke="#000000" d="M302.5242,-122.1061C302.5242,-122.1061 302.5242,-140.991 302.5242,-140.991"/>
<polygon fill="#000000" stroke="#000000" points="299.0243,-140.9909 302.5242,-150.991 306.0243,-140.991 299.0243,-140.9909"/>
</g>
<!-- WidgetsGridComponent -->
<g id="node2" class="node">
<title>WidgetsGridComponent</title>
<polygon fill="#ffffb3" stroke="#000000" points="251.6456,-122 98.3544,-122 98.3544,-86 251.6456,-86 251.6456,-122"/>
<text text-anchor="middle" x="175" y="-99.8" font-family="Times,serif" font-size="14.00" fill="#000000">WidgetsGridComponent</text>
</g>
<!-- WidgetsGridComponent&#45;&gt;SmartadminWidgetsModule -->
<g id="edge2" class="edge">
<title>WidgetsGridComponent&#45;&gt;SmartadminWidgetsModule</title>
<path fill="none" stroke="#000000" d="M206.2514,-122.1061C206.2514,-122.1061 206.2514,-140.991 206.2514,-140.991"/>
<polygon fill="#000000" stroke="#000000" points="202.7515,-140.9909 206.2514,-150.991 209.7515,-140.991 202.7515,-140.9909"/>
</g>
<!-- WidgetComponent  -->
<g id="node4" class="node">
<title>WidgetComponent </title>
<polygon fill="#fb8072" stroke="#000000" points="399.0428,-252 272.9572,-252 272.9572,-216 399.0428,-216 399.0428,-252"/>
<text text-anchor="middle" x="336" y="-229.8" font-family="Times,serif" font-size="14.00" fill="#000000">WidgetComponent </text>
</g>
<!-- SmartadminWidgetsModule&#45;&gt;WidgetComponent  -->
<g id="edge3" class="edge">
<title>SmartadminWidgetsModule&#45;&gt;WidgetComponent </title>
<path fill="none" stroke="#000000" stroke-dasharray="5,2" d="M304.1492,-187.1061C304.1492,-187.1061 304.1492,-205.991 304.1492,-205.991"/>
<polygon fill="#000000" stroke="#000000" points="300.6493,-205.9909 304.1492,-215.991 307.6493,-205.991 300.6493,-205.9909"/>
</g>
<!-- WidgetsGridComponent  -->
<g id="node5" class="node">
<title>WidgetsGridComponent </title>
<polygon fill="#fb8072" stroke="#000000" points="254.6453,-252 97.3547,-252 97.3547,-216 254.6453,-216 254.6453,-252"/>
<text text-anchor="middle" x="176" y="-229.8" font-family="Times,serif" font-size="14.00" fill="#000000">WidgetsGridComponent </text>
</g>
<!-- SmartadminWidgetsModule&#45;&gt;WidgetsGridComponent  -->
<g id="edge4" class="edge">
<title>SmartadminWidgetsModule&#45;&gt;WidgetsGridComponent </title>
<path fill="none" stroke="#000000" stroke-dasharray="5,2" d="M207.6264,-187.1061C207.6264,-187.1061 207.6264,-205.991 207.6264,-205.991"/>
<polygon fill="#000000" stroke="#000000" points="204.1265,-205.9909 207.6264,-215.991 211.1265,-205.991 204.1265,-205.9909"/>
</g>
</g>
</svg>
