<?xml version="1.0" encoding="UTF-8" standalone="no"?>
<!DOCTYPE svg PUBLIC "-//W3C//DTD SVG 1.1//EN"
 "http://www.w3.org/Graphics/SVG/1.1/DTD/svg11.dtd">
<!-- Generated by graphviz version 2.40.1 (20161225.0304)
 -->
<!-- Title: dependencies Pages: 1 -->
<svg width="504pt" height="284pt"
 viewBox="0.00 0.00 504.00 284.00" xmlns="http://www.w3.org/2000/svg" xmlns:xlink="http://www.w3.org/1999/xlink">
<g id="graph0" class="graph" transform="scale(1 1) rotate(0) translate(4 280)">
<title>dependencies</title>
<polygon fill="#ffffff" stroke="transparent" points="-4,4 -4,-280 500,-280 500,4 -4,4"/>
<text text-anchor="start" x="227.0091" y="-42.4" font-family="sans-serif" font-weight="bold" font-size="14.00" fill="#000000">Legend</text>
<polygon fill="#ffffb3" stroke="transparent" points="14,-10 14,-30 34,-30 34,-10 14,-10"/>
<text text-anchor="start" x="37.629" y="-15.4" font-family="sans-serif" font-size="14.00" fill="#000000"> &#160;Declarations</text>
<polygon fill="#8dd3c7" stroke="transparent" points="127,-10 127,-30 147,-30 147,-10 127,-10"/>
<text text-anchor="start" x="150.7251" y="-15.4" font-family="sans-serif" font-size="14.00" fill="#000000"> &#160;Module</text>
<polygon fill="#80b1d3" stroke="transparent" points="213,-10 213,-30 233,-30 233,-10 213,-10"/>
<text text-anchor="start" x="236.7812" y="-15.4" font-family="sans-serif" font-size="14.00" fill="#000000"> &#160;Bootstrap</text>
<polygon fill="#fdb462" stroke="transparent" points="310,-10 310,-30 330,-30 330,-10 310,-10"/>
<text text-anchor="start" x="333.6732" y="-15.4" font-family="sans-serif" font-size="14.00" fill="#000000"> &#160;Providers</text>
<polygon fill="#fb8072" stroke="transparent" points="406,-10 406,-30 426,-30 426,-10 406,-10"/>
<text text-anchor="start" x="429.7258" y="-15.4" font-family="sans-serif" font-size="14.00" fill="#000000"> &#160;Exports</text>
<g id="clust1" class="cluster">
<title>cluster_UserModule</title>
<polygon fill="none" stroke="#000000" stroke-dasharray="1,5" points="89.5,-70 89.5,-268 406.5,-268 406.5,-70 89.5,-70"/>
</g>
<g id="clust2" class="cluster">
<title>cluster_UserModule_declarations</title>
<polygon fill="none" stroke="#000000" points="101.5,-78 101.5,-130 395.5,-130 395.5,-78 101.5,-78"/>
</g>
<g id="clust6" class="cluster">
<title>cluster_UserModule_exports</title>
<polygon fill="none" stroke="#000000" points="97.5,-208 97.5,-260 398.5,-260 398.5,-208 97.5,-208"/>
</g>
<!-- LoginInfoComponent -->
<g id="node1" class="node">
<title>LoginInfoComponent</title>
<polygon fill="#ffffb3" stroke="#000000" points="387.5968,-122 249.4032,-122 249.4032,-86 387.5968,-86 387.5968,-122"/>
<text text-anchor="middle" x="318.5" y="-99.8" font-family="Times,serif" font-size="14.00" fill="#000000">LoginInfoComponent</text>
</g>
<!-- UserModule -->
<g id="node3" class="node">
<title>UserModule</title>
<polygon fill="#8dd3c7" stroke="#000000" points="214.4762,-187 211.4762,-191 190.4762,-191 187.4762,-187 128.5238,-187 128.5238,-151 214.4762,-151 214.4762,-187"/>
<text text-anchor="middle" x="171.5" y="-164.8" font-family="Times,serif" font-size="14.00" fill="#000000">UserModule</text>
</g>
<!-- LoginInfoComponent&#45;&gt;UserModule -->
<g id="edge1" class="edge">
<title>LoginInfoComponent&#45;&gt;UserModule</title>
<path fill="none" stroke="#000000" d="M341.5161,-122.0225C341.5161,-139.3734 341.5161,-163 341.5161,-163 341.5161,-163 224.8422,-163 224.8422,-163"/>
<polygon fill="#000000" stroke="#000000" points="224.8422,-159.5001 214.8422,-163 224.8421,-166.5001 224.8422,-159.5001"/>
</g>
<!-- LogoutComponent -->
<g id="node2" class="node">
<title>LogoutComponent</title>
<polygon fill="#ffffb3" stroke="#000000" points="231.2758,-122 109.7242,-122 109.7242,-86 231.2758,-86 231.2758,-122"/>
<text text-anchor="middle" x="170.5" y="-99.8" font-family="Times,serif" font-size="14.00" fill="#000000">LogoutComponent</text>
</g>
<!-- LogoutComponent&#45;&gt;UserModule -->
<g id="edge2" class="edge">
<title>LogoutComponent&#45;&gt;UserModule</title>
<path fill="none" stroke="#000000" d="M171.5,-122.1061C171.5,-122.1061 171.5,-140.991 171.5,-140.991"/>
<polygon fill="#000000" stroke="#000000" points="168.0001,-140.9909 171.5,-150.991 175.0001,-140.991 168.0001,-140.9909"/>
</g>
<!-- LoginInfoComponent  -->
<g id="node4" class="node">
<title>LoginInfoComponent </title>
<polygon fill="#fb8072" stroke="#000000" points="390.0974,-252 248.9026,-252 248.9026,-216 390.0974,-216 390.0974,-252"/>
<text text-anchor="middle" x="319.5" y="-229.8" font-family="Times,serif" font-size="14.00" fill="#000000">LoginInfoComponent </text>
</g>
<!-- UserModule&#45;&gt;LoginInfoComponent  -->
<g id="edge3" class="edge">
<title>UserModule&#45;&gt;LoginInfoComponent </title>
<path fill="none" stroke="#000000" stroke-dasharray="5,2" d="M214.5156,-175C250.3251,-175 295.4839,-175 295.4839,-175 295.4839,-175 295.4839,-205.9775 295.4839,-205.9775"/>
<polygon fill="#000000" stroke="#000000" points="291.984,-205.9774 295.4839,-215.9775 298.984,-205.9775 291.984,-205.9774"/>
</g>
<!-- LogoutComponent  -->
<g id="node5" class="node">
<title>LogoutComponent </title>
<polygon fill="#fb8072" stroke="#000000" points="231.2759,-252 105.7241,-252 105.7241,-216 231.2759,-216 231.2759,-252"/>
<text text-anchor="middle" x="168.5" y="-229.8" font-family="Times,serif" font-size="14.00" fill="#000000">LogoutComponent </text>
</g>
<!-- UserModule&#45;&gt;LogoutComponent  -->
<g id="edge4" class="edge">
<title>UserModule&#45;&gt;LogoutComponent </title>
<path fill="none" stroke="#000000" stroke-dasharray="5,2" d="M171.5,-187.1061C171.5,-187.1061 171.5,-205.991 171.5,-205.991"/>
<polygon fill="#000000" stroke="#000000" points="168.0001,-205.9909 171.5,-215.991 175.0001,-205.991 168.0001,-205.9909"/>
</g>
</g>
</svg>
