<?xml version="1.0" encoding="UTF-8" standalone="no"?>
<!DOCTYPE svg PUBLIC "-//W3C//DTD SVG 1.1//EN"
 "http://www.w3.org/Graphics/SVG/1.1/DTD/svg11.dtd">
<!-- Generated by graphviz version 2.40.1 (20161225.0304)
 -->
<!-- Title: dependencies Pages: 1 -->
<svg width="1262pt" height="284pt"
 viewBox="0.00 0.00 1262.00 284.00" xmlns="http://www.w3.org/2000/svg" xmlns:xlink="http://www.w3.org/1999/xlink">
<g id="graph0" class="graph" transform="scale(1 1) rotate(0) translate(4 280)">
<title>dependencies</title>
<polygon fill="#ffffff" stroke="transparent" points="-4,4 -4,-280 1258,-280 1258,4 -4,4"/>
<text text-anchor="start" x="606.0091" y="-42.4" font-family="sans-serif" font-weight="bold" font-size="14.00" fill="#000000">Legend</text>
<polygon fill="#ffffb3" stroke="transparent" points="393,-10 393,-30 413,-30 413,-10 393,-10"/>
<text text-anchor="start" x="416.629" y="-15.4" font-family="sans-serif" font-size="14.00" fill="#000000"> &#160;Declarations</text>
<polygon fill="#8dd3c7" stroke="transparent" points="506,-10 506,-30 526,-30 526,-10 506,-10"/>
<text text-anchor="start" x="529.7251" y="-15.4" font-family="sans-serif" font-size="14.00" fill="#000000"> &#160;Module</text>
<polygon fill="#80b1d3" stroke="transparent" points="592,-10 592,-30 612,-30 612,-10 592,-10"/>
<text text-anchor="start" x="615.7812" y="-15.4" font-family="sans-serif" font-size="14.00" fill="#000000"> &#160;Bootstrap</text>
<polygon fill="#fdb462" stroke="transparent" points="689,-10 689,-30 709,-30 709,-10 689,-10"/>
<text text-anchor="start" x="712.6732" y="-15.4" font-family="sans-serif" font-size="14.00" fill="#000000"> &#160;Providers</text>
<polygon fill="#fb8072" stroke="transparent" points="785,-10 785,-30 805,-30 805,-10 785,-10"/>
<text text-anchor="start" x="808.7258" y="-15.4" font-family="sans-serif" font-size="14.00" fill="#000000"> &#160;Exports</text>
<g id="clust1" class="cluster">
<title>cluster_JcropModule</title>
<polygon fill="none" stroke="#000000" stroke-dasharray="1,5" points="8,-70 8,-268 1246,-268 1246,-70 8,-70"/>
</g>
<g id="clust2" class="cluster">
<title>cluster_JcropModule_declarations</title>
<polygon fill="none" stroke="#000000" points="322,-78 322,-130 1238,-130 1238,-78 322,-78"/>
</g>
<g id="clust10" class="cluster">
<title>cluster_JcropModule_exports</title>
<polygon fill="none" stroke="#000000" points="143,-208 143,-260 1078,-260 1078,-208 143,-208"/>
</g>
<g id="clust12" class="cluster">
<title>cluster_JcropModule_providers</title>
<polygon fill="none" stroke="#000000" points="16,-78 16,-130 314,-130 314,-78 16,-78"/>
</g>
<!-- FieldComponent -->
<g id="node1" class="node">
<title>FieldComponent</title>
<polygon fill="#ffffb3" stroke="#000000" points="1230.1109,-122 1119.8891,-122 1119.8891,-86 1230.1109,-86 1230.1109,-122"/>
<text text-anchor="middle" x="1175" y="-99.8" font-family="Times,serif" font-size="14.00" fill="#000000">FieldComponent</text>
</g>
<!-- JcropModule -->
<g id="node7" class="node">
<title>JcropModule</title>
<polygon fill="#8dd3c7" stroke="#000000" points="710.8697,-187 707.8697,-191 686.8697,-191 683.8697,-187 621.1303,-187 621.1303,-151 710.8697,-151 710.8697,-187"/>
<text text-anchor="middle" x="666" y="-164.8" font-family="Times,serif" font-size="14.00" fill="#000000">JcropModule</text>
</g>
<!-- FieldComponent&#45;&gt;JcropModule -->
<g id="edge1" class="edge">
<title>FieldComponent&#45;&gt;JcropModule</title>
<path fill="none" stroke="#000000" d="M1175,-122.1061C1175,-141.3391 1175,-169 1175,-169 1175,-169 721.1704,-169 721.1704,-169"/>
<polygon fill="#000000" stroke="#000000" points="721.1704,-165.5001 711.1704,-169 721.1703,-172.5001 721.1704,-165.5001"/>
</g>
<!-- FieldsComponent -->
<g id="node2" class="node">
<title>FieldsComponent</title>
<polygon fill="#ffffb3" stroke="#000000" points="1101.5563,-122 986.4437,-122 986.4437,-86 1101.5563,-86 1101.5563,-122"/>
<text text-anchor="middle" x="1044" y="-99.8" font-family="Times,serif" font-size="14.00" fill="#000000">FieldsComponent</text>
</g>
<!-- FieldsComponent&#45;&gt;JcropModule -->
<g id="edge2" class="edge">
<title>FieldsComponent&#45;&gt;JcropModule</title>
<path fill="none" stroke="#000000" d="M1028.0139,-122.0225C1028.0139,-139.3734 1028.0139,-163 1028.0139,-163 1028.0139,-163 721.1173,-163 721.1173,-163"/>
<polygon fill="#000000" stroke="#000000" points="721.1174,-159.5001 711.1173,-163 721.1173,-166.5001 721.1174,-159.5001"/>
</g>
<!-- JcropComponent -->
<g id="node3" class="node">
<title>JcropComponent</title>
<polygon fill="#ffffb3" stroke="#000000" points="967.6527,-122 856.3473,-122 856.3473,-86 967.6527,-86 967.6527,-122"/>
<text text-anchor="middle" x="912" y="-99.8" font-family="Times,serif" font-size="14.00" fill="#000000">JcropComponent</text>
</g>
<!-- JcropComponent&#45;&gt;JcropModule -->
<g id="edge3" class="edge">
<title>JcropComponent&#45;&gt;JcropModule</title>
<path fill="none" stroke="#000000" d="M897.3508,-122.2396C897.3508,-137.5706 897.3508,-157 897.3508,-157 897.3508,-157 720.8811,-157 720.8811,-157"/>
<polygon fill="#000000" stroke="#000000" points="720.8811,-153.5001 710.8811,-157 720.881,-160.5001 720.8811,-153.5001"/>
</g>
<!-- JcropPreviewComponent -->
<g id="node4" class="node">
<title>JcropPreviewComponent</title>
<polygon fill="#ffffb3" stroke="#000000" points="837.5225,-122 680.4775,-122 680.4775,-86 837.5225,-86 837.5225,-122"/>
<text text-anchor="middle" x="759" y="-99.8" font-family="Times,serif" font-size="14.00" fill="#000000">JcropPreviewComponent</text>
</g>
<!-- JcropPreviewComponent&#45;&gt;JcropModule -->
<g id="edge4" class="edge">
<title>JcropPreviewComponent&#45;&gt;JcropModule</title>
<path fill="none" stroke="#000000" d="M695.587,-122.1061C695.587,-122.1061 695.587,-140.991 695.587,-140.991"/>
<polygon fill="#000000" stroke="#000000" points="692.087,-140.9909 695.587,-150.991 699.087,-140.991 692.087,-140.9909"/>
</g>
<!-- OptionRadioComponent -->
<g id="node5" class="node">
<title>OptionRadioComponent</title>
<polygon fill="#ffffb3" stroke="#000000" points="661.6624,-122 508.3376,-122 508.3376,-86 661.6624,-86 661.6624,-122"/>
<text text-anchor="middle" x="585" y="-99.8" font-family="Times,serif" font-size="14.00" fill="#000000">OptionRadioComponent</text>
</g>
<!-- OptionRadioComponent&#45;&gt;JcropModule -->
<g id="edge5" class="edge">
<title>OptionRadioComponent&#45;&gt;JcropModule</title>
<path fill="none" stroke="#000000" d="M641.4481,-122.1061C641.4481,-122.1061 641.4481,-140.991 641.4481,-140.991"/>
<polygon fill="#000000" stroke="#000000" points="637.9482,-140.9909 641.4481,-150.991 644.9482,-140.991 637.9482,-140.9909"/>
</g>
<!-- OptionToggleComponent -->
<g id="node6" class="node">
<title>OptionToggleComponent</title>
<polygon fill="#ffffb3" stroke="#000000" points="489.878,-122 330.122,-122 330.122,-86 489.878,-86 489.878,-122"/>
<text text-anchor="middle" x="410" y="-99.8" font-family="Times,serif" font-size="14.00" fill="#000000">OptionToggleComponent</text>
</g>
<!-- OptionToggleComponent&#45;&gt;JcropModule -->
<g id="edge6" class="edge">
<title>OptionToggleComponent&#45;&gt;JcropModule</title>
<path fill="none" stroke="#000000" d="M384.8063,-122.2396C384.8063,-137.5706 384.8063,-157 384.8063,-157 384.8063,-157 610.8214,-157 610.8214,-157"/>
<polygon fill="#000000" stroke="#000000" points="610.8214,-160.5001 620.8214,-157 610.8213,-153.5001 610.8214,-160.5001"/>
</g>
<!-- FieldComponent  -->
<g id="node8" class="node">
<title>FieldComponent </title>
<polygon fill="#fb8072" stroke="#000000" points="1069.6115,-252 956.3885,-252 956.3885,-216 1069.6115,-216 1069.6115,-252"/>
<text text-anchor="middle" x="1013" y="-229.8" font-family="Times,serif" font-size="14.00" fill="#000000">FieldComponent </text>
</g>
<!-- JcropModule&#45;&gt;FieldComponent  -->
<g id="edge7" class="edge">
<title>JcropModule&#45;&gt;FieldComponent </title>
<path fill="none" stroke="#000000" stroke-dasharray="5,2" d="M710.9576,-175C793.7656,-175 962.0104,-175 962.0104,-175 962.0104,-175 962.0104,-205.9775 962.0104,-205.9775"/>
<polygon fill="#000000" stroke="#000000" points="958.5104,-205.9774 962.0104,-215.9775 965.5104,-205.9775 958.5104,-205.9774"/>
</g>
<!-- FieldsComponent  -->
<g id="node9" class="node">
<title>FieldsComponent </title>
<polygon fill="#fb8072" stroke="#000000" points="938.5554,-252 819.4446,-252 819.4446,-216 938.5554,-216 938.5554,-252"/>
<text text-anchor="middle" x="879" y="-229.8" font-family="Times,serif" font-size="14.00" fill="#000000">FieldsComponent </text>
</g>
<!-- JcropModule&#45;&gt;FieldsComponent  -->
<g id="edge8" class="edge">
<title>JcropModule&#45;&gt;FieldsComponent </title>
<path fill="none" stroke="#000000" stroke-dasharray="5,2" d="M711.2978,-181C759.4147,-181 828.6166,-181 828.6166,-181 828.6166,-181 828.6166,-205.7604 828.6166,-205.7604"/>
<polygon fill="#000000" stroke="#000000" points="825.1167,-205.7604 828.6166,-215.7604 832.1167,-205.7604 825.1167,-205.7604"/>
</g>
<!-- JcropComponent  -->
<g id="node10" class="node">
<title>JcropComponent </title>
<polygon fill="#fb8072" stroke="#000000" points="801.6523,-252 686.3477,-252 686.3477,-216 801.6523,-216 801.6523,-252"/>
<text text-anchor="middle" x="744" y="-229.8" font-family="Times,serif" font-size="14.00" fill="#000000">JcropComponent </text>
</g>
<!-- JcropModule&#45;&gt;JcropComponent  -->
<g id="edge9" class="edge">
<title>JcropModule&#45;&gt;JcropComponent </title>
<path fill="none" stroke="#000000" stroke-dasharray="5,2" d="M698.6794,-187.1061C698.6794,-187.1061 698.6794,-205.991 698.6794,-205.991"/>
<polygon fill="#000000" stroke="#000000" points="695.1794,-205.9909 698.6794,-215.991 702.1794,-205.991 695.1794,-205.9909"/>
</g>
<!-- JcropPreviewComponent  -->
<g id="node11" class="node">
<title>JcropPreviewComponent </title>
<polygon fill="#fb8072" stroke="#000000" points="668.5218,-252 507.4782,-252 507.4782,-216 668.5218,-216 668.5218,-252"/>
<text text-anchor="middle" x="588" y="-229.8" font-family="Times,serif" font-size="14.00" fill="#000000">JcropPreviewComponent </text>
</g>
<!-- JcropModule&#45;&gt;JcropPreviewComponent  -->
<g id="edge10" class="edge">
<title>JcropModule&#45;&gt;JcropPreviewComponent </title>
<path fill="none" stroke="#000000" stroke-dasharray="5,2" d="M644.7881,-187.1061C644.7881,-187.1061 644.7881,-205.991 644.7881,-205.991"/>
<polygon fill="#000000" stroke="#000000" points="641.2881,-205.9909 644.7881,-215.991 648.2881,-205.991 641.2881,-205.9909"/>
</g>
<!-- OptionRadioComponent  -->
<g id="node12" class="node">
<title>OptionRadioComponent </title>
<polygon fill="#fb8072" stroke="#000000" points="489.6621,-252 332.3379,-252 332.3379,-216 489.6621,-216 489.6621,-252"/>
<text text-anchor="middle" x="411" y="-229.8" font-family="Times,serif" font-size="14.00" fill="#000000">OptionRadioComponent </text>
</g>
<!-- JcropModule&#45;&gt;OptionRadioComponent  -->
<g id="edge11" class="edge">
<title>JcropModule&#45;&gt;OptionRadioComponent </title>
<path fill="none" stroke="#000000" stroke-dasharray="5,2" d="M621.0682,-181C554.4337,-181 437.1937,-181 437.1937,-181 437.1937,-181 437.1937,-205.7604 437.1937,-205.7604"/>
<polygon fill="#000000" stroke="#000000" points="433.6938,-205.7604 437.1937,-215.7604 440.6938,-205.7604 433.6938,-205.7604"/>
</g>
<!-- OptionToggleComponent  -->
<g id="node13" class="node">
<title>OptionToggleComponent </title>
<polygon fill="#fb8072" stroke="#000000" points="314.8784,-252 151.1216,-252 151.1216,-216 314.8784,-216 314.8784,-252"/>
<text text-anchor="middle" x="233" y="-229.8" font-family="Times,serif" font-size="14.00" fill="#000000">OptionToggleComponent </text>
</g>
<!-- JcropModule&#45;&gt;OptionToggleComponent  -->
<g id="edge12" class="edge">
<title>JcropModule&#45;&gt;OptionToggleComponent </title>
<path fill="none" stroke="#000000" stroke-dasharray="5,2" d="M620.9805,-175C525.3305,-175 310.5377,-175 310.5377,-175 310.5377,-175 310.5377,-205.9775 310.5377,-205.9775"/>
<polygon fill="#000000" stroke="#000000" points="307.0378,-205.9774 310.5377,-215.9775 314.0378,-205.9775 307.0378,-205.9774"/>
</g>
<!-- CropActions -->
<g id="node14" class="node">
<title>CropActions</title>
<ellipse fill="#fdb462" stroke="#000000" cx="246" cy="-104" rx="60.273" ry="18"/>
<text text-anchor="middle" x="246" y="-99.8" font-family="Times,serif" font-size="14.00" fill="#000000">CropActions</text>
</g>
<!-- CropActions&#45;&gt;JcropModule -->
<g id="edge13" class="edge">
<title>CropActions&#45;&gt;JcropModule</title>
<path fill="none" stroke="#000000" d="M246,-122.0225C246,-139.3734 246,-163 246,-163 246,-163 611.0526,-163 611.0526,-163"/>
<polygon fill="#000000" stroke="#000000" points="611.0527,-166.5001 621.0526,-163 611.0526,-159.5001 611.0527,-166.5001"/>
</g>
<!-- OptionsActions -->
<g id="node15" class="node">
<title>OptionsActions</title>
<ellipse fill="#fdb462" stroke="#000000" cx="96" cy="-104" rx="71.8086" ry="18"/>
<text text-anchor="middle" x="96" y="-99.8" font-family="Times,serif" font-size="14.00" fill="#000000">OptionsActions</text>
</g>
<!-- OptionsActions&#45;&gt;JcropModule -->
<g id="edge14" class="edge">
<title>OptionsActions&#45;&gt;JcropModule</title>
<path fill="none" stroke="#000000" d="M159.4826,-112.4976C159.4826,-130.1166 159.4826,-169 159.4826,-169 159.4826,-169 611.05,-169 611.05,-169"/>
<polygon fill="#000000" stroke="#000000" points="611.05,-172.5001 621.05,-169 611.0499,-165.5001 611.05,-172.5001"/>
</g>
</g>
</svg>
