<?xml version="1.0" encoding="UTF-8" standalone="no"?>
<!DOCTYPE svg PUBLIC "-//W3C//DTD SVG 1.1//EN"
 "http://www.w3.org/Graphics/SVG/1.1/DTD/svg11.dtd">
<!-- Generated by graphviz version 2.40.1 (20161225.0304)
 -->
<!-- Title: dependencies Pages: 1 -->
<svg width="758pt" height="211pt"
 viewBox="0.00 0.00 758.00 211.00" xmlns="http://www.w3.org/2000/svg" xmlns:xlink="http://www.w3.org/1999/xlink">
<g id="graph0" class="graph" transform="scale(1 1) rotate(0) translate(4 207)">
<title>dependencies</title>
<polygon fill="#ffffff" stroke="transparent" points="-4,4 -4,-207 754,-207 754,4 -4,4"/>
<text text-anchor="start" x="354.0091" y="-42.4" font-family="sans-serif" font-weight="bold" font-size="14.00" fill="#000000">Legend</text>
<polygon fill="#ffffb3" stroke="transparent" points="141,-10 141,-30 161,-30 161,-10 141,-10"/>
<text text-anchor="start" x="164.629" y="-15.4" font-family="sans-serif" font-size="14.00" fill="#000000"> &#160;Declarations</text>
<polygon fill="#8dd3c7" stroke="transparent" points="254,-10 254,-30 274,-30 274,-10 254,-10"/>
<text text-anchor="start" x="277.7251" y="-15.4" font-family="sans-serif" font-size="14.00" fill="#000000"> &#160;Module</text>
<polygon fill="#80b1d3" stroke="transparent" points="340,-10 340,-30 360,-30 360,-10 340,-10"/>
<text text-anchor="start" x="363.7812" y="-15.4" font-family="sans-serif" font-size="14.00" fill="#000000"> &#160;Bootstrap</text>
<polygon fill="#fdb462" stroke="transparent" points="437,-10 437,-30 457,-30 457,-10 437,-10"/>
<text text-anchor="start" x="460.6732" y="-15.4" font-family="sans-serif" font-size="14.00" fill="#000000"> &#160;Providers</text>
<polygon fill="#fb8072" stroke="transparent" points="533,-10 533,-30 553,-30 553,-10 533,-10"/>
<text text-anchor="start" x="556.7258" y="-15.4" font-family="sans-serif" font-size="14.00" fill="#000000"> &#160;Exports</text>
<g id="clust1" class="cluster">
<title>cluster_SmartadminFormsModule</title>
<polygon fill="none" stroke="#000000" stroke-dasharray="1,5" points="8,-70 8,-195 742,-195 742,-70 8,-70"/>
</g>
<g id="clust4" class="cluster">
<title>cluster_SmartadminFormsModule_exports</title>
<polygon fill="none" stroke="#000000" points="16,-135 16,-187 734,-187 734,-135 16,-135"/>
</g>
<!-- DropzoneModule  -->
<g id="node1" class="node">
<title>DropzoneModule </title>
<polygon fill="#fb8072" stroke="#000000" points="726.2465,-179 607.7535,-179 607.7535,-143 726.2465,-143 726.2465,-179"/>
<text text-anchor="middle" x="667" y="-156.8" font-family="Times,serif" font-size="14.00" fill="#000000">DropzoneModule </text>
</g>
<!-- SmartadminInputModule  -->
<g id="node2" class="node">
<title>SmartadminInputModule </title>
<polygon fill="#fb8072" stroke="#000000" points="589.5358,-179 428.4642,-179 428.4642,-143 589.5358,-143 589.5358,-179"/>
<text text-anchor="middle" x="509" y="-156.8" font-family="Times,serif" font-size="14.00" fill="#000000">SmartadminInputModule </text>
</g>
<!-- SmartadminValidationModule  -->
<g id="node3" class="node">
<title>SmartadminValidationModule </title>
<polygon fill="#fb8072" stroke="#000000" points="410.0833,-179 219.9167,-179 219.9167,-143 410.0833,-143 410.0833,-179"/>
<text text-anchor="middle" x="315" y="-156.8" font-family="Times,serif" font-size="14.00" fill="#000000">SmartadminValidationModule </text>
</g>
<!-- SmartadminWizardsModule  -->
<g id="node4" class="node">
<title>SmartadminWizardsModule </title>
<polygon fill="#fb8072" stroke="#000000" points="202.1242,-179 23.8758,-179 23.8758,-143 202.1242,-143 202.1242,-179"/>
<text text-anchor="middle" x="113" y="-156.8" font-family="Times,serif" font-size="14.00" fill="#000000">SmartadminWizardsModule </text>
</g>
<!-- SmartadminFormsModule -->
<g id="node5" class="node">
<title>SmartadminFormsModule</title>
<polygon fill="#8dd3c7" stroke="#000000" points="493.7632,-114 490.7632,-118 469.7632,-118 466.7632,-114 330.2368,-114 330.2368,-78 493.7632,-78 493.7632,-114"/>
<text text-anchor="middle" x="412" y="-91.8" font-family="Times,serif" font-size="14.00" fill="#000000">SmartadminFormsModule</text>
</g>
<!-- SmartadminFormsModule&#45;&gt;DropzoneModule  -->
<g id="edge1" class="edge">
<title>SmartadminFormsModule&#45;&gt;DropzoneModule </title>
<path fill="none" stroke="#000000" stroke-dasharray="5,2" d="M494.0872,-96C568.6319,-96 667,-96 667,-96 667,-96 667,-132.8939 667,-132.8939"/>
<polygon fill="#000000" stroke="#000000" points="663.5001,-132.8938 667,-142.8939 670.5001,-132.8939 663.5001,-132.8938"/>
</g>
<!-- SmartadminFormsModule&#45;&gt;SmartadminInputModule  -->
<g id="edge2" class="edge">
<title>SmartadminFormsModule&#45;&gt;SmartadminInputModule </title>
<path fill="none" stroke="#000000" stroke-dasharray="5,2" d="M461.1818,-114.1061C461.1818,-114.1061 461.1818,-132.991 461.1818,-132.991"/>
<polygon fill="#000000" stroke="#000000" points="457.6819,-132.9909 461.1818,-142.991 464.6819,-132.991 457.6819,-132.9909"/>
</g>
<!-- SmartadminFormsModule&#45;&gt;SmartadminValidationModule  -->
<g id="edge3" class="edge">
<title>SmartadminFormsModule&#45;&gt;SmartadminValidationModule </title>
<path fill="none" stroke="#000000" stroke-dasharray="5,2" d="M370.205,-114.1061C370.205,-114.1061 370.205,-132.991 370.205,-132.991"/>
<polygon fill="#000000" stroke="#000000" points="366.705,-132.9909 370.205,-142.991 373.705,-132.991 366.705,-132.9909"/>
</g>
<!-- SmartadminFormsModule&#45;&gt;SmartadminWizardsModule  -->
<g id="edge4" class="edge">
<title>SmartadminFormsModule&#45;&gt;SmartadminWizardsModule </title>
<path fill="none" stroke="#000000" stroke-dasharray="5,2" d="M329.9015,-96C241.3856,-96 113,-96 113,-96 113,-96 113,-132.8939 113,-132.8939"/>
<polygon fill="#000000" stroke="#000000" points="109.5001,-132.8938 113,-142.8939 116.5001,-132.8939 109.5001,-132.8938"/>
</g>
</g>
</svg>
