<?xml version="1.0" encoding="UTF-8" standalone="no"?>
<!DOCTYPE svg PUBLIC "-//W3C//DTD SVG 1.1//EN"
 "http://www.w3.org/Graphics/SVG/1.1/DTD/svg11.dtd">
<!-- Generated by graphviz version 2.40.1 (20161225.0304)
 -->
<!-- Title: dependencies Pages: 1 -->
<svg width="638pt" height="211pt"
 viewBox="0.00 0.00 638.00 211.00" xmlns="http://www.w3.org/2000/svg" xmlns:xlink="http://www.w3.org/1999/xlink">
<g id="graph0" class="graph" transform="scale(1 1) rotate(0) translate(4 207)">
<title>dependencies</title>
<polygon fill="#ffffff" stroke="transparent" points="-4,4 -4,-207 634,-207 634,4 -4,4"/>
<text text-anchor="start" x="294.0091" y="-42.4" font-family="sans-serif" font-weight="bold" font-size="14.00" fill="#000000">Legend</text>
<polygon fill="#ffffb3" stroke="transparent" points="81,-10 81,-30 101,-30 101,-10 81,-10"/>
<text text-anchor="start" x="104.629" y="-15.4" font-family="sans-serif" font-size="14.00" fill="#000000"> &#160;Declarations</text>
<polygon fill="#8dd3c7" stroke="transparent" points="194,-10 194,-30 214,-30 214,-10 194,-10"/>
<text text-anchor="start" x="217.7251" y="-15.4" font-family="sans-serif" font-size="14.00" fill="#000000"> &#160;Module</text>
<polygon fill="#80b1d3" stroke="transparent" points="280,-10 280,-30 300,-30 300,-10 280,-10"/>
<text text-anchor="start" x="303.7812" y="-15.4" font-family="sans-serif" font-size="14.00" fill="#000000"> &#160;Bootstrap</text>
<polygon fill="#fdb462" stroke="transparent" points="377,-10 377,-30 397,-30 397,-10 377,-10"/>
<text text-anchor="start" x="400.6732" y="-15.4" font-family="sans-serif" font-size="14.00" fill="#000000"> &#160;Providers</text>
<polygon fill="#fb8072" stroke="transparent" points="473,-10 473,-30 493,-30 493,-10 473,-10"/>
<text text-anchor="start" x="496.7258" y="-15.4" font-family="sans-serif" font-size="14.00" fill="#000000"> &#160;Exports</text>
<g id="clust1" class="cluster">
<title>cluster_SmartadminModule</title>
<polygon fill="none" stroke="#000000" stroke-dasharray="1,5" points="8,-70 8,-195 622,-195 622,-70 8,-70"/>
</g>
<g id="clust4" class="cluster">
<title>cluster_SmartadminModule_exports</title>
<polygon fill="none" stroke="#000000" points="16,-135 16,-187 614,-187 614,-135 16,-135"/>
</g>
<!-- I18nModule  -->
<g id="node1" class="node">
<title>I18nModule </title>
<polygon fill="#fb8072" stroke="#000000" points="606.2109,-179 517.7891,-179 517.7891,-143 606.2109,-143 606.2109,-179"/>
<text text-anchor="middle" x="562" y="-156.8" font-family="Times,serif" font-size="14.00" fill="#000000">I18nModule </text>
</g>
<!-- SmartadminLayoutModule  -->
<g id="node2" class="node">
<title>SmartadminLayoutModule </title>
<polygon fill="#fb8072" stroke="#000000" points="499.6425,-179 328.3575,-179 328.3575,-143 499.6425,-143 499.6425,-179"/>
<text text-anchor="middle" x="414" y="-156.8" font-family="Times,serif" font-size="14.00" fill="#000000">SmartadminLayoutModule </text>
</g>
<!-- SmartadminWidgetsModule  -->
<g id="node3" class="node">
<title>SmartadminWidgetsModule </title>
<polygon fill="#fb8072" stroke="#000000" points="310.1397,-179 131.8603,-179 131.8603,-143 310.1397,-143 310.1397,-179"/>
<text text-anchor="middle" x="221" y="-156.8" font-family="Times,serif" font-size="14.00" fill="#000000">SmartadminWidgetsModule </text>
</g>
<!-- UtilsModule  -->
<g id="node4" class="node">
<title>UtilsModule </title>
<polygon fill="#fb8072" stroke="#000000" points="114.2732,-179 23.7268,-179 23.7268,-143 114.2732,-143 114.2732,-179"/>
<text text-anchor="middle" x="69" y="-156.8" font-family="Times,serif" font-size="14.00" fill="#000000">UtilsModule </text>
</g>
<!-- SmartadminModule -->
<g id="node5" class="node">
<title>SmartadminModule</title>
<polygon fill="#8dd3c7" stroke="#000000" points="380.9846,-114 377.9846,-118 356.9846,-118 353.9846,-114 253.0154,-114 253.0154,-78 380.9846,-78 380.9846,-114"/>
<text text-anchor="middle" x="317" y="-91.8" font-family="Times,serif" font-size="14.00" fill="#000000">SmartadminModule</text>
</g>
<!-- SmartadminModule&#45;&gt;I18nModule  -->
<g id="edge1" class="edge">
<title>SmartadminModule&#45;&gt;I18nModule </title>
<path fill="none" stroke="#000000" stroke-dasharray="5,2" d="M381.0508,-96C453.6421,-96 562,-96 562,-96 562,-96 562,-132.8939 562,-132.8939"/>
<polygon fill="#000000" stroke="#000000" points="558.5001,-132.8938 562,-142.8939 565.5001,-132.8939 558.5001,-132.8938"/>
</g>
<!-- SmartadminModule&#45;&gt;SmartadminLayoutModule  -->
<g id="edge2" class="edge">
<title>SmartadminModule&#45;&gt;SmartadminLayoutModule </title>
<path fill="none" stroke="#000000" stroke-dasharray="5,2" d="M354.7106,-114.1061C354.7106,-114.1061 354.7106,-132.991 354.7106,-132.991"/>
<polygon fill="#000000" stroke="#000000" points="351.2106,-132.9909 354.7106,-142.991 358.2106,-132.991 351.2106,-132.9909"/>
</g>
<!-- SmartadminModule&#45;&gt;SmartadminWidgetsModule  -->
<g id="edge3" class="edge">
<title>SmartadminModule&#45;&gt;SmartadminWidgetsModule </title>
<path fill="none" stroke="#000000" stroke-dasharray="5,2" d="M281.5388,-114.1061C281.5388,-114.1061 281.5388,-132.991 281.5388,-132.991"/>
<polygon fill="#000000" stroke="#000000" points="278.0388,-132.9909 281.5388,-142.991 285.0388,-132.991 278.0388,-132.9909"/>
</g>
<!-- SmartadminModule&#45;&gt;UtilsModule  -->
<g id="edge4" class="edge">
<title>SmartadminModule&#45;&gt;UtilsModule </title>
<path fill="none" stroke="#000000" stroke-dasharray="5,2" d="M252.8113,-96C179.3299,-96 69,-96 69,-96 69,-96 69,-132.8939 69,-132.8939"/>
<polygon fill="#000000" stroke="#000000" points="65.5001,-132.8938 69,-142.8939 72.5001,-132.8939 65.5001,-132.8938"/>
</g>
</g>
</svg>
