<?xml version="1.0" encoding="UTF-8" standalone="no"?>
<!DOCTYPE svg PUBLIC "-//W3C//DTD SVG 1.1//EN"
 "http://www.w3.org/Graphics/SVG/1.1/DTD/svg11.dtd">
<!-- Generated by graphviz version 2.40.1 (20161225.0304)
 -->
<!-- Title: dependencies Pages: 1 -->
<svg width="931pt" height="284pt"
 viewBox="0.00 0.00 931.00 284.00" xmlns="http://www.w3.org/2000/svg" xmlns:xlink="http://www.w3.org/1999/xlink">
<g id="graph0" class="graph" transform="scale(1 1) rotate(0) translate(4 280)">
<title>dependencies</title>
<polygon fill="#ffffff" stroke="transparent" points="-4,4 -4,-280 927,-280 927,4 -4,4"/>
<text text-anchor="start" x="440.5091" y="-42.4" font-family="sans-serif" font-weight="bold" font-size="14.00" fill="#000000">Legend</text>
<polygon fill="#ffffb3" stroke="transparent" points="227.5,-10 227.5,-30 247.5,-30 247.5,-10 227.5,-10"/>
<text text-anchor="start" x="251.129" y="-15.4" font-family="sans-serif" font-size="14.00" fill="#000000"> &#160;Declarations</text>
<polygon fill="#8dd3c7" stroke="transparent" points="340.5,-10 340.5,-30 360.5,-30 360.5,-10 340.5,-10"/>
<text text-anchor="start" x="364.2251" y="-15.4" font-family="sans-serif" font-size="14.00" fill="#000000"> &#160;Module</text>
<polygon fill="#80b1d3" stroke="transparent" points="426.5,-10 426.5,-30 446.5,-30 446.5,-10 426.5,-10"/>
<text text-anchor="start" x="450.2812" y="-15.4" font-family="sans-serif" font-size="14.00" fill="#000000"> &#160;Bootstrap</text>
<polygon fill="#fdb462" stroke="transparent" points="523.5,-10 523.5,-30 543.5,-30 543.5,-10 523.5,-10"/>
<text text-anchor="start" x="547.1732" y="-15.4" font-family="sans-serif" font-size="14.00" fill="#000000"> &#160;Providers</text>
<polygon fill="#fb8072" stroke="transparent" points="619.5,-10 619.5,-30 639.5,-30 639.5,-10 619.5,-10"/>
<text text-anchor="start" x="643.2258" y="-15.4" font-family="sans-serif" font-size="14.00" fill="#000000"> &#160;Exports</text>
<g id="clust1" class="cluster">
<title>cluster_NavigationModule</title>
<polygon fill="none" stroke="#000000" stroke-dasharray="1,5" points="8,-70 8,-268 915,-268 915,-70 8,-70"/>
</g>
<g id="clust2" class="cluster">
<title>cluster_NavigationModule_declarations</title>
<polygon fill="none" stroke="#000000" points="230,-78 230,-130 907,-130 907,-78 230,-78"/>
</g>
<g id="clust7" class="cluster">
<title>cluster_NavigationModule_imports</title>
<polygon fill="none" stroke="#000000" points="16,-78 16,-130 222,-130 222,-78 16,-78"/>
</g>
<g id="clust8" class="cluster">
<title>cluster_NavigationModule_exports</title>
<polygon fill="none" stroke="#000000" points="79,-208 79,-260 770,-260 770,-208 79,-208"/>
</g>
<!-- BigBreadcrumbsComponent -->
<g id="node1" class="node">
<title>BigBreadcrumbsComponent</title>
<polygon fill="#ffffb3" stroke="#000000" points="899.1965,-122 722.8035,-122 722.8035,-86 899.1965,-86 899.1965,-122"/>
<text text-anchor="middle" x="811" y="-99.8" font-family="Times,serif" font-size="14.00" fill="#000000">BigBreadcrumbsComponent</text>
</g>
<!-- NavigationModule -->
<g id="node5" class="node">
<title>NavigationModule</title>
<polygon fill="#8dd3c7" stroke="#000000" points="439.7576,-187 436.7576,-191 415.7576,-191 412.7576,-187 318.2424,-187 318.2424,-151 439.7576,-151 439.7576,-187"/>
<text text-anchor="middle" x="379" y="-164.8" font-family="Times,serif" font-size="14.00" fill="#000000">NavigationModule</text>
</g>
<!-- BigBreadcrumbsComponent&#45;&gt;NavigationModule -->
<g id="edge1" class="edge">
<title>BigBreadcrumbsComponent&#45;&gt;NavigationModule</title>
<path fill="none" stroke="#000000" d="M742.375,-122.1061C742.375,-141.3391 742.375,-169 742.375,-169 742.375,-169 449.8208,-169 449.8208,-169"/>
<polygon fill="#000000" stroke="#000000" points="449.8208,-165.5001 439.8208,-169 449.8208,-172.5001 449.8208,-165.5001"/>
</g>
<!-- MinifyMenuComponent -->
<g id="node2" class="node">
<title>MinifyMenuComponent</title>
<polygon fill="#ffffb3" stroke="#000000" points="704.378,-122 551.622,-122 551.622,-86 704.378,-86 704.378,-122"/>
<text text-anchor="middle" x="628" y="-99.8" font-family="Times,serif" font-size="14.00" fill="#000000">MinifyMenuComponent</text>
</g>
<!-- MinifyMenuComponent&#45;&gt;NavigationModule -->
<g id="edge2" class="edge">
<title>MinifyMenuComponent&#45;&gt;NavigationModule</title>
<path fill="none" stroke="#000000" d="M557.875,-122.027C557.875,-138.3976 557.875,-160 557.875,-160 557.875,-160 449.8085,-160 449.8085,-160"/>
<polygon fill="#000000" stroke="#000000" points="449.8085,-156.5001 439.8085,-160 449.8085,-163.5001 449.8085,-156.5001"/>
</g>
<!-- NavigationComponent -->
<g id="node3" class="node">
<title>NavigationComponent</title>
<polygon fill="#ffffb3" stroke="#000000" points="533.5407,-122 390.4593,-122 390.4593,-86 533.5407,-86 533.5407,-122"/>
<text text-anchor="middle" x="462" y="-99.8" font-family="Times,serif" font-size="14.00" fill="#000000">NavigationComponent</text>
</g>
<!-- NavigationComponent&#45;&gt;NavigationModule -->
<g id="edge3" class="edge">
<title>NavigationComponent&#45;&gt;NavigationModule</title>
<path fill="none" stroke="#000000" d="M415.0544,-122.1061C415.0544,-122.1061 415.0544,-140.991 415.0544,-140.991"/>
<polygon fill="#000000" stroke="#000000" points="411.5544,-140.9909 415.0544,-150.991 418.5544,-140.991 411.5544,-140.9909"/>
</g>
<!-- SmartMenuDirective -->
<g id="node4" class="node">
<title>SmartMenuDirective</title>
<polygon fill="#ffffb3" stroke="#000000" points="372.1811,-122 237.8189,-122 237.8189,-86 372.1811,-86 372.1811,-122"/>
<text text-anchor="middle" x="305" y="-99.8" font-family="Times,serif" font-size="14.00" fill="#000000">SmartMenuDirective</text>
</g>
<!-- SmartMenuDirective&#45;&gt;NavigationModule -->
<g id="edge4" class="edge">
<title>SmartMenuDirective&#45;&gt;NavigationModule</title>
<path fill="none" stroke="#000000" d="M345.1059,-122.1061C345.1059,-122.1061 345.1059,-140.991 345.1059,-140.991"/>
<polygon fill="#000000" stroke="#000000" points="341.606,-140.9909 345.1059,-150.991 348.606,-140.991 341.606,-140.9909"/>
</g>
<!-- BigBreadcrumbsComponent  -->
<g id="node8" class="node">
<title>BigBreadcrumbsComponent </title>
<polygon fill="#fb8072" stroke="#000000" points="761.6967,-252 582.3033,-252 582.3033,-216 761.6967,-216 761.6967,-252"/>
<text text-anchor="middle" x="672" y="-229.8" font-family="Times,serif" font-size="14.00" fill="#000000">BigBreadcrumbsComponent </text>
</g>
<!-- NavigationModule&#45;&gt;BigBreadcrumbsComponent  -->
<g id="edge7" class="edge">
<title>NavigationModule&#45;&gt;BigBreadcrumbsComponent </title>
<path fill="none" stroke="#000000" stroke-dasharray="5,2" d="M439.9666,-178C518.0194,-178 643.2954,-178 643.2954,-178 643.2954,-178 643.2954,-205.973 643.2954,-205.973"/>
<polygon fill="#000000" stroke="#000000" points="639.7955,-205.973 643.2954,-215.973 646.7955,-205.973 639.7955,-205.973"/>
</g>
<!-- MinifyMenuComponent  -->
<g id="node9" class="node">
<title>MinifyMenuComponent </title>
<polygon fill="#fb8072" stroke="#000000" points="564.3785,-252 407.6215,-252 407.6215,-216 564.3785,-216 564.3785,-252"/>
<text text-anchor="middle" x="486" y="-229.8" font-family="Times,serif" font-size="14.00" fill="#000000">MinifyMenuComponent </text>
</g>
<!-- NavigationModule&#45;&gt;MinifyMenuComponent  -->
<g id="edge8" class="edge">
<title>NavigationModule&#45;&gt;MinifyMenuComponent </title>
<path fill="none" stroke="#000000" stroke-dasharray="5,2" d="M423.8449,-187.1061C423.8449,-187.1061 423.8449,-205.991 423.8449,-205.991"/>
<polygon fill="#000000" stroke="#000000" points="420.3449,-205.9909 423.8449,-215.991 427.3449,-205.991 420.3449,-205.9909"/>
</g>
<!-- NavigationComponent  -->
<g id="node10" class="node">
<title>NavigationComponent </title>
<polygon fill="#fb8072" stroke="#000000" points="389.54,-252 242.46,-252 242.46,-216 389.54,-216 389.54,-252"/>
<text text-anchor="middle" x="316" y="-229.8" font-family="Times,serif" font-size="14.00" fill="#000000">NavigationComponent </text>
</g>
<!-- NavigationModule&#45;&gt;NavigationComponent  -->
<g id="edge9" class="edge">
<title>NavigationModule&#45;&gt;NavigationComponent </title>
<path fill="none" stroke="#000000" stroke-dasharray="5,2" d="M353.8207,-187.1061C353.8207,-187.1061 353.8207,-205.991 353.8207,-205.991"/>
<polygon fill="#000000" stroke="#000000" points="350.3207,-205.9909 353.8207,-215.991 357.3207,-205.991 350.3207,-205.9909"/>
</g>
<!-- SmartMenuDirective  -->
<g id="node11" class="node">
<title>SmartMenuDirective </title>
<polygon fill="#fb8072" stroke="#000000" points="224.6814,-252 87.3186,-252 87.3186,-216 224.6814,-216 224.6814,-252"/>
<text text-anchor="middle" x="156" y="-229.8" font-family="Times,serif" font-size="14.00" fill="#000000">SmartMenuDirective </text>
</g>
<!-- NavigationModule&#45;&gt;SmartMenuDirective  -->
<g id="edge10" class="edge">
<title>NavigationModule&#45;&gt;SmartMenuDirective </title>
<path fill="none" stroke="#000000" stroke-dasharray="5,2" d="M318.1393,-178C272.9864,-178 219.2229,-178 219.2229,-178 219.2229,-178 219.2229,-205.973 219.2229,-205.973"/>
<polygon fill="#000000" stroke="#000000" points="215.7229,-205.973 219.2229,-215.973 222.7229,-205.973 215.7229,-205.973"/>
</g>
<!-- I18nModule -->
<g id="node6" class="node">
<title>I18nModule</title>
<polygon fill="#8dd3c7" stroke="#000000" points="213.7107,-122 210.7107,-126 189.7107,-126 186.7107,-122 128.2893,-122 128.2893,-86 213.7107,-86 213.7107,-122"/>
<text text-anchor="middle" x="171" y="-99.8" font-family="Times,serif" font-size="14.00" fill="#000000">I18nModule</text>
</g>
<!-- I18nModule&#45;&gt;NavigationModule -->
<g id="edge5" class="edge">
<title>I18nModule&#45;&gt;NavigationModule</title>
<path fill="none" stroke="#000000" d="M171,-122.027C171,-138.3976 171,-160 171,-160 171,-160 307.9986,-160 307.9986,-160"/>
<polygon fill="#000000" stroke="#000000" points="307.9986,-163.5001 317.9986,-160 307.9985,-156.5001 307.9986,-163.5001"/>
</g>
<!-- UserModule -->
<g id="node7" class="node">
<title>UserModule</title>
<polygon fill="#8dd3c7" stroke="#000000" points="109.9762,-122 106.9762,-126 85.9762,-126 82.9762,-122 24.0238,-122 24.0238,-86 109.9762,-86 109.9762,-122"/>
<text text-anchor="middle" x="67" y="-99.8" font-family="Times,serif" font-size="14.00" fill="#000000">UserModule</text>
</g>
<!-- UserModule&#45;&gt;NavigationModule -->
<g id="edge6" class="edge">
<title>UserModule&#45;&gt;NavigationModule</title>
<path fill="none" stroke="#000000" d="M98.5738,-122.1061C98.5738,-141.3391 98.5738,-169 98.5738,-169 98.5738,-169 308.1517,-169 308.1517,-169"/>
<polygon fill="#000000" stroke="#000000" points="308.1517,-172.5001 318.1517,-169 308.1517,-165.5001 308.1517,-172.5001"/>
</g>
</g>
</svg>
