<?xml version="1.0" encoding="UTF-8" standalone="no"?>
<!DOCTYPE svg PUBLIC "-//W3C//DTD SVG 1.1//EN"
 "http://www.w3.org/Graphics/SVG/1.1/DTD/svg11.dtd">
<!-- Generated by graphviz version 2.40.1 (20161225.0304)
 -->
<!-- Title: dependencies Pages: 1 -->
<svg width="1737pt" height="284pt"
 viewBox="0.00 0.00 1737.00 284.00" xmlns="http://www.w3.org/2000/svg" xmlns:xlink="http://www.w3.org/1999/xlink">
<g id="graph0" class="graph" transform="scale(1 1) rotate(0) translate(4 280)">
<title>dependencies</title>
<polygon fill="#ffffff" stroke="transparent" points="-4,4 -4,-280 1733,-280 1733,4 -4,4"/>
<text text-anchor="start" x="843.5091" y="-42.4" font-family="sans-serif" font-weight="bold" font-size="14.00" fill="#000000">Legend</text>
<polygon fill="#ffffb3" stroke="transparent" points="630.5,-10 630.5,-30 650.5,-30 650.5,-10 630.5,-10"/>
<text text-anchor="start" x="654.129" y="-15.4" font-family="sans-serif" font-size="14.00" fill="#000000"> &#160;Declarations</text>
<polygon fill="#8dd3c7" stroke="transparent" points="743.5,-10 743.5,-30 763.5,-30 763.5,-10 743.5,-10"/>
<text text-anchor="start" x="767.2251" y="-15.4" font-family="sans-serif" font-size="14.00" fill="#000000"> &#160;Module</text>
<polygon fill="#80b1d3" stroke="transparent" points="829.5,-10 829.5,-30 849.5,-30 849.5,-10 829.5,-10"/>
<text text-anchor="start" x="853.2812" y="-15.4" font-family="sans-serif" font-size="14.00" fill="#000000"> &#160;Bootstrap</text>
<polygon fill="#fdb462" stroke="transparent" points="926.5,-10 926.5,-30 946.5,-30 946.5,-10 926.5,-10"/>
<text text-anchor="start" x="950.1732" y="-15.4" font-family="sans-serif" font-size="14.00" fill="#000000"> &#160;Providers</text>
<polygon fill="#fb8072" stroke="transparent" points="1022.5,-10 1022.5,-30 1042.5,-30 1042.5,-10 1022.5,-10"/>
<text text-anchor="start" x="1046.2258" y="-15.4" font-family="sans-serif" font-size="14.00" fill="#000000"> &#160;Exports</text>
<g id="clust1" class="cluster">
<title>cluster_SmartadminLayoutModule</title>
<polygon fill="none" stroke="#000000" stroke-dasharray="1,5" points="8,-70 8,-268 1721,-268 1721,-70 8,-70"/>
</g>
<g id="clust2" class="cluster">
<title>cluster_SmartadminLayoutModule_declarations</title>
<polygon fill="none" stroke="#000000" points="384,-78 384,-130 1713,-130 1713,-78 384,-78"/>
</g>
<g id="clust11" class="cluster">
<title>cluster_SmartadminLayoutModule_imports</title>
<polygon fill="none" stroke="#000000" points="16,-78 16,-130 376,-130 376,-78 16,-78"/>
</g>
<g id="clust12" class="cluster">
<title>cluster_SmartadminLayoutModule_exports</title>
<polygon fill="none" stroke="#000000" points="358,-208 358,-260 1247,-260 1247,-208 358,-208"/>
</g>
<!-- AuthLayoutComponent -->
<g id="node1" class="node">
<title>AuthLayoutComponent</title>
<polygon fill="#ffffb3" stroke="#000000" points="1705.4874,-122 1556.5126,-122 1556.5126,-86 1705.4874,-86 1705.4874,-122"/>
<text text-anchor="middle" x="1631" y="-99.8" font-family="Times,serif" font-size="14.00" fill="#000000">AuthLayoutComponent</text>
</g>
<!-- SmartadminLayoutModule -->
<g id="node9" class="node">
<title>SmartadminLayoutModule</title>
<polygon fill="#8dd3c7" stroke="#000000" points="890.6428,-187 887.6428,-191 866.6428,-191 863.6428,-187 723.3572,-187 723.3572,-151 890.6428,-151 890.6428,-187"/>
<text text-anchor="middle" x="807" y="-164.8" font-family="Times,serif" font-size="14.00" fill="#000000">SmartadminLayoutModule</text>
</g>
<!-- AuthLayoutComponent&#45;&gt;SmartadminLayoutModule -->
<g id="edge1" class="edge">
<title>AuthLayoutComponent&#45;&gt;SmartadminLayoutModule</title>
<path fill="none" stroke="#000000" d="M1631,-122.2228C1631,-142.3652 1631,-172 1631,-172 1631,-172 900.9268,-172 900.9268,-172"/>
<polygon fill="#000000" stroke="#000000" points="900.9268,-168.5001 890.9268,-172 900.9267,-175.5001 900.9268,-168.5001"/>
</g>
<!-- EmptyLayoutComponent -->
<g id="node2" class="node">
<title>EmptyLayoutComponent</title>
<polygon fill="#ffffb3" stroke="#000000" points="1538.3243,-122 1379.6757,-122 1379.6757,-86 1538.3243,-86 1538.3243,-122"/>
<text text-anchor="middle" x="1459" y="-99.8" font-family="Times,serif" font-size="14.00" fill="#000000">EmptyLayoutComponent</text>
</g>
<!-- EmptyLayoutComponent&#45;&gt;SmartadminLayoutModule -->
<g id="edge2" class="edge">
<title>EmptyLayoutComponent&#45;&gt;SmartadminLayoutModule</title>
<path fill="none" stroke="#000000" d="M1459,-122.2222C1459,-140.8285 1459,-167 1459,-167 1459,-167 900.9028,-167 900.9028,-167"/>
<polygon fill="#000000" stroke="#000000" points="900.9029,-163.5001 890.9028,-167 900.9028,-170.5001 900.9029,-163.5001"/>
</g>
<!-- FooterComponent -->
<g id="node3" class="node">
<title>FooterComponent</title>
<polygon fill="#ffffb3" stroke="#000000" points="1361.8809,-122 1244.1191,-122 1244.1191,-86 1361.8809,-86 1361.8809,-122"/>
<text text-anchor="middle" x="1303" y="-99.8" font-family="Times,serif" font-size="14.00" fill="#000000">FooterComponent</text>
</g>
<!-- FooterComponent&#45;&gt;SmartadminLayoutModule -->
<g id="edge3" class="edge">
<title>FooterComponent&#45;&gt;SmartadminLayoutModule</title>
<path fill="none" stroke="#000000" d="M1303,-122.0336C1303,-139.0597 1303,-162 1303,-162 1303,-162 900.859,-162 900.859,-162"/>
<polygon fill="#000000" stroke="#000000" points="900.8591,-158.5001 890.859,-162 900.859,-165.5001 900.8591,-158.5001"/>
</g>
<!-- LayoutSwitcherComponent -->
<g id="node4" class="node">
<title>LayoutSwitcherComponent</title>
<polygon fill="#ffffb3" stroke="#000000" points="1226.2506,-122 1055.7494,-122 1055.7494,-86 1226.2506,-86 1226.2506,-122"/>
<text text-anchor="middle" x="1141" y="-99.8" font-family="Times,serif" font-size="14.00" fill="#000000">LayoutSwitcherComponent</text>
</g>
<!-- LayoutSwitcherComponent&#45;&gt;SmartadminLayoutModule -->
<g id="edge4" class="edge">
<title>LayoutSwitcherComponent&#45;&gt;SmartadminLayoutModule</title>
<path fill="none" stroke="#000000" d="M1077.6776,-122.2396C1077.6776,-137.5706 1077.6776,-157 1077.6776,-157 1077.6776,-157 900.7904,-157 900.7904,-157"/>
<polygon fill="#000000" stroke="#000000" points="900.7904,-153.5001 890.7904,-157 900.7904,-160.5001 900.7904,-153.5001"/>
</g>
<!-- MainLayoutComponent -->
<g id="node5" class="node">
<title>MainLayoutComponent</title>
<polygon fill="#ffffb3" stroke="#000000" points="1037.0407,-122 886.9593,-122 886.9593,-86 1037.0407,-86 1037.0407,-122"/>
<text text-anchor="middle" x="962" y="-99.8" font-family="Times,serif" font-size="14.00" fill="#000000">MainLayoutComponent</text>
</g>
<!-- MainLayoutComponent&#45;&gt;SmartadminLayoutModule -->
<g id="edge5" class="edge">
<title>MainLayoutComponent&#45;&gt;SmartadminLayoutModule</title>
<path fill="none" stroke="#000000" d="M886.8702,-104C881.1265,-104 877.5049,-104 877.5049,-104 877.5049,-104 877.5049,-140.8939 877.5049,-140.8939"/>
<polygon fill="#000000" stroke="#000000" points="874.005,-140.8938 877.5049,-150.8939 881.005,-140.8939 874.005,-140.8938"/>
</g>
<!-- RibbonComponent -->
<g id="node6" class="node">
<title>RibbonComponent</title>
<polygon fill="#ffffb3" stroke="#000000" points="868.0604,-122 745.9396,-122 745.9396,-86 868.0604,-86 868.0604,-122"/>
<text text-anchor="middle" x="807" y="-99.8" font-family="Times,serif" font-size="14.00" fill="#000000">RibbonComponent</text>
</g>
<!-- RibbonComponent&#45;&gt;SmartadminLayoutModule -->
<g id="edge6" class="edge">
<title>RibbonComponent&#45;&gt;SmartadminLayoutModule</title>
<path fill="none" stroke="#000000" d="M807,-122.1061C807,-122.1061 807,-140.991 807,-140.991"/>
<polygon fill="#000000" stroke="#000000" points="803.5001,-140.9909 807,-150.991 810.5001,-140.991 803.5001,-140.9909"/>
</g>
<!-- RouteBreadcrumbsComponent -->
<g id="node7" class="node">
<title>RouteBreadcrumbsComponent</title>
<polygon fill="#ffffb3" stroke="#000000" points="727.9114,-122 538.0886,-122 538.0886,-86 727.9114,-86 727.9114,-122"/>
<text text-anchor="middle" x="633" y="-99.8" font-family="Times,serif" font-size="14.00" fill="#000000">RouteBreadcrumbsComponent</text>
</g>
<!-- RouteBreadcrumbsComponent&#45;&gt;SmartadminLayoutModule -->
<g id="edge7" class="edge">
<title>RouteBreadcrumbsComponent&#45;&gt;SmartadminLayoutModule</title>
<path fill="none" stroke="#000000" d="M727.8704,-104C733.3642,-104 736.7129,-104 736.7129,-104 736.7129,-104 736.7129,-140.8939 736.7129,-140.8939"/>
<polygon fill="#000000" stroke="#000000" points="733.2129,-140.8938 736.7129,-150.8939 740.2129,-140.8939 733.2129,-140.8938"/>
</g>
<!-- ShortcutComponent -->
<g id="node8" class="node">
<title>ShortcutComponent</title>
<polygon fill="#ffffb3" stroke="#000000" points="520.2716,-122 391.7284,-122 391.7284,-86 520.2716,-86 520.2716,-122"/>
<text text-anchor="middle" x="456" y="-99.8" font-family="Times,serif" font-size="14.00" fill="#000000">ShortcutComponent</text>
</g>
<!-- ShortcutComponent&#45;&gt;SmartadminLayoutModule -->
<g id="edge8" class="edge">
<title>ShortcutComponent&#45;&gt;SmartadminLayoutModule</title>
<path fill="none" stroke="#000000" d="M507.053,-122.2396C507.053,-137.5706 507.053,-157 507.053,-157 507.053,-157 713.0492,-157 713.0492,-157"/>
<polygon fill="#000000" stroke="#000000" points="713.0492,-160.5001 723.0492,-157 713.0491,-153.5001 713.0492,-160.5001"/>
</g>
<!-- FooterComponent  -->
<g id="node13" class="node">
<title>FooterComponent </title>
<polygon fill="#fb8072" stroke="#000000" points="1238.8814,-252 1117.1186,-252 1117.1186,-216 1238.8814,-216 1238.8814,-252"/>
<text text-anchor="middle" x="1178" y="-229.8" font-family="Times,serif" font-size="14.00" fill="#000000">FooterComponent </text>
</g>
<!-- SmartadminLayoutModule&#45;&gt;FooterComponent  -->
<g id="edge12" class="edge">
<title>SmartadminLayoutModule&#45;&gt;FooterComponent </title>
<path fill="none" stroke="#000000" stroke-dasharray="5,2" d="M890.7022,-177C998.4162,-177 1171.8424,-177 1171.8424,-177 1171.8424,-177 1171.8424,-205.9648 1171.8424,-205.9648"/>
<polygon fill="#000000" stroke="#000000" points="1168.3425,-205.9648 1171.8424,-215.9648 1175.3425,-205.9649 1168.3425,-205.9648"/>
</g>
<!-- HeaderModule  -->
<g id="node14" class="node">
<title>HeaderModule </title>
<polygon fill="#fb8072" stroke="#000000" points="1099.9618,-252 996.0382,-252 996.0382,-216 1099.9618,-216 1099.9618,-252"/>
<text text-anchor="middle" x="1048" y="-229.8" font-family="Times,serif" font-size="14.00" fill="#000000">HeaderModule </text>
</g>
<!-- SmartadminLayoutModule&#45;&gt;HeaderModule  -->
<g id="edge13" class="edge">
<title>SmartadminLayoutModule&#45;&gt;HeaderModule </title>
<path fill="none" stroke="#000000" stroke-dasharray="5,2" d="M890.8109,-182C949.24,-182 1016.7698,-182 1016.7698,-182 1016.7698,-182 1016.7698,-205.8129 1016.7698,-205.8129"/>
<polygon fill="#000000" stroke="#000000" points="1013.2699,-205.8129 1016.7698,-215.8129 1020.2699,-205.813 1013.2699,-205.8129"/>
</g>
<!-- LayoutSwitcherComponent  -->
<g id="node15" class="node">
<title>LayoutSwitcherComponent </title>
<polygon fill="#fb8072" stroke="#000000" points="978.2506,-252 803.7494,-252 803.7494,-216 978.2506,-216 978.2506,-252"/>
<text text-anchor="middle" x="891" y="-229.8" font-family="Times,serif" font-size="14.00" fill="#000000">LayoutSwitcherComponent </text>
</g>
<!-- SmartadminLayoutModule&#45;&gt;LayoutSwitcherComponent  -->
<g id="edge14" class="edge">
<title>SmartadminLayoutModule&#45;&gt;LayoutSwitcherComponent </title>
<path fill="none" stroke="#000000" stroke-dasharray="5,2" d="M847.348,-187.1061C847.348,-187.1061 847.348,-205.991 847.348,-205.991"/>
<polygon fill="#000000" stroke="#000000" points="843.8481,-205.9909 847.348,-215.991 850.8481,-205.991 843.8481,-205.9909"/>
</g>
<!-- NavigationModule  -->
<g id="node16" class="node">
<title>NavigationModule </title>
<polygon fill="#fb8072" stroke="#000000" points="785.7577,-252 660.2423,-252 660.2423,-216 785.7577,-216 785.7577,-252"/>
<text text-anchor="middle" x="723" y="-229.8" font-family="Times,serif" font-size="14.00" fill="#000000">NavigationModule </text>
</g>
<!-- SmartadminLayoutModule&#45;&gt;NavigationModule  -->
<g id="edge15" class="edge">
<title>SmartadminLayoutModule&#45;&gt;NavigationModule </title>
<path fill="none" stroke="#000000" stroke-dasharray="5,2" d="M754.4037,-187.1061C754.4037,-187.1061 754.4037,-205.991 754.4037,-205.991"/>
<polygon fill="#000000" stroke="#000000" points="750.9038,-205.9909 754.4037,-215.991 757.9038,-205.991 750.9038,-205.9909"/>
</g>
<!-- RibbonComponent  -->
<g id="node17" class="node">
<title>RibbonComponent </title>
<polygon fill="#fb8072" stroke="#000000" points="642.0596,-252 515.9404,-252 515.9404,-216 642.0596,-216 642.0596,-252"/>
<text text-anchor="middle" x="579" y="-229.8" font-family="Times,serif" font-size="14.00" fill="#000000">RibbonComponent </text>
</g>
<!-- SmartadminLayoutModule&#45;&gt;RibbonComponent  -->
<g id="edge16" class="edge">
<title>SmartadminLayoutModule&#45;&gt;RibbonComponent </title>
<path fill="none" stroke="#000000" stroke-dasharray="5,2" d="M723.1648,-182C662.1467,-182 590.1622,-182 590.1622,-182 590.1622,-182 590.1622,-205.8129 590.1622,-205.8129"/>
<polygon fill="#000000" stroke="#000000" points="586.6622,-205.8129 590.1622,-215.8129 593.6622,-205.813 586.6622,-205.8129"/>
</g>
<!-- ShortcutComponent  -->
<g id="node18" class="node">
<title>ShortcutComponent </title>
<polygon fill="#fb8072" stroke="#000000" points="498.2717,-252 365.7283,-252 365.7283,-216 498.2717,-216 498.2717,-252"/>
<text text-anchor="middle" x="432" y="-229.8" font-family="Times,serif" font-size="14.00" fill="#000000">ShortcutComponent </text>
</g>
<!-- SmartadminLayoutModule&#45;&gt;ShortcutComponent  -->
<g id="edge17" class="edge">
<title>SmartadminLayoutModule&#45;&gt;ShortcutComponent </title>
<path fill="none" stroke="#000000" stroke-dasharray="5,2" d="M723.011,-177C616.0356,-177 444.875,-177 444.875,-177 444.875,-177 444.875,-205.9648 444.875,-205.9648"/>
<polygon fill="#000000" stroke="#000000" points="441.3751,-205.9648 444.875,-215.9648 448.3751,-205.9649 441.3751,-205.9648"/>
</g>
<!-- HeaderModule -->
<g id="node10" class="node">
<title>HeaderModule</title>
<polygon fill="#8dd3c7" stroke="#000000" points="367.9608,-122 364.9608,-126 343.9608,-126 340.9608,-122 268.0392,-122 268.0392,-86 367.9608,-86 367.9608,-122"/>
<text text-anchor="middle" x="318" y="-99.8" font-family="Times,serif" font-size="14.00" fill="#000000">HeaderModule</text>
</g>
<!-- HeaderModule&#45;&gt;SmartadminLayoutModule -->
<g id="edge9" class="edge">
<title>HeaderModule&#45;&gt;SmartadminLayoutModule</title>
<path fill="none" stroke="#000000" d="M316.942,-122.0336C316.942,-139.0597 316.942,-162 316.942,-162 316.942,-162 713.3128,-162 713.3128,-162"/>
<polygon fill="#000000" stroke="#000000" points="713.3129,-165.5001 723.3128,-162 713.3128,-158.5001 713.3129,-165.5001"/>
</g>
<!-- NavigationModule -->
<g id="node11" class="node">
<title>NavigationModule</title>
<polygon fill="#8dd3c7" stroke="#000000" points="249.7576,-122 246.7576,-126 225.7576,-126 222.7576,-122 128.2424,-122 128.2424,-86 249.7576,-86 249.7576,-122"/>
<text text-anchor="middle" x="189" y="-99.8" font-family="Times,serif" font-size="14.00" fill="#000000">NavigationModule</text>
</g>
<!-- NavigationModule&#45;&gt;SmartadminLayoutModule -->
<g id="edge10" class="edge">
<title>NavigationModule&#45;&gt;SmartadminLayoutModule</title>
<path fill="none" stroke="#000000" d="M189,-122.2222C189,-140.8285 189,-167 189,-167 189,-167 713.3324,-167 713.3324,-167"/>
<polygon fill="#000000" stroke="#000000" points="713.3325,-170.5001 723.3324,-167 713.3324,-163.5001 713.3325,-170.5001"/>
</g>
<!-- UtilsModule -->
<g id="node12" class="node">
<title>UtilsModule</title>
<polygon fill="#8dd3c7" stroke="#000000" points="110.2731,-122 107.2731,-126 86.2731,-126 83.2731,-122 23.7269,-122 23.7269,-86 110.2731,-86 110.2731,-122"/>
<text text-anchor="middle" x="67" y="-99.8" font-family="Times,serif" font-size="14.00" fill="#000000">UtilsModule</text>
</g>
<!-- UtilsModule&#45;&gt;SmartadminLayoutModule -->
<g id="edge11" class="edge">
<title>UtilsModule&#45;&gt;SmartadminLayoutModule</title>
<path fill="none" stroke="#000000" d="M67,-122.2228C67,-142.3652 67,-172 67,-172 67,-172 713.1924,-172 713.1924,-172"/>
<polygon fill="#000000" stroke="#000000" points="713.1924,-175.5001 723.1924,-172 713.1923,-168.5001 713.1924,-175.5001"/>
</g>
</g>
</svg>
