<?xml version="1.0" encoding="UTF-8" standalone="no"?>
<!DOCTYPE svg PUBLIC "-//W3C//DTD SVG 1.1//EN"
 "http://www.w3.org/Graphics/SVG/1.1/DTD/svg11.dtd">
<!-- Generated by graphviz version 2.40.1 (20161225.0304)
 -->
<!-- Title: dependencies Pages: 1 -->
<svg width="640pt" height="211pt"
 viewBox="0.00 0.00 640.00 211.00" xmlns="http://www.w3.org/2000/svg" xmlns:xlink="http://www.w3.org/1999/xlink">
<g id="graph0" class="graph" transform="scale(1 1) rotate(0) translate(4 207)">
<title>dependencies</title>
<polygon fill="#ffffff" stroke="transparent" points="-4,4 -4,-207 636,-207 636,4 -4,4"/>
<text text-anchor="start" x="295.0091" y="-42.4" font-family="sans-serif" font-weight="bold" font-size="14.00" fill="#000000">Legend</text>
<polygon fill="#ffffb3" stroke="transparent" points="82,-10 82,-30 102,-30 102,-10 82,-10"/>
<text text-anchor="start" x="105.629" y="-15.4" font-family="sans-serif" font-size="14.00" fill="#000000"> &#160;Declarations</text>
<polygon fill="#8dd3c7" stroke="transparent" points="195,-10 195,-30 215,-30 215,-10 195,-10"/>
<text text-anchor="start" x="218.7251" y="-15.4" font-family="sans-serif" font-size="14.00" fill="#000000"> &#160;Module</text>
<polygon fill="#80b1d3" stroke="transparent" points="281,-10 281,-30 301,-30 301,-10 281,-10"/>
<text text-anchor="start" x="304.7812" y="-15.4" font-family="sans-serif" font-size="14.00" fill="#000000"> &#160;Bootstrap</text>
<polygon fill="#fdb462" stroke="transparent" points="378,-10 378,-30 398,-30 398,-10 378,-10"/>
<text text-anchor="start" x="401.6732" y="-15.4" font-family="sans-serif" font-size="14.00" fill="#000000"> &#160;Providers</text>
<polygon fill="#fb8072" stroke="transparent" points="474,-10 474,-30 494,-30 494,-10 474,-10"/>
<text text-anchor="start" x="497.7258" y="-15.4" font-family="sans-serif" font-size="14.00" fill="#000000"> &#160;Exports</text>
<g id="clust1" class="cluster">
<title>cluster_SmartadminUiModule</title>
<polygon fill="none" stroke="#000000" stroke-dasharray="1,5" points="8,-70 8,-195 624,-195 624,-70 8,-70"/>
</g>
<g id="clust4" class="cluster">
<title>cluster_SmartadminUiModule_exports</title>
<polygon fill="none" stroke="#000000" points="16,-135 16,-187 616,-187 616,-135 16,-135"/>
</g>
<!-- JqueryUiModule  -->
<g id="node1" class="node">
<title>JqueryUiModule </title>
<polygon fill="#fb8072" stroke="#000000" points="608.3674,-179 493.6326,-179 493.6326,-143 608.3674,-143 608.3674,-179"/>
<text text-anchor="middle" x="551" y="-156.8" font-family="Times,serif" font-size="14.00" fill="#000000">JqueryUiModule </text>
</g>
<!-- NestableListModule  -->
<g id="node2" class="node">
<title>NestableListModule </title>
<polygon fill="#fb8072" stroke="#000000" points="475.8045,-179 342.1955,-179 342.1955,-143 475.8045,-143 475.8045,-179"/>
<text text-anchor="middle" x="409" y="-156.8" font-family="Times,serif" font-size="14.00" fill="#000000">NestableListModule </text>
</g>
<!-- SmartProgressbarModule  -->
<g id="node3" class="node">
<title>SmartProgressbarModule </title>
<polygon fill="#fb8072" stroke="#000000" points="324.0722,-179 161.9278,-179 161.9278,-143 324.0722,-143 324.0722,-179"/>
<text text-anchor="middle" x="243" y="-156.8" font-family="Times,serif" font-size="14.00" fill="#000000">SmartProgressbarModule </text>
</g>
<!-- TreeViewModule  -->
<g id="node4" class="node">
<title>TreeViewModule </title>
<polygon fill="#fb8072" stroke="#000000" points="143.5106,-179 24.4894,-179 24.4894,-143 143.5106,-143 143.5106,-179"/>
<text text-anchor="middle" x="84" y="-156.8" font-family="Times,serif" font-size="14.00" fill="#000000">TreeViewModule </text>
</g>
<!-- SmartadminUiModule -->
<g id="node5" class="node">
<title>SmartadminUiModule</title>
<polygon fill="#8dd3c7" stroke="#000000" points="396.9818,-114 393.9818,-118 372.9818,-118 369.9818,-114 255.0182,-114 255.0182,-78 396.9818,-78 396.9818,-114"/>
<text text-anchor="middle" x="326" y="-91.8" font-family="Times,serif" font-size="14.00" fill="#000000">SmartadminUiModule</text>
</g>
<!-- SmartadminUiModule&#45;&gt;JqueryUiModule  -->
<g id="edge1" class="edge">
<title>SmartadminUiModule&#45;&gt;JqueryUiModule </title>
<path fill="none" stroke="#000000" stroke-dasharray="5,2" d="M397.1914,-96C463.1094,-96 551,-96 551,-96 551,-96 551,-132.8939 551,-132.8939"/>
<polygon fill="#000000" stroke="#000000" points="547.5001,-132.8938 551,-142.8939 554.5001,-132.8939 547.5001,-132.8938"/>
</g>
<!-- SmartadminUiModule&#45;&gt;NestableListModule  -->
<g id="edge2" class="edge">
<title>SmartadminUiModule&#45;&gt;NestableListModule </title>
<path fill="none" stroke="#000000" stroke-dasharray="5,2" d="M369.5444,-114.1061C369.5444,-114.1061 369.5444,-132.991 369.5444,-132.991"/>
<polygon fill="#000000" stroke="#000000" points="366.0444,-132.9909 369.5444,-142.991 373.0444,-132.991 366.0444,-132.9909"/>
</g>
<!-- SmartadminUiModule&#45;&gt;SmartProgressbarModule  -->
<g id="edge3" class="edge">
<title>SmartadminUiModule&#45;&gt;SmartProgressbarModule </title>
<path fill="none" stroke="#000000" stroke-dasharray="5,2" d="M289.6475,-114.1061C289.6475,-114.1061 289.6475,-132.991 289.6475,-132.991"/>
<polygon fill="#000000" stroke="#000000" points="286.1475,-132.9909 289.6475,-142.991 293.1475,-132.991 286.1475,-132.9909"/>
</g>
<!-- SmartadminUiModule&#45;&gt;TreeViewModule  -->
<g id="edge4" class="edge">
<title>SmartadminUiModule&#45;&gt;TreeViewModule </title>
<path fill="none" stroke="#000000" stroke-dasharray="5,2" d="M254.7009,-96C183.3169,-96 84,-96 84,-96 84,-96 84,-132.8939 84,-132.8939"/>
<polygon fill="#000000" stroke="#000000" points="80.5001,-132.8938 84,-142.8939 87.5001,-132.8939 80.5001,-132.8938"/>
</g>
</g>
</svg>
