<?xml version="1.0" encoding="UTF-8" standalone="no"?>
<!DOCTYPE svg PUBLIC "-//W3C//DTD SVG 1.1//EN"
 "http://www.w3.org/Graphics/SVG/1.1/DTD/svg11.dtd">
<!-- Generated by graphviz version 2.40.1 (20161225.0304)
 -->
<!-- Title: dependencies Pages: 1 -->
<svg width="785pt" height="284pt"
 viewBox="0.00 0.00 785.00 284.00" xmlns="http://www.w3.org/2000/svg" xmlns:xlink="http://www.w3.org/1999/xlink">
<g id="graph0" class="graph" transform="scale(1 1) rotate(0) translate(4 280)">
<title>dependencies</title>
<polygon fill="#ffffff" stroke="transparent" points="-4,4 -4,-280 781,-280 781,4 -4,4"/>
<text text-anchor="start" x="367.5091" y="-42.4" font-family="sans-serif" font-weight="bold" font-size="14.00" fill="#000000">Legend</text>
<polygon fill="#ffffb3" stroke="transparent" points="154.5,-10 154.5,-30 174.5,-30 174.5,-10 154.5,-10"/>
<text text-anchor="start" x="178.129" y="-15.4" font-family="sans-serif" font-size="14.00" fill="#000000"> &#160;Declarations</text>
<polygon fill="#8dd3c7" stroke="transparent" points="267.5,-10 267.5,-30 287.5,-30 287.5,-10 267.5,-10"/>
<text text-anchor="start" x="291.2251" y="-15.4" font-family="sans-serif" font-size="14.00" fill="#000000"> &#160;Module</text>
<polygon fill="#80b1d3" stroke="transparent" points="353.5,-10 353.5,-30 373.5,-30 373.5,-10 353.5,-10"/>
<text text-anchor="start" x="377.2812" y="-15.4" font-family="sans-serif" font-size="14.00" fill="#000000"> &#160;Bootstrap</text>
<polygon fill="#fdb462" stroke="transparent" points="450.5,-10 450.5,-30 470.5,-30 470.5,-10 450.5,-10"/>
<text text-anchor="start" x="474.1732" y="-15.4" font-family="sans-serif" font-size="14.00" fill="#000000"> &#160;Providers</text>
<polygon fill="#fb8072" stroke="transparent" points="546.5,-10 546.5,-30 566.5,-30 566.5,-10 546.5,-10"/>
<text text-anchor="start" x="570.2258" y="-15.4" font-family="sans-serif" font-size="14.00" fill="#000000"> &#160;Exports</text>
<g id="clust1" class="cluster">
<title>cluster_SmartadminEditorsModule</title>
<polygon fill="none" stroke="#000000" stroke-dasharray="1,5" points="8,-70 8,-268 769,-268 769,-70 8,-70"/>
</g>
<g id="clust2" class="cluster">
<title>cluster_SmartadminEditorsModule_declarations</title>
<polygon fill="none" stroke="#000000" points="25,-78 25,-130 755,-130 755,-78 25,-78"/>
</g>
<g id="clust8" class="cluster">
<title>cluster_SmartadminEditorsModule_exports</title>
<polygon fill="none" stroke="#000000" points="16,-208 16,-260 761,-260 761,-208 16,-208"/>
</g>
<!-- MarkdownEditorDirective -->
<g id="node1" class="node">
<title>MarkdownEditorDirective</title>
<polygon fill="#ffffb3" stroke="#000000" points="747.0043,-122 582.9957,-122 582.9957,-86 747.0043,-86 747.0043,-122"/>
<text text-anchor="middle" x="665" y="-99.8" font-family="Times,serif" font-size="14.00" fill="#000000">MarkdownEditorDirective</text>
</g>
<!-- SmartadminEditorsModule -->
<g id="node5" class="node">
<title>SmartadminEditorsModule</title>
<polygon fill="#8dd3c7" stroke="#000000" points="367.4241,-187 364.4241,-191 343.4241,-191 340.4241,-187 198.5759,-187 198.5759,-151 367.4241,-151 367.4241,-187"/>
<text text-anchor="middle" x="283" y="-164.8" font-family="Times,serif" font-size="14.00" fill="#000000">SmartadminEditorsModule</text>
</g>
<!-- MarkdownEditorDirective&#45;&gt;SmartadminEditorsModule -->
<g id="edge1" class="edge">
<title>MarkdownEditorDirective&#45;&gt;SmartadminEditorsModule</title>
<path fill="none" stroke="#000000" d="M693.1673,-122.2667C693.1673,-140.5552 693.1673,-166 693.1673,-166 693.1673,-166 377.4896,-166 377.4896,-166"/>
<polygon fill="#000000" stroke="#000000" points="377.4896,-162.5001 367.4896,-166 377.4896,-169.5001 377.4896,-162.5001"/>
</g>
<!-- SummernoteAttachDirective -->
<g id="node2" class="node">
<title>SummernoteAttachDirective</title>
<polygon fill="#ffffb3" stroke="#000000" points="564.444,-122 387.556,-122 387.556,-86 564.444,-86 564.444,-122"/>
<text text-anchor="middle" x="476" y="-99.8" font-family="Times,serif" font-size="14.00" fill="#000000">SummernoteAttachDirective</text>
</g>
<!-- SummernoteAttachDirective&#45;&gt;SmartadminEditorsModule -->
<g id="edge2" class="edge">
<title>SummernoteAttachDirective&#45;&gt;SmartadminEditorsModule</title>
<path fill="none" stroke="#000000" d="M505.4907,-122.0091C505.4907,-138.0494 505.4907,-159 505.4907,-159 505.4907,-159 377.4314,-159 377.4314,-159"/>
<polygon fill="#000000" stroke="#000000" points="377.4315,-155.5001 367.4314,-159 377.4314,-162.5001 377.4315,-155.5001"/>
</g>
<!-- SummernoteDetachDirective -->
<g id="node3" class="node">
<title>SummernoteDetachDirective</title>
<polygon fill="#ffffb3" stroke="#000000" points="369.7682,-122 190.2318,-122 190.2318,-86 369.7682,-86 369.7682,-122"/>
<text text-anchor="middle" x="280" y="-99.8" font-family="Times,serif" font-size="14.00" fill="#000000">SummernoteDetachDirective</text>
</g>
<!-- SummernoteDetachDirective&#45;&gt;SmartadminEditorsModule -->
<g id="edge3" class="edge">
<title>SummernoteDetachDirective&#45;&gt;SmartadminEditorsModule</title>
<path fill="none" stroke="#000000" d="M283,-122.1061C283,-122.1061 283,-140.991 283,-140.991"/>
<polygon fill="#000000" stroke="#000000" points="279.5001,-140.9909 283,-150.991 286.5001,-140.991 279.5001,-140.9909"/>
</g>
<!-- SummernoteDirective -->
<g id="node4" class="node">
<title>SummernoteDirective</title>
<polygon fill="#ffffb3" stroke="#000000" points="172.6275,-122 33.3725,-122 33.3725,-86 172.6275,-86 172.6275,-122"/>
<text text-anchor="middle" x="103" y="-99.8" font-family="Times,serif" font-size="14.00" fill="#000000">SummernoteDirective</text>
</g>
<!-- SummernoteDirective&#45;&gt;SmartadminEditorsModule -->
<g id="edge4" class="edge">
<title>SummernoteDirective&#45;&gt;SmartadminEditorsModule</title>
<path fill="none" stroke="#000000" d="M122.7712,-122.0225C122.7712,-139.3734 122.7712,-163 122.7712,-163 122.7712,-163 188.6625,-163 188.6625,-163"/>
<polygon fill="#000000" stroke="#000000" points="188.6626,-166.5001 198.6625,-163 188.6625,-159.5001 188.6626,-166.5001"/>
</g>
<!-- MarkdownEditorDirective  -->
<g id="node6" class="node">
<title>MarkdownEditorDirective </title>
<polygon fill="#fb8072" stroke="#000000" points="753.0036,-252 584.9964,-252 584.9964,-216 753.0036,-216 753.0036,-252"/>
<text text-anchor="middle" x="669" y="-229.8" font-family="Times,serif" font-size="14.00" fill="#000000">MarkdownEditorDirective </text>
</g>
<!-- SmartadminEditorsModule&#45;&gt;MarkdownEditorDirective  -->
<g id="edge5" class="edge">
<title>SmartadminEditorsModule&#45;&gt;MarkdownEditorDirective </title>
<path fill="none" stroke="#000000" stroke-dasharray="5,2" d="M367.3866,-173C472.6851,-173 639.0827,-173 639.0827,-173 639.0827,-173 639.0827,-205.698 639.0827,-205.698"/>
<polygon fill="#000000" stroke="#000000" points="635.5828,-205.698 639.0827,-215.698 642.5828,-205.698 635.5828,-205.698"/>
</g>
<!-- SummernoteAttachDirective  -->
<g id="node7" class="node">
<title>SummernoteAttachDirective </title>
<polygon fill="#fb8072" stroke="#000000" points="567.4445,-252 386.5555,-252 386.5555,-216 567.4445,-216 567.4445,-252"/>
<text text-anchor="middle" x="477" y="-229.8" font-family="Times,serif" font-size="14.00" fill="#000000">SummernoteAttachDirective </text>
</g>
<!-- SmartadminEditorsModule&#45;&gt;SummernoteAttachDirective  -->
<g id="edge6" class="edge">
<title>SmartadminEditorsModule&#45;&gt;SummernoteAttachDirective </title>
<path fill="none" stroke="#000000" stroke-dasharray="5,2" d="M367.6283,-180C407.5257,-180 446.5093,-180 446.5093,-180 446.5093,-180 446.5093,-205.7181 446.5093,-205.7181"/>
<polygon fill="#000000" stroke="#000000" points="443.0094,-205.718 446.5093,-215.7181 450.0094,-205.7181 443.0094,-205.718"/>
</g>
<!-- SummernoteDetachDirective  -->
<g id="node8" class="node">
<title>SummernoteDetachDirective </title>
<polygon fill="#fb8072" stroke="#000000" points="368.2681,-252 185.7319,-252 185.7319,-216 368.2681,-216 368.2681,-252"/>
<text text-anchor="middle" x="277" y="-229.8" font-family="Times,serif" font-size="14.00" fill="#000000">SummernoteDetachDirective </text>
</g>
<!-- SmartadminEditorsModule&#45;&gt;SummernoteDetachDirective  -->
<g id="edge7" class="edge">
<title>SmartadminEditorsModule&#45;&gt;SummernoteDetachDirective </title>
<path fill="none" stroke="#000000" stroke-dasharray="5,2" d="M283,-187.1061C283,-187.1061 283,-205.991 283,-205.991"/>
<polygon fill="#000000" stroke="#000000" points="279.5001,-205.9909 283,-215.991 286.5001,-205.991 279.5001,-205.9909"/>
</g>
<!-- SummernoteDirective  -->
<g id="node9" class="node">
<title>SummernoteDirective </title>
<polygon fill="#fb8072" stroke="#000000" points="167.6271,-252 24.3729,-252 24.3729,-216 167.6271,-216 167.6271,-252"/>
<text text-anchor="middle" x="96" y="-229.8" font-family="Times,serif" font-size="14.00" fill="#000000">SummernoteDirective </text>
</g>
<!-- SmartadminEditorsModule&#45;&gt;SummernoteDirective  -->
<g id="edge8" class="edge">
<title>SmartadminEditorsModule&#45;&gt;SummernoteDirective </title>
<path fill="none" stroke="#000000" stroke-dasharray="5,2" d="M198.7225,-175C142.1748,-175 77.9788,-175 77.9788,-175 77.9788,-175 77.9788,-205.9775 77.9788,-205.9775"/>
<polygon fill="#000000" stroke="#000000" points="74.4789,-205.9774 77.9788,-215.9775 81.4789,-205.9775 74.4789,-205.9774"/>
</g>
</g>
</svg>
