<?xml version="1.0" encoding="UTF-8" standalone="no"?>
<!DOCTYPE svg PUBLIC "-//W3C//DTD SVG 1.1//EN"
 "http://www.w3.org/Graphics/SVG/1.1/DTD/svg11.dtd">
<!-- Generated by graphviz version 2.40.1 (20161225.0304)
 -->
<!-- Title: dependencies Pages: 1 -->
<svg width="1056pt" height="284pt"
 viewBox="0.00 0.00 1056.00 284.00" xmlns="http://www.w3.org/2000/svg" xmlns:xlink="http://www.w3.org/1999/xlink">
<g id="graph0" class="graph" transform="scale(1 1) rotate(0) translate(4 280)">
<title>dependencies</title>
<polygon fill="#ffffff" stroke="transparent" points="-4,4 -4,-280 1052,-280 1052,4 -4,4"/>
<text text-anchor="start" x="503.0091" y="-42.4" font-family="sans-serif" font-weight="bold" font-size="14.00" fill="#000000">Legend</text>
<polygon fill="#ffffb3" stroke="transparent" points="290,-10 290,-30 310,-30 310,-10 290,-10"/>
<text text-anchor="start" x="313.629" y="-15.4" font-family="sans-serif" font-size="14.00" fill="#000000"> &#160;Declarations</text>
<polygon fill="#8dd3c7" stroke="transparent" points="403,-10 403,-30 423,-30 423,-10 403,-10"/>
<text text-anchor="start" x="426.7251" y="-15.4" font-family="sans-serif" font-size="14.00" fill="#000000"> &#160;Module</text>
<polygon fill="#80b1d3" stroke="transparent" points="489,-10 489,-30 509,-30 509,-10 489,-10"/>
<text text-anchor="start" x="512.7812" y="-15.4" font-family="sans-serif" font-size="14.00" fill="#000000"> &#160;Bootstrap</text>
<polygon fill="#fdb462" stroke="transparent" points="586,-10 586,-30 606,-30 606,-10 586,-10"/>
<text text-anchor="start" x="609.6732" y="-15.4" font-family="sans-serif" font-size="14.00" fill="#000000"> &#160;Providers</text>
<polygon fill="#fb8072" stroke="transparent" points="682,-10 682,-30 702,-30 702,-10 682,-10"/>
<text text-anchor="start" x="705.7258" y="-15.4" font-family="sans-serif" font-size="14.00" fill="#000000"> &#160;Exports</text>
<g id="clust1" class="cluster">
<title>cluster_JqueryUiModule</title>
<polygon fill="none" stroke="#000000" stroke-dasharray="1,5" points="8,-70 8,-268 1040,-268 1040,-70 8,-70"/>
</g>
<g id="clust2" class="cluster">
<title>cluster_JqueryUiModule_declarations</title>
<polygon fill="none" stroke="#000000" points="31,-78 31,-130 1016,-130 1016,-78 31,-78"/>
</g>
<g id="clust13" class="cluster">
<title>cluster_JqueryUiModule_exports</title>
<polygon fill="none" stroke="#000000" points="16,-208 16,-260 1032,-260 1032,-208 16,-208"/>
</g>
<!-- JquiAccordion -->
<g id="node1" class="node">
<title>JquiAccordion</title>
<polygon fill="#ffffb3" stroke="#000000" points="1008.4231,-122 909.5769,-122 909.5769,-86 1008.4231,-86 1008.4231,-122"/>
<text text-anchor="middle" x="959" y="-99.8" font-family="Times,serif" font-size="14.00" fill="#000000">JquiAccordion</text>
</g>
<!-- JqueryUiModule -->
<g id="node10" class="node">
<title>JqueryUiModule</title>
<polygon fill="#8dd3c7" stroke="#000000" points="530.3669,-187 527.3669,-191 506.3669,-191 503.3669,-187 419.6331,-187 419.6331,-151 530.3669,-151 530.3669,-187"/>
<text text-anchor="middle" x="475" y="-164.8" font-family="Times,serif" font-size="14.00" fill="#000000">JqueryUiModule</text>
</g>
<!-- JquiAccordion&#45;&gt;JqueryUiModule -->
<g id="edge1" class="edge">
<title>JquiAccordion&#45;&gt;JqueryUiModule</title>
<path fill="none" stroke="#000000" d="M915.9139,-122.2222C915.9139,-140.8285 915.9139,-167 915.9139,-167 915.9139,-167 540.3956,-167 540.3956,-167"/>
<polygon fill="#000000" stroke="#000000" points="540.3956,-163.5001 530.3956,-167 540.3956,-170.5001 540.3956,-163.5001"/>
</g>
<!-- JquiAutocomplete -->
<g id="node2" class="node">
<title>JquiAutocomplete</title>
<polygon fill="#ffffb3" stroke="#000000" points="891.1485,-122 772.8515,-122 772.8515,-86 891.1485,-86 891.1485,-122"/>
<text text-anchor="middle" x="832" y="-99.8" font-family="Times,serif" font-size="14.00" fill="#000000">JquiAutocomplete</text>
</g>
<!-- JquiAutocomplete&#45;&gt;JqueryUiModule -->
<g id="edge2" class="edge">
<title>JquiAutocomplete&#45;&gt;JqueryUiModule</title>
<path fill="none" stroke="#000000" d="M777.301,-122.0336C777.301,-139.0597 777.301,-162 777.301,-162 777.301,-162 540.4467,-162 540.4467,-162"/>
<polygon fill="#000000" stroke="#000000" points="540.4467,-158.5001 530.4467,-162 540.4466,-165.5001 540.4467,-158.5001"/>
</g>
<!-- JquiDialog -->
<g id="node3" class="node">
<title>JquiDialog</title>
<polygon fill="#ffffb3" stroke="#000000" points="754.9388,-122 677.0612,-122 677.0612,-86 754.9388,-86 754.9388,-122"/>
<text text-anchor="middle" x="716" y="-99.8" font-family="Times,serif" font-size="14.00" fill="#000000">JquiDialog</text>
</g>
<!-- JquiDialog&#45;&gt;JqueryUiModule -->
<g id="edge3" class="edge">
<title>JquiDialog&#45;&gt;JqueryUiModule</title>
<path fill="none" stroke="#000000" d="M730.6563,-122.2396C730.6563,-137.5706 730.6563,-157 730.6563,-157 730.6563,-157 540.4736,-157 540.4736,-157"/>
<polygon fill="#000000" stroke="#000000" points="540.4736,-153.5001 530.4736,-157 540.4736,-160.5001 540.4736,-153.5001"/>
</g>
<!-- JquiDialogLauncher -->
<g id="node4" class="node">
<title>JquiDialogLauncher</title>
<polygon fill="#ffffb3" stroke="#000000" points="659.2949,-122 528.7051,-122 528.7051,-86 659.2949,-86 659.2949,-122"/>
<text text-anchor="middle" x="594" y="-99.8" font-family="Times,serif" font-size="14.00" fill="#000000">JquiDialogLauncher</text>
</g>
<!-- JquiDialogLauncher&#45;&gt;JqueryUiModule -->
<g id="edge4" class="edge">
<title>JquiDialogLauncher&#45;&gt;JqueryUiModule</title>
<path fill="none" stroke="#000000" d="M528.7132,-104C523.3441,-104 519.925,-104 519.925,-104 519.925,-104 519.925,-140.8939 519.925,-140.8939"/>
<polygon fill="#000000" stroke="#000000" points="516.425,-140.8938 519.925,-150.8939 523.425,-140.8939 516.425,-140.8938"/>
</g>
<!-- JquiMenu -->
<g id="node5" class="node">
<title>JquiMenu</title>
<polygon fill="#ffffb3" stroke="#000000" points="510.9944,-122 439.0056,-122 439.0056,-86 510.9944,-86 510.9944,-122"/>
<text text-anchor="middle" x="475" y="-99.8" font-family="Times,serif" font-size="14.00" fill="#000000">JquiMenu</text>
</g>
<!-- JquiMenu&#45;&gt;JqueryUiModule -->
<g id="edge5" class="edge">
<title>JquiMenu&#45;&gt;JqueryUiModule</title>
<path fill="none" stroke="#000000" d="M475,-122.1061C475,-122.1061 475,-140.991 475,-140.991"/>
<polygon fill="#000000" stroke="#000000" points="471.5001,-140.9909 475,-150.991 478.5001,-140.991 471.5001,-140.9909"/>
</g>
<!-- JquiProgressbar -->
<g id="node6" class="node">
<title>JquiProgressbar</title>
<polygon fill="#ffffb3" stroke="#000000" points="420.9188,-122 315.0812,-122 315.0812,-86 420.9188,-86 420.9188,-122"/>
<text text-anchor="middle" x="368" y="-99.8" font-family="Times,serif" font-size="14.00" fill="#000000">JquiProgressbar</text>
</g>
<!-- JquiProgressbar&#45;&gt;JqueryUiModule -->
<g id="edge6" class="edge">
<title>JquiProgressbar&#45;&gt;JqueryUiModule</title>
<path fill="none" stroke="#000000" d="M420.7288,-104C426.2278,-104 429.8559,-104 429.8559,-104 429.8559,-104 429.8559,-140.8939 429.8559,-140.8939"/>
<polygon fill="#000000" stroke="#000000" points="426.356,-140.8938 429.8559,-150.8939 433.356,-140.8939 426.356,-140.8938"/>
</g>
<!-- JquiSlider -->
<g id="node7" class="node">
<title>JquiSlider</title>
<polygon fill="#ffffb3" stroke="#000000" points="297.2745,-122 224.7255,-122 224.7255,-86 297.2745,-86 297.2745,-122"/>
<text text-anchor="middle" x="261" y="-99.8" font-family="Times,serif" font-size="14.00" fill="#000000">JquiSlider</text>
</g>
<!-- JquiSlider&#45;&gt;JqueryUiModule -->
<g id="edge7" class="edge">
<title>JquiSlider&#45;&gt;JqueryUiModule</title>
<path fill="none" stroke="#000000" d="M269.629,-122.2396C269.629,-137.5706 269.629,-157 269.629,-157 269.629,-157 409.4237,-157 409.4237,-157"/>
<polygon fill="#000000" stroke="#000000" points="409.4237,-160.5001 419.4237,-157 409.4236,-153.5001 409.4237,-160.5001"/>
</g>
<!-- JquiSpinner -->
<g id="node8" class="node">
<title>JquiSpinner</title>
<polygon fill="#ffffb3" stroke="#000000" points="206.3837,-122 123.6163,-122 123.6163,-86 206.3837,-86 206.3837,-122"/>
<text text-anchor="middle" x="165" y="-99.8" font-family="Times,serif" font-size="14.00" fill="#000000">JquiSpinner</text>
</g>
<!-- JquiSpinner&#45;&gt;JqueryUiModule -->
<g id="edge8" class="edge">
<title>JquiSpinner&#45;&gt;JqueryUiModule</title>
<path fill="none" stroke="#000000" d="M202.3168,-122.0336C202.3168,-139.0597 202.3168,-162 202.3168,-162 202.3168,-162 409.4898,-162 409.4898,-162"/>
<polygon fill="#000000" stroke="#000000" points="409.4898,-165.5001 419.4898,-162 409.4898,-158.5001 409.4898,-165.5001"/>
</g>
<!-- JquiTabs -->
<g id="node9" class="node">
<title>JquiTabs</title>
<polygon fill="#ffffb3" stroke="#000000" points="105.0485,-122 38.9515,-122 38.9515,-86 105.0485,-86 105.0485,-122"/>
<text text-anchor="middle" x="72" y="-99.8" font-family="Times,serif" font-size="14.00" fill="#000000">JquiTabs</text>
</g>
<!-- JquiTabs&#45;&gt;JqueryUiModule -->
<g id="edge9" class="edge">
<title>JquiTabs&#45;&gt;JqueryUiModule</title>
<path fill="none" stroke="#000000" d="M99.6485,-122.2222C99.6485,-140.8285 99.6485,-167 99.6485,-167 99.6485,-167 409.6156,-167 409.6156,-167"/>
<polygon fill="#000000" stroke="#000000" points="409.6156,-170.5001 419.6156,-167 409.6156,-163.5001 409.6156,-170.5001"/>
</g>
<!-- JquiAccordion  -->
<g id="node11" class="node">
<title>JquiAccordion </title>
<polygon fill="#fb8072" stroke="#000000" points="1023.9222,-252 922.0778,-252 922.0778,-216 1023.9222,-216 1023.9222,-252"/>
<text text-anchor="middle" x="973" y="-229.8" font-family="Times,serif" font-size="14.00" fill="#000000">JquiAccordion </text>
</g>
<!-- JqueryUiModule&#45;&gt;JquiAccordion  -->
<g id="edge10" class="edge">
<title>JqueryUiModule&#45;&gt;JquiAccordion </title>
<path fill="none" stroke="#000000" stroke-dasharray="5,2" d="M530.7464,-172C659.2077,-172 965.125,-172 965.125,-172 965.125,-172 965.125,-205.7333 965.125,-205.7333"/>
<polygon fill="#000000" stroke="#000000" points="961.6251,-205.7333 965.125,-215.7333 968.6251,-205.7333 961.6251,-205.7333"/>
</g>
<!-- JquiAutocomplete  -->
<g id="node12" class="node">
<title>JquiAutocomplete </title>
<polygon fill="#fb8072" stroke="#000000" points="904.1481,-252 781.8519,-252 781.8519,-216 904.1481,-216 904.1481,-252"/>
<text text-anchor="middle" x="843" y="-229.8" font-family="Times,serif" font-size="14.00" fill="#000000">JquiAutocomplete </text>
</g>
<!-- JqueryUiModule&#45;&gt;JquiAutocomplete  -->
<g id="edge11" class="edge">
<title>JqueryUiModule&#45;&gt;JquiAutocomplete </title>
<path fill="none" stroke="#000000" stroke-dasharray="5,2" d="M530.7114,-177C632.1501,-177 836.625,-177 836.625,-177 836.625,-177 836.625,-205.9648 836.625,-205.9648"/>
<polygon fill="#000000" stroke="#000000" points="833.1251,-205.9648 836.625,-215.9648 840.1251,-205.9649 833.1251,-205.9648"/>
</g>
<!-- JquiDialog  -->
<g id="node13" class="node">
<title>JquiDialog </title>
<polygon fill="#fb8072" stroke="#000000" points="763.4376,-252 682.5624,-252 682.5624,-216 763.4376,-216 763.4376,-252"/>
<text text-anchor="middle" x="723" y="-229.8" font-family="Times,serif" font-size="14.00" fill="#000000">JquiDialog </text>
</g>
<!-- JqueryUiModule&#45;&gt;JquiDialog  -->
<g id="edge12" class="edge">
<title>JqueryUiModule&#45;&gt;JquiDialog </title>
<path fill="none" stroke="#000000" stroke-dasharray="5,2" d="M530.4725,-182C598.9874,-182 706.5937,-182 706.5937,-182 706.5937,-182 706.5937,-205.8129 706.5937,-205.8129"/>
<polygon fill="#000000" stroke="#000000" points="703.0938,-205.8129 706.5937,-215.8129 710.0938,-205.813 703.0938,-205.8129"/>
</g>
<!-- JquiDialogLauncher  -->
<g id="node14" class="node">
<title>JquiDialogLauncher </title>
<polygon fill="#fb8072" stroke="#000000" points="664.7948,-252 531.2052,-252 531.2052,-216 664.7948,-216 664.7948,-252"/>
<text text-anchor="middle" x="598" y="-229.8" font-family="Times,serif" font-size="14.00" fill="#000000">JquiDialogLauncher </text>
</g>
<!-- JqueryUiModule&#45;&gt;JquiDialogLauncher  -->
<g id="edge13" class="edge">
<title>JqueryUiModule&#45;&gt;JquiDialogLauncher </title>
<path fill="none" stroke="#000000" stroke-dasharray="5,2" d="M521.5903,-187.1061C521.5903,-206.3391 521.5903,-234 521.5903,-234 521.5903,-234 522.5272,-234 522.5272,-234"/>
<polygon fill="#000000" stroke="#000000" points="520.9597,-237.5001 530.9596,-234 520.9596,-230.5001 520.9597,-237.5001"/>
</g>
<!-- JquiMenu  -->
<g id="node15" class="node">
<title>JquiMenu </title>
<polygon fill="#fb8072" stroke="#000000" points="512.996,-252 437.004,-252 437.004,-216 512.996,-216 512.996,-252"/>
<text text-anchor="middle" x="475" y="-229.8" font-family="Times,serif" font-size="14.00" fill="#000000">JquiMenu </text>
</g>
<!-- JqueryUiModule&#45;&gt;JquiMenu  -->
<g id="edge14" class="edge">
<title>JqueryUiModule&#45;&gt;JquiMenu </title>
<path fill="none" stroke="#000000" stroke-dasharray="5,2" d="M475,-187.1061C475,-187.1061 475,-205.991 475,-205.991"/>
<polygon fill="#000000" stroke="#000000" points="471.5001,-205.9909 475,-215.991 478.5001,-205.991 471.5001,-205.9909"/>
</g>
<!-- JquiProgressbar  -->
<g id="node16" class="node">
<title>JquiProgressbar </title>
<polygon fill="#fb8072" stroke="#000000" points="419.418,-252 310.582,-252 310.582,-216 419.418,-216 419.418,-252"/>
<text text-anchor="middle" x="365" y="-229.8" font-family="Times,serif" font-size="14.00" fill="#000000">JquiProgressbar </text>
</g>
<!-- JqueryUiModule&#45;&gt;JquiProgressbar  -->
<g id="edge15" class="edge">
<title>JqueryUiModule&#45;&gt;JquiProgressbar </title>
<path fill="none" stroke="#000000" stroke-dasharray="5,2" d="M428.4097,-187.1061C428.4097,-206.3391 428.4097,-234 428.4097,-234 428.4097,-234 427.528,-234 427.528,-234"/>
<polygon fill="#000000" stroke="#000000" points="429.5929,-230.5001 419.5929,-234 429.5928,-237.5001 429.5929,-230.5001"/>
</g>
<!-- JquiSlider  -->
<g id="node17" class="node">
<title>JquiSlider </title>
<polygon fill="#fb8072" stroke="#000000" points="292.2747,-252 215.7253,-252 215.7253,-216 292.2747,-216 292.2747,-252"/>
<text text-anchor="middle" x="254" y="-229.8" font-family="Times,serif" font-size="14.00" fill="#000000">JquiSlider </text>
</g>
<!-- JqueryUiModule&#45;&gt;JquiSlider  -->
<g id="edge16" class="edge">
<title>JqueryUiModule&#45;&gt;JquiSlider </title>
<path fill="none" stroke="#000000" stroke-dasharray="5,2" d="M419.5459,-182C352.0931,-182 247.121,-182 247.121,-182 247.121,-182 247.121,-205.8129 247.121,-205.8129"/>
<polygon fill="#000000" stroke="#000000" points="243.6211,-205.8129 247.121,-215.8129 250.6211,-205.813 243.6211,-205.8129"/>
</g>
<!-- JquiSpinner  -->
<g id="node18" class="node">
<title>JquiSpinner </title>
<polygon fill="#fb8072" stroke="#000000" points="198.3845,-252 111.6155,-252 111.6155,-216 198.3845,-216 198.3845,-252"/>
<text text-anchor="middle" x="155" y="-229.8" font-family="Times,serif" font-size="14.00" fill="#000000">JquiSpinner </text>
</g>
<!-- JqueryUiModule&#45;&gt;JquiSpinner  -->
<g id="edge17" class="edge">
<title>JqueryUiModule&#45;&gt;JquiSpinner </title>
<path fill="none" stroke="#000000" stroke-dasharray="5,2" d="M419.5638,-177C329.3848,-177 160.875,-177 160.875,-177 160.875,-177 160.875,-205.9648 160.875,-205.9648"/>
<polygon fill="#000000" stroke="#000000" points="157.3751,-205.9648 160.875,-215.9648 164.3751,-205.9649 157.3751,-205.9648"/>
</g>
<!-- JquiTabs  -->
<g id="node19" class="node">
<title>JquiTabs </title>
<polygon fill="#fb8072" stroke="#000000" points="94.047,-252 23.953,-252 23.953,-216 94.047,-216 94.047,-252"/>
<text text-anchor="middle" x="59" y="-229.8" font-family="Times,serif" font-size="14.00" fill="#000000">JquiTabs </text>
</g>
<!-- JqueryUiModule&#45;&gt;JquiTabs  -->
<g id="edge18" class="edge">
<title>JqueryUiModule&#45;&gt;JquiTabs </title>
<path fill="none" stroke="#000000" stroke-dasharray="5,2" d="M419.4658,-172C307.7401,-172 66.375,-172 66.375,-172 66.375,-172 66.375,-205.7333 66.375,-205.7333"/>
<polygon fill="#000000" stroke="#000000" points="62.8751,-205.7333 66.375,-215.7333 69.8751,-205.7333 62.8751,-205.7333"/>
</g>
</g>
</svg>
