<?xml version="1.0" encoding="UTF-8" standalone="no"?>
<!DOCTYPE svg PUBLIC "-//W3C//DTD SVG 1.1//EN"
 "http://www.w3.org/Graphics/SVG/1.1/DTD/svg11.dtd">
<!-- Generated by graphviz version 2.40.1 (20161225.0304)
 -->
<!-- Title: dependencies Pages: 1 -->
<svg width="1933pt" height="284pt"
 viewBox="0.00 0.00 1933.00 284.00" xmlns="http://www.w3.org/2000/svg" xmlns:xlink="http://www.w3.org/1999/xlink">
<g id="graph0" class="graph" transform="scale(1 1) rotate(0) translate(4 280)">
<title>dependencies</title>
<polygon fill="#ffffff" stroke="transparent" points="-4,4 -4,-280 1929,-280 1929,4 -4,4"/>
<text text-anchor="start" x="941.5091" y="-42.4" font-family="sans-serif" font-weight="bold" font-size="14.00" fill="#000000">Legend</text>
<polygon fill="#ffffb3" stroke="transparent" points="728.5,-10 728.5,-30 748.5,-30 748.5,-10 728.5,-10"/>
<text text-anchor="start" x="752.129" y="-15.4" font-family="sans-serif" font-size="14.00" fill="#000000"> &#160;Declarations</text>
<polygon fill="#8dd3c7" stroke="transparent" points="841.5,-10 841.5,-30 861.5,-30 861.5,-10 841.5,-10"/>
<text text-anchor="start" x="865.2251" y="-15.4" font-family="sans-serif" font-size="14.00" fill="#000000"> &#160;Module</text>
<polygon fill="#80b1d3" stroke="transparent" points="927.5,-10 927.5,-30 947.5,-30 947.5,-10 927.5,-10"/>
<text text-anchor="start" x="951.2812" y="-15.4" font-family="sans-serif" font-size="14.00" fill="#000000"> &#160;Bootstrap</text>
<polygon fill="#fdb462" stroke="transparent" points="1024.5,-10 1024.5,-30 1044.5,-30 1044.5,-10 1024.5,-10"/>
<text text-anchor="start" x="1048.1732" y="-15.4" font-family="sans-serif" font-size="14.00" fill="#000000"> &#160;Providers</text>
<polygon fill="#fb8072" stroke="transparent" points="1120.5,-10 1120.5,-30 1140.5,-30 1140.5,-10 1120.5,-10"/>
<text text-anchor="start" x="1144.2258" y="-15.4" font-family="sans-serif" font-size="14.00" fill="#000000"> &#160;Exports</text>
<g id="clust1" class="cluster">
<title>cluster_HeaderModule</title>
<polygon fill="none" stroke="#000000" stroke-dasharray="1,5" points="8,-70 8,-268 1917,-268 1917,-70 8,-70"/>
</g>
<g id="clust2" class="cluster">
<title>cluster_HeaderModule_declarations</title>
<polygon fill="none" stroke="#000000" points="488,-78 488,-130 1909,-130 1909,-78 488,-78"/>
</g>
<g id="clust11" class="cluster">
<title>cluster_HeaderModule_imports</title>
<polygon fill="none" stroke="#000000" points="16,-78 16,-130 480,-130 480,-78 16,-78"/>
</g>
<g id="clust12" class="cluster">
<title>cluster_HeaderModule_exports</title>
<polygon fill="none" stroke="#000000" points="745,-208 745,-260 887,-260 887,-208 745,-208"/>
</g>
<!-- ActivitiesComponent -->
<g id="node1" class="node">
<title>ActivitiesComponent</title>
<polygon fill="#ffffb3" stroke="#000000" points="1900.766,-122 1765.234,-122 1765.234,-86 1900.766,-86 1900.766,-122"/>
<text text-anchor="middle" x="1833" y="-99.8" font-family="Times,serif" font-size="14.00" fill="#000000">ActivitiesComponent</text>
</g>
<!-- HeaderModule -->
<g id="node9" class="node">
<title>HeaderModule</title>
<polygon fill="#8dd3c7" stroke="#000000" points="865.9608,-187 862.9608,-191 841.9608,-191 838.9608,-187 766.0392,-187 766.0392,-151 865.9608,-151 865.9608,-187"/>
<text text-anchor="middle" x="816" y="-164.8" font-family="Times,serif" font-size="14.00" fill="#000000">HeaderModule</text>
</g>
<!-- ActivitiesComponent&#45;&gt;HeaderModule -->
<g id="edge1" class="edge">
<title>ActivitiesComponent&#45;&gt;HeaderModule</title>
<path fill="none" stroke="#000000" d="M1833,-122.2479C1833,-145.0179 1833,-181 1833,-181 1833,-181 876.0863,-181 876.0863,-181"/>
<polygon fill="#000000" stroke="#000000" points="876.0863,-177.5001 866.0863,-181 876.0863,-184.5001 876.0863,-177.5001"/>
</g>
<!-- ActivitiesMessageComponent -->
<g id="node2" class="node">
<title>ActivitiesMessageComponent</title>
<polygon fill="#ffffb3" stroke="#000000" points="1747.2436,-122 1562.7564,-122 1562.7564,-86 1747.2436,-86 1747.2436,-122"/>
<text text-anchor="middle" x="1655" y="-99.8" font-family="Times,serif" font-size="14.00" fill="#000000">ActivitiesMessageComponent</text>
</g>
<!-- ActivitiesMessageComponent&#45;&gt;HeaderModule -->
<g id="edge2" class="edge">
<title>ActivitiesMessageComponent&#45;&gt;HeaderModule</title>
<path fill="none" stroke="#000000" d="M1655,-122.2843C1655,-143.3211 1655,-175 1655,-175 1655,-175 875.9707,-175 875.9707,-175"/>
<polygon fill="#000000" stroke="#000000" points="875.9707,-171.5001 865.9707,-175 875.9707,-178.5001 875.9707,-171.5001"/>
</g>
<!-- ActivitiesNotificationComponent -->
<g id="node3" class="node">
<title>ActivitiesNotificationComponent</title>
<polygon fill="#ffffb3" stroke="#000000" points="1544.9156,-122 1341.0844,-122 1341.0844,-86 1544.9156,-86 1544.9156,-122"/>
<text text-anchor="middle" x="1443" y="-99.8" font-family="Times,serif" font-size="14.00" fill="#000000">ActivitiesNotificationComponent</text>
</g>
<!-- ActivitiesNotificationComponent&#45;&gt;HeaderModule -->
<g id="edge3" class="edge">
<title>ActivitiesNotificationComponent&#45;&gt;HeaderModule</title>
<path fill="none" stroke="#000000" d="M1443,-122.1061C1443,-141.3391 1443,-169 1443,-169 1443,-169 875.9866,-169 875.9866,-169"/>
<polygon fill="#000000" stroke="#000000" points="875.9867,-165.5001 865.9866,-169 875.9866,-172.5001 875.9867,-165.5001"/>
</g>
<!-- ActivitiesTaskComponent -->
<g id="node4" class="node">
<title>ActivitiesTaskComponent</title>
<polygon fill="#ffffb3" stroke="#000000" points="1323.4776,-122 1160.5224,-122 1160.5224,-86 1323.4776,-86 1323.4776,-122"/>
<text text-anchor="middle" x="1242" y="-99.8" font-family="Times,serif" font-size="14.00" fill="#000000">ActivitiesTaskComponent</text>
</g>
<!-- ActivitiesTaskComponent&#45;&gt;HeaderModule -->
<g id="edge4" class="edge">
<title>ActivitiesTaskComponent&#45;&gt;HeaderModule</title>
<path fill="none" stroke="#000000" d="M1242,-122.0225C1242,-139.3734 1242,-163 1242,-163 1242,-163 876.1203,-163 876.1203,-163"/>
<polygon fill="#000000" stroke="#000000" points="876.1203,-159.5001 866.1203,-163 876.1203,-166.5001 876.1203,-159.5001"/>
</g>
<!-- CollapseMenuComponent -->
<g id="node5" class="node">
<title>CollapseMenuComponent</title>
<polygon fill="#ffffb3" stroke="#000000" points="1142.4832,-122 979.5168,-122 979.5168,-86 1142.4832,-86 1142.4832,-122"/>
<text text-anchor="middle" x="1061" y="-99.8" font-family="Times,serif" font-size="14.00" fill="#000000">CollapseMenuComponent</text>
</g>
<!-- CollapseMenuComponent&#45;&gt;HeaderModule -->
<g id="edge5" class="edge">
<title>CollapseMenuComponent&#45;&gt;HeaderModule</title>
<path fill="none" stroke="#000000" d="M1061,-122.2396C1061,-137.5706 1061,-157 1061,-157 1061,-157 876.1706,-157 876.1706,-157"/>
<polygon fill="#000000" stroke="#000000" points="876.1706,-153.5001 866.1706,-157 876.1706,-160.5001 876.1706,-153.5001"/>
</g>
<!-- FullScreenComponent -->
<g id="node6" class="node">
<title>FullScreenComponent</title>
<polygon fill="#ffffb3" stroke="#000000" points="961.9832,-122 820.0168,-122 820.0168,-86 961.9832,-86 961.9832,-122"/>
<text text-anchor="middle" x="891" y="-99.8" font-family="Times,serif" font-size="14.00" fill="#000000">FullScreenComponent</text>
</g>
<!-- FullScreenComponent&#45;&gt;HeaderModule -->
<g id="edge6" class="edge">
<title>FullScreenComponent&#45;&gt;HeaderModule</title>
<path fill="none" stroke="#000000" d="M842.9944,-122.1061C842.9944,-122.1061 842.9944,-140.991 842.9944,-140.991"/>
<polygon fill="#000000" stroke="#000000" points="839.4945,-140.9909 842.9944,-150.991 846.4945,-140.991 839.4945,-140.9909"/>
</g>
<!-- HeaderComponent -->
<g id="node7" class="node">
<title>HeaderComponent</title>
<polygon fill="#ffffb3" stroke="#000000" points="801.7437,-122 680.2563,-122 680.2563,-86 801.7437,-86 801.7437,-122"/>
<text text-anchor="middle" x="741" y="-99.8" font-family="Times,serif" font-size="14.00" fill="#000000">HeaderComponent</text>
</g>
<!-- HeaderComponent&#45;&gt;HeaderModule -->
<g id="edge7" class="edge">
<title>HeaderComponent&#45;&gt;HeaderModule</title>
<path fill="none" stroke="#000000" d="M783.9457,-122.1061C783.9457,-122.1061 783.9457,-140.991 783.9457,-140.991"/>
<polygon fill="#000000" stroke="#000000" points="780.4457,-140.9909 783.9457,-150.991 787.4457,-140.991 780.4457,-140.9909"/>
</g>
<!-- RecentProjectsComponent -->
<g id="node8" class="node">
<title>RecentProjectsComponent</title>
<polygon fill="#ffffb3" stroke="#000000" points="661.8019,-122 496.1981,-122 496.1981,-86 661.8019,-86 661.8019,-122"/>
<text text-anchor="middle" x="579" y="-99.8" font-family="Times,serif" font-size="14.00" fill="#000000">RecentProjectsComponent</text>
</g>
<!-- RecentProjectsComponent&#45;&gt;HeaderModule -->
<g id="edge8" class="edge">
<title>RecentProjectsComponent&#45;&gt;HeaderModule</title>
<path fill="none" stroke="#000000" d="M579,-122.2396C579,-137.5706 579,-157 579,-157 579,-157 756.028,-157 756.028,-157"/>
<polygon fill="#000000" stroke="#000000" points="756.028,-160.5001 766.028,-157 756.028,-153.5001 756.028,-160.5001"/>
</g>
<!-- HeaderComponent  -->
<g id="node14" class="node">
<title>HeaderComponent </title>
<polygon fill="#fb8072" stroke="#000000" points="878.7436,-252 753.2564,-252 753.2564,-216 878.7436,-216 878.7436,-252"/>
<text text-anchor="middle" x="816" y="-229.8" font-family="Times,serif" font-size="14.00" fill="#000000">HeaderComponent </text>
</g>
<!-- HeaderModule&#45;&gt;HeaderComponent  -->
<g id="edge13" class="edge">
<title>HeaderModule&#45;&gt;HeaderComponent </title>
<path fill="none" stroke="#000000" stroke-dasharray="5,2" d="M816,-187.1061C816,-187.1061 816,-205.991 816,-205.991"/>
<polygon fill="#000000" stroke="#000000" points="812.5001,-205.9909 816,-215.991 819.5001,-205.991 812.5001,-205.9909"/>
</g>
<!-- I18nModule -->
<g id="node10" class="node">
<title>I18nModule</title>
<polygon fill="#8dd3c7" stroke="#000000" points="471.7107,-122 468.7107,-126 447.7107,-126 444.7107,-122 386.2893,-122 386.2893,-86 471.7107,-86 471.7107,-122"/>
<text text-anchor="middle" x="429" y="-99.8" font-family="Times,serif" font-size="14.00" fill="#000000">I18nModule</text>
</g>
<!-- I18nModule&#45;&gt;HeaderModule -->
<g id="edge9" class="edge">
<title>I18nModule&#45;&gt;HeaderModule</title>
<path fill="none" stroke="#000000" d="M429,-122.0225C429,-139.3734 429,-163 429,-163 429,-163 755.8033,-163 755.8033,-163"/>
<polygon fill="#000000" stroke="#000000" points="755.8033,-166.5001 765.8033,-163 755.8032,-159.5001 755.8033,-166.5001"/>
</g>
<!-- UserModule -->
<g id="node11" class="node">
<title>UserModule</title>
<polygon fill="#8dd3c7" stroke="#000000" points="367.9762,-122 364.9762,-126 343.9762,-126 340.9762,-122 282.0238,-122 282.0238,-86 367.9762,-86 367.9762,-122"/>
<text text-anchor="middle" x="325" y="-99.8" font-family="Times,serif" font-size="14.00" fill="#000000">UserModule</text>
</g>
<!-- UserModule&#45;&gt;HeaderModule -->
<g id="edge10" class="edge">
<title>UserModule&#45;&gt;HeaderModule</title>
<path fill="none" stroke="#000000" d="M325,-122.1061C325,-141.3391 325,-169 325,-169 325,-169 755.7618,-169 755.7618,-169"/>
<polygon fill="#000000" stroke="#000000" points="755.7619,-172.5001 765.7618,-169 755.7618,-165.5001 755.7619,-172.5001"/>
</g>
<!-- UtilsModule -->
<g id="node12" class="node">
<title>UtilsModule</title>
<polygon fill="#8dd3c7" stroke="#000000" points="264.2731,-122 261.2731,-126 240.2731,-126 237.2731,-122 177.7269,-122 177.7269,-86 264.2731,-86 264.2731,-122"/>
<text text-anchor="middle" x="221" y="-99.8" font-family="Times,serif" font-size="14.00" fill="#000000">UtilsModule</text>
</g>
<!-- UtilsModule&#45;&gt;HeaderModule -->
<g id="edge11" class="edge">
<title>UtilsModule&#45;&gt;HeaderModule</title>
<path fill="none" stroke="#000000" d="M221,-122.2843C221,-143.3211 221,-175 221,-175 221,-175 756.039,-175 756.039,-175"/>
<polygon fill="#000000" stroke="#000000" points="756.039,-178.5001 766.039,-175 756.039,-171.5001 756.039,-178.5001"/>
</g>
<!-- VoiceControlModule -->
<g id="node13" class="node">
<title>VoiceControlModule</title>
<polygon fill="#8dd3c7" stroke="#000000" points="159.7548,-122 156.7548,-126 135.7548,-126 132.7548,-122 24.2452,-122 24.2452,-86 159.7548,-86 159.7548,-122"/>
<text text-anchor="middle" x="92" y="-99.8" font-family="Times,serif" font-size="14.00" fill="#000000">VoiceControlModule</text>
</g>
<!-- VoiceControlModule&#45;&gt;HeaderModule -->
<g id="edge12" class="edge">
<title>VoiceControlModule&#45;&gt;HeaderModule</title>
<path fill="none" stroke="#000000" d="M92,-122.2479C92,-145.0179 92,-181 92,-181 92,-181 755.9509,-181 755.9509,-181"/>
<polygon fill="#000000" stroke="#000000" points="755.9509,-184.5001 765.9509,-181 755.9509,-177.5001 755.9509,-184.5001"/>
</g>
</g>
</svg>
