<?xml version="1.0" encoding="UTF-8" standalone="no"?>
<!DOCTYPE svg PUBLIC "-//W3C//DTD SVG 1.1//EN"
 "http://www.w3.org/Graphics/SVG/1.1/DTD/svg11.dtd">
<!-- Generated by graphviz version 2.40.1 (20161225.0304)
 -->
<!-- Title: dependencies Pages: 1 -->
<svg width="504pt" height="211pt"
 viewBox="0.00 0.00 504.00 211.00" xmlns="http://www.w3.org/2000/svg" xmlns:xlink="http://www.w3.org/1999/xlink">
<g id="graph0" class="graph" transform="scale(1 1) rotate(0) translate(4 207)">
<title>dependencies</title>
<polygon fill="#ffffff" stroke="transparent" points="-4,4 -4,-207 500,-207 500,4 -4,4"/>
<text text-anchor="start" x="227.0091" y="-42.4" font-family="sans-serif" font-weight="bold" font-size="14.00" fill="#000000">Legend</text>
<polygon fill="#ffffb3" stroke="transparent" points="14,-10 14,-30 34,-30 34,-10 14,-10"/>
<text text-anchor="start" x="37.629" y="-15.4" font-family="sans-serif" font-size="14.00" fill="#000000"> &#160;Declarations</text>
<polygon fill="#8dd3c7" stroke="transparent" points="127,-10 127,-30 147,-30 147,-10 127,-10"/>
<text text-anchor="start" x="150.7251" y="-15.4" font-family="sans-serif" font-size="14.00" fill="#000000"> &#160;Module</text>
<polygon fill="#80b1d3" stroke="transparent" points="213,-10 213,-30 233,-30 233,-10 213,-10"/>
<text text-anchor="start" x="236.7812" y="-15.4" font-family="sans-serif" font-size="14.00" fill="#000000"> &#160;Bootstrap</text>
<polygon fill="#fdb462" stroke="transparent" points="310,-10 310,-30 330,-30 330,-10 310,-10"/>
<text text-anchor="start" x="333.6732" y="-15.4" font-family="sans-serif" font-size="14.00" fill="#000000"> &#160;Providers</text>
<polygon fill="#fb8072" stroke="transparent" points="406,-10 406,-30 426,-30 426,-10 406,-10"/>
<text text-anchor="start" x="429.7258" y="-15.4" font-family="sans-serif" font-size="14.00" fill="#000000"> &#160;Exports</text>
<g id="clust1" class="cluster">
<title>cluster_DashboardModule</title>
<polygon fill="none" stroke="#000000" stroke-dasharray="1,5" points="18,-70 18,-195 478,-195 478,-70 18,-70"/>
</g>
<g id="clust2" class="cluster">
<title>cluster_DashboardModule_declarations</title>
<polygon fill="none" stroke="#000000" points="308,-78 308,-130 470,-130 470,-78 308,-78"/>
</g>
<g id="clust4" class="cluster">
<title>cluster_DashboardModule_imports</title>
<polygon fill="none" stroke="#000000" points="26,-78 26,-130 300,-130 300,-78 26,-78"/>
</g>
<!-- ListwidgetsComponent -->
<g id="node1" class="node">
<title>ListwidgetsComponent</title>
<polygon fill="#ffffb3" stroke="#000000" points="462.1582,-122 315.8418,-122 315.8418,-86 462.1582,-86 462.1582,-122"/>
<text text-anchor="middle" x="389" y="-99.8" font-family="Times,serif" font-size="14.00" fill="#000000">ListwidgetsComponent</text>
</g>
<!-- DashboardModule -->
<g id="node2" class="node">
<title>DashboardModule</title>
<polygon fill="#8dd3c7" stroke="#000000" points="288.191,-187 285.191,-191 264.191,-191 261.191,-187 167.809,-187 167.809,-151 288.191,-151 288.191,-187"/>
<text text-anchor="middle" x="228" y="-164.8" font-family="Times,serif" font-size="14.00" fill="#000000">DashboardModule</text>
</g>
<!-- ListwidgetsComponent&#45;&gt;DashboardModule -->
<g id="edge1" class="edge">
<title>ListwidgetsComponent&#45;&gt;DashboardModule</title>
<path fill="none" stroke="#000000" d="M389,-122.1061C389,-141.3391 389,-169 389,-169 389,-169 298.4085,-169 298.4085,-169"/>
<polygon fill="#000000" stroke="#000000" points="298.4086,-165.5001 288.4085,-169 298.4085,-172.5001 298.4086,-165.5001"/>
</g>
<!-- SmartadminModule -->
<g id="node3" class="node">
<title>SmartadminModule</title>
<polygon fill="#8dd3c7" stroke="#000000" points="291.9846,-122 288.9846,-126 267.9846,-126 264.9846,-122 164.0154,-122 164.0154,-86 291.9846,-86 291.9846,-122"/>
<text text-anchor="middle" x="228" y="-99.8" font-family="Times,serif" font-size="14.00" fill="#000000">SmartadminModule</text>
</g>
<!-- SmartadminModule&#45;&gt;DashboardModule -->
<g id="edge2" class="edge">
<title>SmartadminModule&#45;&gt;DashboardModule</title>
<path fill="none" stroke="#000000" d="M228,-122.1061C228,-122.1061 228,-140.991 228,-140.991"/>
<polygon fill="#000000" stroke="#000000" points="224.5001,-140.9909 228,-150.991 231.5001,-140.991 224.5001,-140.9909"/>
</g>
<!-- TestDashModule -->
<g id="node4" class="node">
<title>TestDashModule</title>
<polygon fill="#8dd3c7" stroke="#000000" points="146.4188,-122 143.4188,-126 122.4188,-126 119.4188,-122 33.5812,-122 33.5812,-86 146.4188,-86 146.4188,-122"/>
<text text-anchor="middle" x="90" y="-99.8" font-family="Times,serif" font-size="14.00" fill="#000000">TestDashModule</text>
</g>
<!-- TestDashModule&#45;&gt;DashboardModule -->
<g id="edge3" class="edge">
<title>TestDashModule&#45;&gt;DashboardModule</title>
<path fill="none" stroke="#000000" d="M90,-122.1061C90,-141.3391 90,-169 90,-169 90,-169 157.8726,-169 157.8726,-169"/>
<polygon fill="#000000" stroke="#000000" points="157.8727,-172.5001 167.8726,-169 157.8726,-165.5001 157.8727,-172.5001"/>
</g>
</g>
</svg>
