<?xml version="1.0" encoding="UTF-8" standalone="no"?>
<!DOCTYPE svg PUBLIC "-//W3C//DTD SVG 1.1//EN"
 "http://www.w3.org/Graphics/SVG/1.1/DTD/svg11.dtd">
<!-- Generated by graphviz version 2.40.1 (20161225.0304)
 -->
<!-- Title: dependencies Pages: 1 -->
<svg width="504pt" height="284pt"
 viewBox="0.00 0.00 504.00 284.00" xmlns="http://www.w3.org/2000/svg" xmlns:xlink="http://www.w3.org/1999/xlink">
<g id="graph0" class="graph" transform="scale(1 1) rotate(0) translate(4 280)">
<title>dependencies</title>
<polygon fill="#ffffff" stroke="transparent" points="-4,4 -4,-280 500,-280 500,4 -4,4"/>
<text text-anchor="start" x="227.0091" y="-42.4" font-family="sans-serif" font-weight="bold" font-size="14.00" fill="#000000">Legend</text>
<polygon fill="#ffffb3" stroke="transparent" points="14,-10 14,-30 34,-30 34,-10 14,-10"/>
<text text-anchor="start" x="37.629" y="-15.4" font-family="sans-serif" font-size="14.00" fill="#000000"> &#160;Declarations</text>
<polygon fill="#8dd3c7" stroke="transparent" points="127,-10 127,-30 147,-30 147,-10 127,-10"/>
<text text-anchor="start" x="150.7251" y="-15.4" font-family="sans-serif" font-size="14.00" fill="#000000"> &#160;Module</text>
<polygon fill="#80b1d3" stroke="transparent" points="213,-10 213,-30 233,-30 233,-10 213,-10"/>
<text text-anchor="start" x="236.7812" y="-15.4" font-family="sans-serif" font-size="14.00" fill="#000000"> &#160;Bootstrap</text>
<polygon fill="#fdb462" stroke="transparent" points="310,-10 310,-30 330,-30 330,-10 310,-10"/>
<text text-anchor="start" x="333.6732" y="-15.4" font-family="sans-serif" font-size="14.00" fill="#000000"> &#160;Providers</text>
<polygon fill="#fb8072" stroke="transparent" points="406,-10 406,-30 426,-30 426,-10 406,-10"/>
<text text-anchor="start" x="429.7258" y="-15.4" font-family="sans-serif" font-size="14.00" fill="#000000"> &#160;Exports</text>
<g id="clust1" class="cluster">
<title>cluster_I18nModule</title>
<polygon fill="none" stroke="#000000" stroke-dasharray="1,5" points="29,-70 29,-268 467,-268 467,-70 29,-70"/>
</g>
<g id="clust2" class="cluster">
<title>cluster_I18nModule_declarations</title>
<polygon fill="none" stroke="#000000" points="177,-78 177,-130 459,-130 459,-78 177,-78"/>
</g>
<g id="clust6" class="cluster">
<title>cluster_I18nModule_exports</title>
<polygon fill="none" stroke="#000000" points="103,-208 103,-260 393,-260 393,-208 103,-208"/>
</g>
<g id="clust8" class="cluster">
<title>cluster_I18nModule_providers</title>
<polygon fill="none" stroke="#000000" points="37,-78 37,-130 169,-130 169,-78 37,-78"/>
</g>
<!-- I18nPipe -->
<g id="node1" class="node">
<title>I18nPipe</title>
<polygon fill="#ffffb3" stroke="#000000" points="451.0499,-122 384.9501,-122 384.9501,-86 451.0499,-86 451.0499,-122"/>
<text text-anchor="middle" x="418" y="-99.8" font-family="Times,serif" font-size="14.00" fill="#000000">I18nPipe</text>
</g>
<!-- I18nModule -->
<g id="node3" class="node">
<title>I18nModule</title>
<polygon fill="#8dd3c7" stroke="#000000" points="318.7107,-187 315.7107,-191 294.7107,-191 291.7107,-187 233.2893,-187 233.2893,-151 318.7107,-151 318.7107,-187"/>
<text text-anchor="middle" x="276" y="-164.8" font-family="Times,serif" font-size="14.00" fill="#000000">I18nModule</text>
</g>
<!-- I18nPipe&#45;&gt;I18nModule -->
<g id="edge1" class="edge">
<title>I18nPipe&#45;&gt;I18nModule</title>
<path fill="none" stroke="#000000" d="M418.1492,-122.1061C418.1492,-141.3391 418.1492,-169 418.1492,-169 418.1492,-169 328.6494,-169 328.6494,-169"/>
<polygon fill="#000000" stroke="#000000" points="328.6495,-165.5001 318.6494,-169 328.6494,-172.5001 328.6495,-165.5001"/>
</g>
<!-- LanguageSelectorComponent -->
<g id="node2" class="node">
<title>LanguageSelectorComponent</title>
<polygon fill="#ffffb3" stroke="#000000" points="367.3974,-122 184.6026,-122 184.6026,-86 367.3974,-86 367.3974,-122"/>
<text text-anchor="middle" x="276" y="-99.8" font-family="Times,serif" font-size="14.00" fill="#000000">LanguageSelectorComponent</text>
</g>
<!-- LanguageSelectorComponent&#45;&gt;I18nModule -->
<g id="edge2" class="edge">
<title>LanguageSelectorComponent&#45;&gt;I18nModule</title>
<path fill="none" stroke="#000000" d="M276,-122.1061C276,-122.1061 276,-140.991 276,-140.991"/>
<polygon fill="#000000" stroke="#000000" points="272.5001,-140.9909 276,-150.991 279.5001,-140.991 272.5001,-140.9909"/>
</g>
<!-- I18nPipe  -->
<g id="node4" class="node">
<title>I18nPipe </title>
<polygon fill="#fb8072" stroke="#000000" points="385.0484,-252 314.9516,-252 314.9516,-216 385.0484,-216 385.0484,-252"/>
<text text-anchor="middle" x="350" y="-229.8" font-family="Times,serif" font-size="14.00" fill="#000000">I18nPipe </text>
</g>
<!-- I18nModule&#45;&gt;I18nPipe  -->
<g id="edge3" class="edge">
<title>I18nModule&#45;&gt;I18nPipe </title>
<path fill="none" stroke="#000000" stroke-dasharray="5,2" d="M305.9622,-187.1061C305.9622,-206.3391 305.9622,-234 305.9622,-234 305.9622,-234 306.8533,-234 306.8533,-234"/>
<polygon fill="#000000" stroke="#000000" points="304.8739,-237.5001 314.8739,-234 304.8738,-230.5001 304.8739,-237.5001"/>
</g>
<!-- LanguageSelectorComponent  -->
<g id="node5" class="node">
<title>LanguageSelectorComponent </title>
<polygon fill="#fb8072" stroke="#000000" points="296.897,-252 111.103,-252 111.103,-216 296.897,-216 296.897,-252"/>
<text text-anchor="middle" x="204" y="-229.8" font-family="Times,serif" font-size="14.00" fill="#000000">LanguageSelectorComponent </text>
</g>
<!-- I18nModule&#45;&gt;LanguageSelectorComponent  -->
<g id="edge4" class="edge">
<title>I18nModule&#45;&gt;LanguageSelectorComponent </title>
<path fill="none" stroke="#000000" stroke-dasharray="5,2" d="M265.1717,-187.1061C265.1717,-187.1061 265.1717,-205.991 265.1717,-205.991"/>
<polygon fill="#000000" stroke="#000000" points="261.6717,-205.9909 265.1717,-215.991 268.6717,-205.991 261.6717,-205.9909"/>
</g>
<!-- I18nService -->
<g id="node6" class="node">
<title>I18nService</title>
<ellipse fill="#fdb462" stroke="#000000" cx="103" cy="-104" rx="57.8849" ry="18"/>
<text text-anchor="middle" x="103" y="-99.8" font-family="Times,serif" font-size="14.00" fill="#000000">I18nService</text>
</g>
<!-- I18nService&#45;&gt;I18nModule -->
<g id="edge5" class="edge">
<title>I18nService&#45;&gt;I18nModule</title>
<path fill="none" stroke="#000000" d="M135.8718,-119.0757C135.8718,-138.2773 135.8718,-169 135.8718,-169 135.8718,-169 223.1955,-169 223.1955,-169"/>
<polygon fill="#000000" stroke="#000000" points="223.1955,-172.5001 233.1955,-169 223.1955,-165.5001 223.1955,-172.5001"/>
</g>
</g>
</svg>
