<?xml version="1.0" encoding="UTF-8" standalone="no"?>
<!DOCTYPE svg PUBLIC "-//W3C//DTD SVG 1.1//EN"
 "http://www.w3.org/Graphics/SVG/1.1/DTD/svg11.dtd">
<!-- Generated by graphviz version 2.40.1 (20161225.0304)
 -->
<!-- Title: dependencies Pages: 1 -->
<svg width="2422pt" height="284pt"
 viewBox="0.00 0.00 2422.00 284.00" xmlns="http://www.w3.org/2000/svg" xmlns:xlink="http://www.w3.org/1999/xlink">
<g id="graph0" class="graph" transform="scale(1 1) rotate(0) translate(4 280)">
<title>dependencies</title>
<polygon fill="#ffffff" stroke="transparent" points="-4,4 -4,-280 2418,-280 2418,4 -4,4"/>
<text text-anchor="start" x="1186.0091" y="-42.4" font-family="sans-serif" font-weight="bold" font-size="14.00" fill="#000000">Legend</text>
<polygon fill="#ffffb3" stroke="transparent" points="973,-10 973,-30 993,-30 993,-10 973,-10"/>
<text text-anchor="start" x="996.629" y="-15.4" font-family="sans-serif" font-size="14.00" fill="#000000"> &#160;Declarations</text>
<polygon fill="#8dd3c7" stroke="transparent" points="1086,-10 1086,-30 1106,-30 1106,-10 1086,-10"/>
<text text-anchor="start" x="1109.7251" y="-15.4" font-family="sans-serif" font-size="14.00" fill="#000000"> &#160;Module</text>
<polygon fill="#80b1d3" stroke="transparent" points="1172,-10 1172,-30 1192,-30 1192,-10 1172,-10"/>
<text text-anchor="start" x="1195.7812" y="-15.4" font-family="sans-serif" font-size="14.00" fill="#000000"> &#160;Bootstrap</text>
<polygon fill="#fdb462" stroke="transparent" points="1269,-10 1269,-30 1289,-30 1289,-10 1269,-10"/>
<text text-anchor="start" x="1292.6732" y="-15.4" font-family="sans-serif" font-size="14.00" fill="#000000"> &#160;Providers</text>
<polygon fill="#fb8072" stroke="transparent" points="1365,-10 1365,-30 1385,-30 1385,-10 1365,-10"/>
<text text-anchor="start" x="1388.7258" y="-15.4" font-family="sans-serif" font-size="14.00" fill="#000000"> &#160;Exports</text>
<g id="clust1" class="cluster">
<title>cluster_SmartadminInputModule</title>
<polygon fill="none" stroke="#000000" stroke-dasharray="1,5" points="8,-70 8,-268 2406,-268 2406,-70 8,-70"/>
</g>
<g id="clust2" class="cluster">
<title>cluster_SmartadminInputModule_declarations</title>
<polygon fill="none" stroke="#000000" points="181,-78 181,-130 2238,-130 2238,-78 181,-78"/>
</g>
<g id="clust18" class="cluster">
<title>cluster_SmartadminInputModule_exports</title>
<polygon fill="none" stroke="#000000" points="16,-208 16,-260 2398,-260 2398,-208 16,-208"/>
</g>
<!-- ColorpickerDirective -->
<g id="node1" class="node">
<title>ColorpickerDirective</title>
<polygon fill="#ffffb3" stroke="#000000" points="2230.451,-122 2095.549,-122 2095.549,-86 2230.451,-86 2230.451,-122"/>
<text text-anchor="middle" x="2163" y="-99.8" font-family="Times,serif" font-size="14.00" fill="#000000">ColorpickerDirective</text>
</g>
<!-- SmartadminInputModule -->
<g id="node15" class="node">
<title>SmartadminInputModule</title>
<polygon fill="#8dd3c7" stroke="#000000" points="1328.5365,-187 1325.5365,-191 1304.5365,-191 1301.5365,-187 1171.4635,-187 1171.4635,-151 1328.5365,-151 1328.5365,-187"/>
<text text-anchor="middle" x="1250" y="-164.8" font-family="Times,serif" font-size="14.00" fill="#000000">SmartadminInputModule</text>
</g>
<!-- ColorpickerDirective&#45;&gt;SmartadminInputModule -->
<g id="edge1" class="edge">
<title>ColorpickerDirective&#45;&gt;SmartadminInputModule</title>
<path fill="none" stroke="#000000" d="M2163,-122.2222C2163,-140.8285 2163,-167 2163,-167 2163,-167 1338.6321,-167 1338.6321,-167"/>
<polygon fill="#000000" stroke="#000000" points="1338.6321,-163.5001 1328.6321,-167 1338.632,-170.5001 1338.6321,-163.5001"/>
</g>
<!-- DuallistboxComponent -->
<g id="node2" class="node">
<title>DuallistboxComponent</title>
<polygon fill="#ffffb3" stroke="#000000" points="2077.161,-122 1930.839,-122 1930.839,-86 2077.161,-86 2077.161,-122"/>
<text text-anchor="middle" x="2004" y="-99.8" font-family="Times,serif" font-size="14.00" fill="#000000">DuallistboxComponent</text>
</g>
<!-- DuallistboxComponent&#45;&gt;SmartadminInputModule -->
<g id="edge2" class="edge">
<title>DuallistboxComponent&#45;&gt;SmartadminInputModule</title>
<path fill="none" stroke="#000000" d="M1975.8068,-122.002C1975.8068,-139.6754 1975.8068,-164 1975.8068,-164 1975.8068,-164 1338.7094,-164 1338.7094,-164"/>
<polygon fill="#000000" stroke="#000000" points="1338.7094,-160.5001 1328.7094,-164 1338.7093,-167.5001 1338.7094,-160.5001"/>
</g>
<!-- FileInputComponent -->
<g id="node3" class="node">
<title>FileInputComponent</title>
<polygon fill="#ffffb3" stroke="#000000" points="1912.1624,-122 1779.8376,-122 1779.8376,-86 1912.1624,-86 1912.1624,-122"/>
<text text-anchor="middle" x="1846" y="-99.8" font-family="Times,serif" font-size="14.00" fill="#000000">FileInputComponent</text>
</g>
<!-- FileInputComponent&#45;&gt;SmartadminInputModule -->
<g id="edge3" class="edge">
<title>FileInputComponent&#45;&gt;SmartadminInputModule</title>
<path fill="none" stroke="#000000" d="M1783.9139,-122.0336C1783.9139,-139.0597 1783.9139,-162 1783.9139,-162 1783.9139,-162 1338.7808,-162 1338.7808,-162"/>
<polygon fill="#000000" stroke="#000000" points="1338.7809,-158.5001 1328.7808,-162 1338.7808,-165.5001 1338.7809,-158.5001"/>
</g>
<!-- IonSliderDirective -->
<g id="node4" class="node">
<title>IonSliderDirective</title>
<polygon fill="#ffffb3" stroke="#000000" points="1762.1825,-122 1641.8175,-122 1641.8175,-86 1762.1825,-86 1762.1825,-122"/>
<text text-anchor="middle" x="1702" y="-99.8" font-family="Times,serif" font-size="14.00" fill="#000000">IonSliderDirective</text>
</g>
<!-- IonSliderDirective&#45;&gt;SmartadminInputModule -->
<g id="edge4" class="edge">
<title>IonSliderDirective&#45;&gt;SmartadminInputModule</title>
<path fill="none" stroke="#000000" d="M1645.7968,-122.0091C1645.7968,-138.0494 1645.7968,-159 1645.7968,-159 1645.7968,-159 1338.6699,-159 1338.6699,-159"/>
<polygon fill="#000000" stroke="#000000" points="1338.67,-155.5001 1328.6699,-159 1338.6699,-162.5001 1338.67,-155.5001"/>
</g>
<!-- KnobDirective -->
<g id="node5" class="node">
<title>KnobDirective</title>
<polygon fill="#ffffb3" stroke="#000000" points="1623.6896,-122 1524.3104,-122 1524.3104,-86 1623.6896,-86 1623.6896,-122"/>
<text text-anchor="middle" x="1574" y="-99.8" font-family="Times,serif" font-size="14.00" fill="#000000">KnobDirective</text>
</g>
<!-- KnobDirective&#45;&gt;SmartadminInputModule -->
<g id="edge5" class="edge">
<title>KnobDirective&#45;&gt;SmartadminInputModule</title>
<path fill="none" stroke="#000000" d="M1531.3729,-122.2396C1531.3729,-137.5706 1531.3729,-157 1531.3729,-157 1531.3729,-157 1338.7522,-157 1338.7522,-157"/>
<polygon fill="#000000" stroke="#000000" points="1338.7522,-153.5001 1328.7522,-157 1338.7522,-160.5001 1338.7522,-153.5001"/>
</g>
<!-- MaskedInput -->
<g id="node6" class="node">
<title>MaskedInput</title>
<polygon fill="#ffffb3" stroke="#000000" points="1505.8697,-122 1416.1303,-122 1416.1303,-86 1505.8697,-86 1505.8697,-122"/>
<text text-anchor="middle" x="1461" y="-99.8" font-family="Times,serif" font-size="14.00" fill="#000000">MaskedInput</text>
</g>
<!-- MaskedInput&#45;&gt;SmartadminInputModule -->
<g id="edge6" class="edge">
<title>MaskedInput&#45;&gt;SmartadminInputModule</title>
<path fill="none" stroke="#000000" d="M1461,-122.0511C1461,-136.373 1461,-154 1461,-154 1461,-154 1338.5686,-154 1338.5686,-154"/>
<polygon fill="#000000" stroke="#000000" points="1338.5686,-150.5001 1328.5686,-154 1338.5686,-157.5001 1338.5686,-150.5001"/>
</g>
<!-- NouisliderDirective -->
<g id="node7" class="node">
<title>NouisliderDirective</title>
<polygon fill="#ffffb3" stroke="#000000" points="1397.6811,-122 1270.3189,-122 1270.3189,-86 1397.6811,-86 1397.6811,-122"/>
<text text-anchor="middle" x="1334" y="-99.8" font-family="Times,serif" font-size="14.00" fill="#000000">NouisliderDirective</text>
</g>
<!-- NouisliderDirective&#45;&gt;SmartadminInputModule -->
<g id="edge7" class="edge">
<title>NouisliderDirective&#45;&gt;SmartadminInputModule</title>
<path fill="none" stroke="#000000" d="M1299.5887,-122.1061C1299.5887,-122.1061 1299.5887,-140.991 1299.5887,-140.991"/>
<polygon fill="#000000" stroke="#000000" points="1296.0888,-140.9909 1299.5887,-150.991 1303.0888,-140.991 1296.0888,-140.9909"/>
</g>
<!-- SmartClockpickerDirective -->
<g id="node8" class="node">
<title>SmartClockpickerDirective</title>
<polygon fill="#ffffb3" stroke="#000000" points="1251.944,-122 1082.056,-122 1082.056,-86 1251.944,-86 1251.944,-122"/>
<text text-anchor="middle" x="1167" y="-99.8" font-family="Times,serif" font-size="14.00" fill="#000000">SmartClockpickerDirective</text>
</g>
<!-- SmartClockpickerDirective&#45;&gt;SmartadminInputModule -->
<g id="edge8" class="edge">
<title>SmartClockpickerDirective&#45;&gt;SmartadminInputModule</title>
<path fill="none" stroke="#000000" d="M1211.6021,-122.1061C1211.6021,-122.1061 1211.6021,-140.991 1211.6021,-140.991"/>
<polygon fill="#000000" stroke="#000000" points="1208.1021,-140.9909 1211.6021,-150.991 1215.1021,-140.991 1208.1021,-140.9909"/>
</g>
<!-- SmartSliderDirective -->
<g id="node9" class="node">
<title>SmartSliderDirective</title>
<polygon fill="#ffffb3" stroke="#000000" points="1064.4608,-122 929.5392,-122 929.5392,-86 1064.4608,-86 1064.4608,-122"/>
<text text-anchor="middle" x="997" y="-99.8" font-family="Times,serif" font-size="14.00" fill="#000000">SmartSliderDirective</text>
</g>
<!-- SmartSliderDirective&#45;&gt;SmartadminInputModule -->
<g id="edge9" class="edge">
<title>SmartSliderDirective&#45;&gt;SmartadminInputModule</title>
<path fill="none" stroke="#000000" d="M1000.8792,-122.0511C1000.8792,-136.373 1000.8792,-154 1000.8792,-154 1000.8792,-154 1161.1766,-154 1161.1766,-154"/>
<polygon fill="#000000" stroke="#000000" points="1161.1767,-157.5001 1171.1766,-154 1161.1766,-150.5001 1161.1767,-157.5001"/>
</g>
<!-- SmartTagsDirective -->
<g id="node10" class="node">
<title>SmartTagsDirective</title>
<polygon fill="#ffffb3" stroke="#000000" points="911.2339,-122 782.7661,-122 782.7661,-86 911.2339,-86 911.2339,-122"/>
<text text-anchor="middle" x="847" y="-99.8" font-family="Times,serif" font-size="14.00" fill="#000000">SmartTagsDirective</text>
</g>
<!-- SmartTagsDirective&#45;&gt;SmartadminInputModule -->
<g id="edge10" class="edge">
<title>SmartTagsDirective&#45;&gt;SmartadminInputModule</title>
<path fill="none" stroke="#000000" d="M847,-122.2396C847,-137.5706 847,-157 847,-157 847,-157 1161.3409,-157 1161.3409,-157"/>
<polygon fill="#000000" stroke="#000000" points="1161.3409,-160.5001 1171.3409,-157 1161.3408,-153.5001 1161.3409,-160.5001"/>
</g>
<!-- SmartTimepickerDirective -->
<g id="node11" class="node">
<title>SmartTimepickerDirective</title>
<polygon fill="#ffffb3" stroke="#000000" points="765.0506,-122 598.9494,-122 598.9494,-86 765.0506,-86 765.0506,-122"/>
<text text-anchor="middle" x="682" y="-99.8" font-family="Times,serif" font-size="14.00" fill="#000000">SmartTimepickerDirective</text>
</g>
<!-- SmartTimepickerDirective&#45;&gt;SmartadminInputModule -->
<g id="edge11" class="edge">
<title>SmartTimepickerDirective&#45;&gt;SmartadminInputModule</title>
<path fill="none" stroke="#000000" d="M674.9611,-122.0091C674.9611,-138.0494 674.9611,-159 674.9611,-159 674.9611,-159 1161.249,-159 1161.249,-159"/>
<polygon fill="#000000" stroke="#000000" points="1161.2491,-162.5001 1171.249,-159 1161.249,-155.5001 1161.2491,-162.5001"/>
</g>
<!-- UiDatepickerDirective -->
<g id="node12" class="node">
<title>UiDatepickerDirective</title>
<polygon fill="#ffffb3" stroke="#000000" points="580.9876,-122 437.0124,-122 437.0124,-86 580.9876,-86 580.9876,-122"/>
<text text-anchor="middle" x="509" y="-99.8" font-family="Times,serif" font-size="14.00" fill="#000000">UiDatepickerDirective</text>
</g>
<!-- UiDatepickerDirective&#45;&gt;SmartadminInputModule -->
<g id="edge12" class="edge">
<title>UiDatepickerDirective&#45;&gt;SmartadminInputModule</title>
<path fill="none" stroke="#000000" d="M511.9841,-122.0336C511.9841,-139.0597 511.9841,-162 511.9841,-162 511.9841,-162 1161.369,-162 1161.369,-162"/>
<polygon fill="#000000" stroke="#000000" points="1161.3691,-165.5001 1171.369,-162 1161.369,-158.5001 1161.3691,-165.5001"/>
</g>
<!-- UiSpinner -->
<g id="node13" class="node">
<title>UiSpinner</title>
<polygon fill="#ffffb3" stroke="#000000" points="418.547,-122 345.453,-122 345.453,-86 418.547,-86 418.547,-122"/>
<text text-anchor="middle" x="382" y="-99.8" font-family="Times,serif" font-size="14.00" fill="#000000">UiSpinner</text>
</g>
<!-- UiSpinner&#45;&gt;SmartadminInputModule -->
<g id="edge13" class="edge">
<title>UiSpinner&#45;&gt;SmartadminInputModule</title>
<path fill="none" stroke="#000000" d="M394.2576,-122.002C394.2576,-139.6754 394.2576,-164 394.2576,-164 394.2576,-164 1161.4092,-164 1161.4092,-164"/>
<polygon fill="#000000" stroke="#000000" points="1161.4093,-167.5001 1171.4092,-164 1161.4092,-160.5001 1161.4093,-167.5001"/>
</g>
<!-- XEditableComponent -->
<g id="node14" class="node">
<title>XEditableComponent</title>
<polygon fill="#ffffb3" stroke="#000000" points="327.0926,-122 188.9074,-122 188.9074,-86 327.0926,-86 327.0926,-122"/>
<text text-anchor="middle" x="258" y="-99.8" font-family="Times,serif" font-size="14.00" fill="#000000">XEditableComponent</text>
</g>
<!-- XEditableComponent&#45;&gt;SmartadminInputModule -->
<g id="edge14" class="edge">
<title>XEditableComponent&#45;&gt;SmartadminInputModule</title>
<path fill="none" stroke="#000000" d="M302.7765,-122.2222C302.7765,-140.8285 302.7765,-167 302.7765,-167 302.7765,-167 1161.2746,-167 1161.2746,-167"/>
<polygon fill="#000000" stroke="#000000" points="1161.2746,-170.5001 1171.2746,-167 1161.2746,-163.5001 1161.2746,-170.5001"/>
</g>
<!-- ColorpickerDirective  -->
<g id="node16" class="node">
<title>ColorpickerDirective </title>
<polygon fill="#fb8072" stroke="#000000" points="2390.4517,-252 2251.5483,-252 2251.5483,-216 2390.4517,-216 2390.4517,-252"/>
<text text-anchor="middle" x="2321" y="-229.8" font-family="Times,serif" font-size="14.00" fill="#000000">ColorpickerDirective </text>
</g>
<!-- SmartadminInputModule&#45;&gt;ColorpickerDirective  -->
<g id="edge15" class="edge">
<title>SmartadminInputModule&#45;&gt;ColorpickerDirective </title>
<path fill="none" stroke="#000000" stroke-dasharray="5,2" d="M1328.7532,-169C1576.0874,-169 2321,-169 2321,-169 2321,-169 2321,-205.8939 2321,-205.8939"/>
<polygon fill="#000000" stroke="#000000" points="2317.5001,-205.8938 2321,-215.8939 2324.5001,-205.8939 2317.5001,-205.8938"/>
</g>
<!-- DuallistboxComponent  -->
<g id="node17" class="node">
<title>DuallistboxComponent </title>
<polygon fill="#fb8072" stroke="#000000" points="2234.1607,-252 2083.8393,-252 2083.8393,-216 2234.1607,-216 2234.1607,-252"/>
<text text-anchor="middle" x="2159" y="-229.8" font-family="Times,serif" font-size="14.00" fill="#000000">DuallistboxComponent </text>
</g>
<!-- SmartadminInputModule&#45;&gt;DuallistboxComponent  -->
<g id="edge16" class="edge">
<title>SmartadminInputModule&#45;&gt;DuallistboxComponent </title>
<path fill="none" stroke="#000000" stroke-dasharray="5,2" d="M1328.6216,-172C1537.3714,-172 2089.7221,-172 2089.7221,-172 2089.7221,-172 2089.7221,-205.7333 2089.7221,-205.7333"/>
<polygon fill="#000000" stroke="#000000" points="2086.2222,-205.7333 2089.7221,-215.7333 2093.2222,-205.7333 2086.2222,-205.7333"/>
</g>
<!-- FileInputComponent  -->
<g id="node18" class="node">
<title>FileInputComponent </title>
<polygon fill="#fb8072" stroke="#000000" points="2066.1621,-252 1929.8379,-252 1929.8379,-216 2066.1621,-216 2066.1621,-252"/>
<text text-anchor="middle" x="1998" y="-229.8" font-family="Times,serif" font-size="14.00" fill="#000000">FileInputComponent </text>
</g>
<!-- SmartadminInputModule&#45;&gt;FileInputComponent  -->
<g id="edge17" class="edge">
<title>SmartadminInputModule&#45;&gt;FileInputComponent </title>
<path fill="none" stroke="#000000" stroke-dasharray="5,2" d="M1328.8815,-175C1525.3691,-175 2020.9439,-175 2020.9439,-175 2020.9439,-175 2020.9439,-205.9775 2020.9439,-205.9775"/>
<polygon fill="#000000" stroke="#000000" points="2017.444,-205.9774 2020.9439,-215.9775 2024.444,-205.9775 2017.444,-205.9774"/>
</g>
<!-- IonSliderDirective  -->
<g id="node19" class="node">
<title>IonSliderDirective </title>
<polygon fill="#fb8072" stroke="#000000" points="1911.6828,-252 1788.3172,-252 1788.3172,-216 1911.6828,-216 1911.6828,-252"/>
<text text-anchor="middle" x="1850" y="-229.8" font-family="Times,serif" font-size="14.00" fill="#000000">IonSliderDirective </text>
</g>
<!-- SmartadminInputModule&#45;&gt;IonSliderDirective  -->
<g id="edge18" class="edge">
<title>SmartadminInputModule&#45;&gt;IonSliderDirective </title>
<path fill="none" stroke="#000000" stroke-dasharray="5,2" d="M1328.7478,-177C1491.5297,-177 1850,-177 1850,-177 1850,-177 1850,-205.9648 1850,-205.9648"/>
<polygon fill="#000000" stroke="#000000" points="1846.5001,-205.9648 1850,-215.9648 1853.5001,-205.9649 1846.5001,-205.9648"/>
</g>
<!-- KnobDirective  -->
<g id="node20" class="node">
<title>KnobDirective </title>
<polygon fill="#fb8072" stroke="#000000" points="1770.1899,-252 1667.8101,-252 1667.8101,-216 1770.1899,-216 1770.1899,-252"/>
<text text-anchor="middle" x="1719" y="-229.8" font-family="Times,serif" font-size="14.00" fill="#000000">KnobDirective </text>
</g>
<!-- SmartadminInputModule&#45;&gt;KnobDirective  -->
<g id="edge19" class="edge">
<title>SmartadminInputModule&#45;&gt;KnobDirective </title>
<path fill="none" stroke="#000000" stroke-dasharray="5,2" d="M1328.5964,-180C1461.1545,-180 1714.8733,-180 1714.8733,-180 1714.8733,-180 1714.8733,-205.7181 1714.8733,-205.7181"/>
<polygon fill="#000000" stroke="#000000" points="1711.3733,-205.718 1714.8733,-215.7181 1718.3733,-205.7181 1711.3733,-205.718"/>
</g>
<!-- MaskedInput  -->
<g id="node21" class="node">
<title>MaskedInput </title>
<polygon fill="#fb8072" stroke="#000000" points="1649.8703,-252 1556.1297,-252 1556.1297,-216 1649.8703,-216 1649.8703,-252"/>
<text text-anchor="middle" x="1603" y="-229.8" font-family="Times,serif" font-size="14.00" fill="#000000">MaskedInput </text>
</g>
<!-- SmartadminInputModule&#45;&gt;MaskedInput  -->
<g id="edge20" class="edge">
<title>SmartadminInputModule&#45;&gt;MaskedInput </title>
<path fill="none" stroke="#000000" stroke-dasharray="5,2" d="M1328.847,-182C1429.2731,-182 1589.955,-182 1589.955,-182 1589.955,-182 1589.955,-205.8129 1589.955,-205.8129"/>
<polygon fill="#000000" stroke="#000000" points="1586.455,-205.8129 1589.955,-215.8129 1593.455,-205.813 1586.455,-205.8129"/>
</g>
<!-- NouisliderDirective  -->
<g id="node22" class="node">
<title>NouisliderDirective </title>
<polygon fill="#fb8072" stroke="#000000" points="1538.1814,-252 1407.8186,-252 1407.8186,-216 1538.1814,-216 1538.1814,-252"/>
<text text-anchor="middle" x="1473" y="-229.8" font-family="Times,serif" font-size="14.00" fill="#000000">NouisliderDirective </text>
</g>
<!-- SmartadminInputModule&#45;&gt;NouisliderDirective  -->
<g id="edge21" class="edge">
<title>SmartadminInputModule&#45;&gt;NouisliderDirective </title>
<path fill="none" stroke="#000000" stroke-dasharray="5,2" d="M1328.5604,-185C1369.8006,-185 1411.8623,-185 1411.8623,-185 1411.8623,-185 1411.8623,-205.7542 1411.8623,-205.7542"/>
<polygon fill="#000000" stroke="#000000" points="1408.3624,-205.7542 1411.8623,-215.7542 1415.3624,-205.7542 1408.3624,-205.7542"/>
</g>
<!-- OnOffSwitchModule  -->
<g id="node23" class="node">
<title>OnOffSwitchModule </title>
<polygon fill="#fb8072" stroke="#000000" points="1389.47,-252 1250.53,-252 1250.53,-216 1389.47,-216 1389.47,-252"/>
<text text-anchor="middle" x="1320" y="-229.8" font-family="Times,serif" font-size="14.00" fill="#000000">OnOffSwitchModule </text>
</g>
<!-- SmartadminInputModule&#45;&gt;OnOffSwitchModule  -->
<g id="edge22" class="edge">
<title>SmartadminInputModule&#45;&gt;OnOffSwitchModule </title>
<path fill="none" stroke="#000000" stroke-dasharray="5,2" d="M1289.7667,-187.1061C1289.7667,-187.1061 1289.7667,-205.991 1289.7667,-205.991"/>
<polygon fill="#000000" stroke="#000000" points="1286.2667,-205.9909 1289.7667,-215.991 1293.2667,-205.991 1286.2667,-205.9909"/>
</g>
<!-- Select2Module  -->
<g id="node24" class="node">
<title>Select2Module </title>
<polygon fill="#fb8072" stroke="#000000" points="1233.2577,-252 1128.7423,-252 1128.7423,-216 1233.2577,-216 1233.2577,-252"/>
<text text-anchor="middle" x="1181" y="-229.8" font-family="Times,serif" font-size="14.00" fill="#000000">Select2Module </text>
</g>
<!-- SmartadminInputModule&#45;&gt;Select2Module  -->
<g id="edge23" class="edge">
<title>SmartadminInputModule&#45;&gt;Select2Module </title>
<path fill="none" stroke="#000000" stroke-dasharray="5,2" d="M1202.1804,-187.1061C1202.1804,-187.1061 1202.1804,-205.991 1202.1804,-205.991"/>
<polygon fill="#000000" stroke="#000000" points="1198.6805,-205.9909 1202.1804,-215.991 1205.6805,-205.991 1198.6805,-205.9909"/>
</g>
<!-- SmartClockpickerDirective  -->
<g id="node25" class="node">
<title>SmartClockpickerDirective </title>
<polygon fill="#fb8072" stroke="#000000" points="1110.9446,-252 937.0554,-252 937.0554,-216 1110.9446,-216 1110.9446,-252"/>
<text text-anchor="middle" x="1024" y="-229.8" font-family="Times,serif" font-size="14.00" fill="#000000">SmartClockpickerDirective </text>
</g>
<!-- SmartadminInputModule&#45;&gt;SmartClockpickerDirective  -->
<g id="edge24" class="edge">
<title>SmartadminInputModule&#45;&gt;SmartClockpickerDirective </title>
<path fill="none" stroke="#000000" stroke-dasharray="5,2" d="M1171.3874,-185C1133.5904,-185 1096.375,-185 1096.375,-185 1096.375,-185 1096.375,-205.7542 1096.375,-205.7542"/>
<polygon fill="#000000" stroke="#000000" points="1092.8751,-205.7542 1096.375,-215.7542 1099.8751,-205.7542 1092.8751,-205.7542"/>
</g>
<!-- SmartSliderDirective  -->
<g id="node26" class="node">
<title>SmartSliderDirective </title>
<polygon fill="#fb8072" stroke="#000000" points="919.4616,-252 780.5384,-252 780.5384,-216 919.4616,-216 919.4616,-252"/>
<text text-anchor="middle" x="850" y="-229.8" font-family="Times,serif" font-size="14.00" fill="#000000">SmartSliderDirective </text>
</g>
<!-- SmartadminInputModule&#45;&gt;SmartSliderDirective  -->
<g id="edge25" class="edge">
<title>SmartadminInputModule&#45;&gt;SmartSliderDirective </title>
<path fill="none" stroke="#000000" stroke-dasharray="5,2" d="M1171.1043,-182C1072.1519,-182 915.2986,-182 915.2986,-182 915.2986,-182 915.2986,-205.8129 915.2986,-205.8129"/>
<polygon fill="#000000" stroke="#000000" points="911.7987,-205.8129 915.2986,-215.8129 918.7987,-205.813 911.7987,-205.8129"/>
</g>
<!-- SmartTagsDirective  -->
<g id="node27" class="node">
<title>SmartTagsDirective </title>
<polygon fill="#fb8072" stroke="#000000" points="763.2338,-252 630.7662,-252 630.7662,-216 763.2338,-216 763.2338,-252"/>
<text text-anchor="middle" x="697" y="-229.8" font-family="Times,serif" font-size="14.00" fill="#000000">SmartTagsDirective </text>
</g>
<!-- SmartadminInputModule&#45;&gt;SmartTagsDirective  -->
<g id="edge26" class="edge">
<title>SmartadminInputModule&#45;&gt;SmartTagsDirective </title>
<path fill="none" stroke="#000000" stroke-dasharray="5,2" d="M1171.3692,-180C1023.5663,-180 719.0389,-180 719.0389,-180 719.0389,-180 719.0389,-205.7181 719.0389,-205.7181"/>
<polygon fill="#000000" stroke="#000000" points="715.539,-205.718 719.0389,-215.7181 722.539,-205.7181 715.539,-205.718"/>
</g>
<!-- SmartTimepickerDirective  -->
<g id="node28" class="node">
<title>SmartTimepickerDirective </title>
<polygon fill="#fb8072" stroke="#000000" points="612.5512,-252 443.4488,-252 443.4488,-216 612.5512,-216 612.5512,-252"/>
<text text-anchor="middle" x="528" y="-229.8" font-family="Times,serif" font-size="14.00" fill="#000000">SmartTimepickerDirective </text>
</g>
<!-- SmartadminInputModule&#45;&gt;SmartTimepickerDirective  -->
<g id="edge27" class="edge">
<title>SmartadminInputModule&#45;&gt;SmartTimepickerDirective </title>
<path fill="none" stroke="#000000" stroke-dasharray="5,2" d="M1171.3399,-177C999.5093,-177 605.875,-177 605.875,-177 605.875,-177 605.875,-205.9648 605.875,-205.9648"/>
<polygon fill="#000000" stroke="#000000" points="602.3751,-205.9648 605.875,-215.9648 609.3751,-205.9649 602.3751,-205.9648"/>
</g>
<!-- UiDatepickerDirective  -->
<g id="node29" class="node">
<title>UiDatepickerDirective </title>
<polygon fill="#fb8072" stroke="#000000" points="425.4868,-252 278.5132,-252 278.5132,-216 425.4868,-216 425.4868,-252"/>
<text text-anchor="middle" x="352" y="-229.8" font-family="Times,serif" font-size="14.00" fill="#000000">UiDatepickerDirective </text>
</g>
<!-- SmartadminInputModule&#45;&gt;UiDatepickerDirective  -->
<g id="edge28" class="edge">
<title>SmartadminInputModule&#45;&gt;UiDatepickerDirective </title>
<path fill="none" stroke="#000000" stroke-dasharray="5,2" d="M1171.1083,-175C955.0482,-175 369.7424,-175 369.7424,-175 369.7424,-175 369.7424,-205.9775 369.7424,-205.9775"/>
<polygon fill="#000000" stroke="#000000" points="366.2425,-205.9774 369.7424,-215.9775 373.2425,-205.9775 366.2425,-205.9774"/>
</g>
<!-- UiSpinner  -->
<g id="node30" class="node">
<title>UiSpinner </title>
<polygon fill="#fb8072" stroke="#000000" points="260.5456,-252 183.4544,-252 183.4544,-216 260.5456,-216 260.5456,-252"/>
<text text-anchor="middle" x="222" y="-229.8" font-family="Times,serif" font-size="14.00" fill="#000000">UiSpinner </text>
</g>
<!-- SmartadminInputModule&#45;&gt;UiSpinner  -->
<g id="edge29" class="edge">
<title>SmartadminInputModule&#45;&gt;UiSpinner </title>
<path fill="none" stroke="#000000" stroke-dasharray="5,2" d="M1171.2518,-172C931.174,-172 224.7382,-172 224.7382,-172 224.7382,-172 224.7382,-205.7333 224.7382,-205.7333"/>
<polygon fill="#000000" stroke="#000000" points="221.2382,-205.7333 224.7383,-215.7333 228.2382,-205.7333 221.2382,-205.7333"/>
</g>
<!-- XEditableComponent  -->
<g id="node31" class="node">
<title>XEditableComponent </title>
<polygon fill="#fb8072" stroke="#000000" points="165.5932,-252 24.4068,-252 24.4068,-216 165.5932,-216 165.5932,-252"/>
<text text-anchor="middle" x="95" y="-229.8" font-family="Times,serif" font-size="14.00" fill="#000000">XEditableComponent </text>
</g>
<!-- SmartadminInputModule&#45;&gt;XEditableComponent  -->
<g id="edge30" class="edge">
<title>SmartadminInputModule&#45;&gt;XEditableComponent </title>
<path fill="none" stroke="#000000" stroke-dasharray="5,2" d="M1171.0668,-169C910.6124,-169 95,-169 95,-169 95,-169 95,-205.8939 95,-205.8939"/>
<polygon fill="#000000" stroke="#000000" points="91.5001,-205.8938 95,-215.8939 98.5001,-205.8939 91.5001,-205.8938"/>
</g>
</g>
</svg>
