<?xml version="1.0" encoding="UTF-8" standalone="no"?>
<!DOCTYPE svg PUBLIC "-//W3C//DTD SVG 1.1//EN"
 "http://www.w3.org/Graphics/SVG/1.1/DTD/svg11.dtd">
<!-- Generated by graphviz version 2.40.1 (20161225.0304)
 -->
<!-- Title: dependencies Pages: 1 -->
<svg width="1689pt" height="284pt"
 viewBox="0.00 0.00 1689.00 284.00" xmlns="http://www.w3.org/2000/svg" xmlns:xlink="http://www.w3.org/1999/xlink">
<g id="graph0" class="graph" transform="scale(1 1) rotate(0) translate(4 280)">
<title>dependencies</title>
<polygon fill="#ffffff" stroke="transparent" points="-4,4 -4,-280 1685,-280 1685,4 -4,4"/>
<text text-anchor="start" x="819.5091" y="-42.4" font-family="sans-serif" font-weight="bold" font-size="14.00" fill="#000000">Legend</text>
<polygon fill="#ffffb3" stroke="transparent" points="606.5,-10 606.5,-30 626.5,-30 626.5,-10 606.5,-10"/>
<text text-anchor="start" x="630.129" y="-15.4" font-family="sans-serif" font-size="14.00" fill="#000000"> &#160;Declarations</text>
<polygon fill="#8dd3c7" stroke="transparent" points="719.5,-10 719.5,-30 739.5,-30 739.5,-10 719.5,-10"/>
<text text-anchor="start" x="743.2251" y="-15.4" font-family="sans-serif" font-size="14.00" fill="#000000"> &#160;Module</text>
<polygon fill="#80b1d3" stroke="transparent" points="805.5,-10 805.5,-30 825.5,-30 825.5,-10 805.5,-10"/>
<text text-anchor="start" x="829.2812" y="-15.4" font-family="sans-serif" font-size="14.00" fill="#000000"> &#160;Bootstrap</text>
<polygon fill="#fdb462" stroke="transparent" points="902.5,-10 902.5,-30 922.5,-30 922.5,-10 902.5,-10"/>
<text text-anchor="start" x="926.1732" y="-15.4" font-family="sans-serif" font-size="14.00" fill="#000000"> &#160;Providers</text>
<polygon fill="#fb8072" stroke="transparent" points="998.5,-10 998.5,-30 1018.5,-30 1018.5,-10 998.5,-10"/>
<text text-anchor="start" x="1022.2258" y="-15.4" font-family="sans-serif" font-size="14.00" fill="#000000"> &#160;Exports</text>
<g id="clust1" class="cluster">
<title>cluster_ChatModule</title>
<polygon fill="none" stroke="#000000" stroke-dasharray="1,5" points="8,-70 8,-268 1673,-268 1673,-70 8,-70"/>
</g>
<g id="clust2" class="cluster">
<title>cluster_ChatModule_declarations</title>
<polygon fill="none" stroke="#000000" points="562,-78 562,-130 1665,-130 1665,-78 562,-78"/>
</g>
<g id="clust10" class="cluster">
<title>cluster_ChatModule_imports</title>
<polygon fill="none" stroke="#000000" points="156,-78 156,-130 554,-130 554,-78 156,-78"/>
</g>
<g id="clust11" class="cluster">
<title>cluster_ChatModule_exports</title>
<polygon fill="none" stroke="#000000" points="543,-208 543,-260 1061,-260 1061,-208 543,-208"/>
</g>
<g id="clust13" class="cluster">
<title>cluster_ChatModule_providers</title>
<polygon fill="none" stroke="#000000" points="16,-78 16,-130 148,-130 148,-78 16,-78"/>
</g>
<!-- AsideChatComponent -->
<g id="node1" class="node">
<title>AsideChatComponent</title>
<polygon fill="#ffffb3" stroke="#000000" points="1657.4313,-122 1516.5687,-122 1516.5687,-86 1657.4313,-86 1657.4313,-122"/>
<text text-anchor="middle" x="1587" y="-99.8" font-family="Times,serif" font-size="14.00" fill="#000000">AsideChatComponent</text>
</g>
<!-- ChatModule -->
<g id="node8" class="node">
<title>ChatModule</title>
<polygon fill="#8dd3c7" stroke="#000000" points="848.9916,-187 845.9916,-191 824.9916,-191 821.9916,-187 763.0084,-187 763.0084,-151 848.9916,-151 848.9916,-187"/>
<text text-anchor="middle" x="806" y="-164.8" font-family="Times,serif" font-size="14.00" fill="#000000">ChatModule</text>
</g>
<!-- AsideChatComponent&#45;&gt;ChatModule -->
<g id="edge1" class="edge">
<title>AsideChatComponent&#45;&gt;ChatModule</title>
<path fill="none" stroke="#000000" d="M1587,-122.0449C1587,-143.6623 1587,-177 1587,-177 1587,-177 859.1024,-177 859.1024,-177"/>
<polygon fill="#000000" stroke="#000000" points="859.1025,-173.5001 849.1024,-177 859.1024,-180.5001 859.1025,-173.5001"/>
</g>
<!-- AsideChatUserComponent -->
<g id="node2" class="node">
<title>AsideChatUserComponent</title>
<polygon fill="#ffffb3" stroke="#000000" points="1498.3571,-122 1331.6429,-122 1331.6429,-86 1498.3571,-86 1498.3571,-122"/>
<text text-anchor="middle" x="1415" y="-99.8" font-family="Times,serif" font-size="14.00" fill="#000000">AsideChatUserComponent</text>
</g>
<!-- AsideChatUserComponent&#45;&gt;ChatModule -->
<g id="edge2" class="edge">
<title>AsideChatUserComponent&#45;&gt;ChatModule</title>
<path fill="none" stroke="#000000" d="M1415,-122.2228C1415,-142.3652 1415,-172 1415,-172 1415,-172 859.3096,-172 859.3096,-172"/>
<polygon fill="#000000" stroke="#000000" points="859.3096,-168.5001 849.3096,-172 859.3095,-175.5001 859.3096,-168.5001"/>
</g>
<!-- ChatBodyComponent -->
<g id="node3" class="node">
<title>ChatBodyComponent</title>
<polygon fill="#ffffb3" stroke="#000000" points="1314.1108,-122 1175.8892,-122 1175.8892,-86 1314.1108,-86 1314.1108,-122"/>
<text text-anchor="middle" x="1245" y="-99.8" font-family="Times,serif" font-size="14.00" fill="#000000">ChatBodyComponent</text>
</g>
<!-- ChatBodyComponent&#45;&gt;ChatModule -->
<g id="edge3" class="edge">
<title>ChatBodyComponent&#45;&gt;ChatModule</title>
<path fill="none" stroke="#000000" d="M1245,-122.2222C1245,-140.8285 1245,-167 1245,-167 1245,-167 859.2944,-167 859.2944,-167"/>
<polygon fill="#000000" stroke="#000000" points="859.2945,-163.5001 849.2944,-167 859.2944,-170.5001 859.2945,-163.5001"/>
</g>
<!-- ChatComponent -->
<g id="node4" class="node">
<title>ChatComponent</title>
<polygon fill="#ffffb3" stroke="#000000" points="1157.7744,-122 1050.2256,-122 1050.2256,-86 1157.7744,-86 1157.7744,-122"/>
<text text-anchor="middle" x="1104" y="-99.8" font-family="Times,serif" font-size="14.00" fill="#000000">ChatComponent</text>
</g>
<!-- ChatComponent&#45;&gt;ChatModule -->
<g id="edge4" class="edge">
<title>ChatComponent&#45;&gt;ChatModule</title>
<path fill="none" stroke="#000000" d="M1105.4262,-122.0336C1105.4262,-139.0597 1105.4262,-162 1105.4262,-162 1105.4262,-162 859.2194,-162 859.2194,-162"/>
<polygon fill="#000000" stroke="#000000" points="859.2194,-158.5001 849.2194,-162 859.2193,-165.5001 859.2194,-158.5001"/>
</g>
<!-- ChatFormComponent -->
<g id="node5" class="node">
<title>ChatFormComponent</title>
<polygon fill="#ffffb3" stroke="#000000" points="1032.108,-122 893.892,-122 893.892,-86 1032.108,-86 1032.108,-122"/>
<text text-anchor="middle" x="963" y="-99.8" font-family="Times,serif" font-size="14.00" fill="#000000">ChatFormComponent</text>
</g>
<!-- ChatFormComponent&#45;&gt;ChatModule -->
<g id="edge5" class="edge">
<title>ChatFormComponent&#45;&gt;ChatModule</title>
<path fill="none" stroke="#000000" d="M901.4904,-122.2396C901.4904,-137.5706 901.4904,-157 901.4904,-157 901.4904,-157 858.9963,-157 858.9963,-157"/>
<polygon fill="#000000" stroke="#000000" points="858.9963,-153.5001 848.9963,-157 858.9963,-160.5001 858.9963,-153.5001"/>
</g>
<!-- ChatUsersComponent -->
<g id="node6" class="node">
<title>ChatUsersComponent</title>
<polygon fill="#ffffb3" stroke="#000000" points="875.6456,-122 736.3544,-122 736.3544,-86 875.6456,-86 875.6456,-122"/>
<text text-anchor="middle" x="806" y="-99.8" font-family="Times,serif" font-size="14.00" fill="#000000">ChatUsersComponent</text>
</g>
<!-- ChatUsersComponent&#45;&gt;ChatModule -->
<g id="edge6" class="edge">
<title>ChatUsersComponent&#45;&gt;ChatModule</title>
<path fill="none" stroke="#000000" d="M806,-122.1061C806,-122.1061 806,-140.991 806,-140.991"/>
<polygon fill="#000000" stroke="#000000" points="802.5001,-140.9909 806,-150.991 809.5001,-140.991 802.5001,-140.9909"/>
</g>
<!-- ChatWidgetComponent -->
<g id="node7" class="node">
<title>ChatWidgetComponent</title>
<polygon fill="#ffffb3" stroke="#000000" points="718.4846,-122 569.5154,-122 569.5154,-86 718.4846,-86 718.4846,-122"/>
<text text-anchor="middle" x="644" y="-99.8" font-family="Times,serif" font-size="14.00" fill="#000000">ChatWidgetComponent</text>
</g>
<!-- ChatWidgetComponent&#45;&gt;ChatModule -->
<g id="edge7" class="edge">
<title>ChatWidgetComponent&#45;&gt;ChatModule</title>
<path fill="none" stroke="#000000" d="M710.8673,-122.2396C710.8673,-137.5706 710.8673,-157 710.8673,-157 710.8673,-157 752.8872,-157 752.8872,-157"/>
<polygon fill="#000000" stroke="#000000" points="752.8872,-160.5001 762.8872,-157 752.8872,-153.5001 752.8872,-160.5001"/>
</g>
<!-- AsideChatComponent  -->
<g id="node12" class="node">
<title>AsideChatComponent </title>
<polygon fill="#fb8072" stroke="#000000" points="1052.9306,-252 909.0694,-252 909.0694,-216 1052.9306,-216 1052.9306,-252"/>
<text text-anchor="middle" x="981" y="-229.8" font-family="Times,serif" font-size="14.00" fill="#000000">AsideChatComponent </text>
</g>
<!-- ChatModule&#45;&gt;AsideChatComponent  -->
<g id="edge11" class="edge">
<title>ChatModule&#45;&gt;AsideChatComponent </title>
<path fill="none" stroke="#000000" stroke-dasharray="5,2" d="M849.2321,-182C897.9837,-182 970.5444,-182 970.5444,-182 970.5444,-182 970.5444,-205.8129 970.5444,-205.8129"/>
<polygon fill="#000000" stroke="#000000" points="967.0444,-205.8129 970.5444,-215.8129 974.0444,-205.813 967.0444,-205.8129"/>
</g>
<!-- AsideChatUserComponent  -->
<g id="node13" class="node">
<title>AsideChatUserComponent </title>
<polygon fill="#fb8072" stroke="#000000" points="891.3574,-252 720.6426,-252 720.6426,-216 891.3574,-216 891.3574,-252"/>
<text text-anchor="middle" x="806" y="-229.8" font-family="Times,serif" font-size="14.00" fill="#000000">AsideChatUserComponent </text>
</g>
<!-- ChatModule&#45;&gt;AsideChatUserComponent  -->
<g id="edge12" class="edge">
<title>ChatModule&#45;&gt;AsideChatUserComponent </title>
<path fill="none" stroke="#000000" stroke-dasharray="5,2" d="M806,-187.1061C806,-187.1061 806,-205.991 806,-205.991"/>
<polygon fill="#000000" stroke="#000000" points="802.5001,-205.9909 806,-215.991 809.5001,-205.991 802.5001,-205.9909"/>
</g>
<!-- ChatWidgetComponent  -->
<g id="node14" class="node">
<title>ChatWidgetComponent </title>
<polygon fill="#fb8072" stroke="#000000" points="703.4854,-252 550.5146,-252 550.5146,-216 703.4854,-216 703.4854,-252"/>
<text text-anchor="middle" x="627" y="-229.8" font-family="Times,serif" font-size="14.00" fill="#000000">ChatWidgetComponent </text>
</g>
<!-- ChatModule&#45;&gt;ChatWidgetComponent  -->
<g id="edge13" class="edge">
<title>ChatModule&#45;&gt;ChatWidgetComponent </title>
<path fill="none" stroke="#000000" stroke-dasharray="5,2" d="M762.7576,-182C712.5019,-182 636.375,-182 636.375,-182 636.375,-182 636.375,-205.8129 636.375,-205.8129"/>
<polygon fill="#000000" stroke="#000000" points="632.8751,-205.8129 636.375,-215.8129 639.8751,-205.813 632.8751,-205.8129"/>
</g>
<!-- SmartadminWidgetsModule -->
<g id="node9" class="node">
<title>SmartadminWidgetsModule</title>
<polygon fill="#8dd3c7" stroke="#000000" points="546.14,-122 543.14,-126 522.14,-126 519.14,-122 371.86,-122 371.86,-86 546.14,-86 546.14,-122"/>
<text text-anchor="middle" x="459" y="-99.8" font-family="Times,serif" font-size="14.00" fill="#000000">SmartadminWidgetsModule</text>
</g>
<!-- SmartadminWidgetsModule&#45;&gt;ChatModule -->
<g id="edge8" class="edge">
<title>SmartadminWidgetsModule&#45;&gt;ChatModule</title>
<path fill="none" stroke="#000000" d="M459,-122.0336C459,-139.0597 459,-162 459,-162 459,-162 752.7538,-162 752.7538,-162"/>
<polygon fill="#000000" stroke="#000000" points="752.7539,-165.5001 762.7538,-162 752.7538,-158.5001 752.7539,-165.5001"/>
</g>
<!-- UserModule -->
<g id="node10" class="node">
<title>UserModule</title>
<polygon fill="#8dd3c7" stroke="#000000" points="353.9762,-122 350.9762,-126 329.9762,-126 326.9762,-122 268.0238,-122 268.0238,-86 353.9762,-86 353.9762,-122"/>
<text text-anchor="middle" x="311" y="-99.8" font-family="Times,serif" font-size="14.00" fill="#000000">UserModule</text>
</g>
<!-- UserModule&#45;&gt;ChatModule -->
<g id="edge9" class="edge">
<title>UserModule&#45;&gt;ChatModule</title>
<path fill="none" stroke="#000000" d="M311,-122.2222C311,-140.8285 311,-167 311,-167 311,-167 752.9379,-167 752.9379,-167"/>
<polygon fill="#000000" stroke="#000000" points="752.938,-170.5001 762.9379,-167 752.9379,-163.5001 752.938,-170.5001"/>
</g>
<!-- UtilsModule -->
<g id="node11" class="node">
<title>UtilsModule</title>
<polygon fill="#8dd3c7" stroke="#000000" points="250.2731,-122 247.2731,-126 226.2731,-126 223.2731,-122 163.7269,-122 163.7269,-86 250.2731,-86 250.2731,-122"/>
<text text-anchor="middle" x="207" y="-99.8" font-family="Times,serif" font-size="14.00" fill="#000000">UtilsModule</text>
</g>
<!-- UtilsModule&#45;&gt;ChatModule -->
<g id="edge10" class="edge">
<title>UtilsModule&#45;&gt;ChatModule</title>
<path fill="none" stroke="#000000" d="M207,-122.2228C207,-142.3652 207,-172 207,-172 207,-172 752.9214,-172 752.9214,-172"/>
<polygon fill="#000000" stroke="#000000" points="752.9214,-175.5001 762.9214,-172 752.9214,-168.5001 752.9214,-175.5001"/>
</g>
<!-- ChatService -->
<g id="node15" class="node">
<title>ChatService</title>
<ellipse fill="#fdb462" stroke="#000000" cx="82" cy="-104" rx="58.4628" ry="18"/>
<text text-anchor="middle" x="82" y="-99.8" font-family="Times,serif" font-size="14.00" fill="#000000">ChatService</text>
</g>
<!-- ChatService&#45;&gt;ChatModule -->
<g id="edge14" class="edge">
<title>ChatService&#45;&gt;ChatModule</title>
<path fill="none" stroke="#000000" d="M82,-122.0449C82,-143.6623 82,-177 82,-177 82,-177 752.8787,-177 752.8787,-177"/>
<polygon fill="#000000" stroke="#000000" points="752.8787,-180.5001 762.8787,-177 752.8787,-173.5001 752.8787,-180.5001"/>
</g>
</g>
</svg>
