<?xml version="1.0" encoding="UTF-8" standalone="no"?>
<!DOCTYPE svg PUBLIC "-//W3C//DTD SVG 1.1//EN"
 "http://www.w3.org/Graphics/SVG/1.1/DTD/svg11.dtd">
<!-- Generated by graphviz version 2.40.1 (20161225.0304)
 -->
<!-- Title: dependencies Pages: 1 -->
<svg width="842pt" height="211pt"
 viewBox="0.00 0.00 842.00 211.00" xmlns="http://www.w3.org/2000/svg" xmlns:xlink="http://www.w3.org/1999/xlink">
<g id="graph0" class="graph" transform="scale(1 1) rotate(0) translate(4 207)">
<title>dependencies</title>
<polygon fill="#ffffff" stroke="transparent" points="-4,4 -4,-207 838,-207 838,4 -4,4"/>
<text text-anchor="start" x="396.0091" y="-42.4" font-family="sans-serif" font-weight="bold" font-size="14.00" fill="#000000">Legend</text>
<polygon fill="#ffffb3" stroke="transparent" points="183,-10 183,-30 203,-30 203,-10 183,-10"/>
<text text-anchor="start" x="206.629" y="-15.4" font-family="sans-serif" font-size="14.00" fill="#000000"> &#160;Declarations</text>
<polygon fill="#8dd3c7" stroke="transparent" points="296,-10 296,-30 316,-30 316,-10 296,-10"/>
<text text-anchor="start" x="319.7251" y="-15.4" font-family="sans-serif" font-size="14.00" fill="#000000"> &#160;Module</text>
<polygon fill="#80b1d3" stroke="transparent" points="382,-10 382,-30 402,-30 402,-10 382,-10"/>
<text text-anchor="start" x="405.7812" y="-15.4" font-family="sans-serif" font-size="14.00" fill="#000000"> &#160;Bootstrap</text>
<polygon fill="#fdb462" stroke="transparent" points="479,-10 479,-30 499,-30 499,-10 479,-10"/>
<text text-anchor="start" x="502.6732" y="-15.4" font-family="sans-serif" font-size="14.00" fill="#000000"> &#160;Providers</text>
<polygon fill="#fb8072" stroke="transparent" points="575,-10 575,-30 595,-30 595,-10 575,-10"/>
<text text-anchor="start" x="598.7258" y="-15.4" font-family="sans-serif" font-size="14.00" fill="#000000"> &#160;Exports</text>
<g id="clust1" class="cluster">
<title>cluster_TestDashModule</title>
<polygon fill="none" stroke="#000000" stroke-dasharray="1,5" points="8,-70 8,-195 826,-195 826,-70 8,-70"/>
</g>
<g id="clust3" class="cluster">
<title>cluster_TestDashModule_imports</title>
<polygon fill="none" stroke="#000000" points="320,-78 320,-130 818,-130 818,-78 320,-78"/>
</g>
<g id="clust6" class="cluster">
<title>cluster_TestDashModule_providers</title>
<polygon fill="none" stroke="#000000" points="16,-78 16,-130 312,-130 312,-78 16,-78"/>
</g>
<!-- D3Module -->
<g id="node1" class="node">
<title>D3Module</title>
<polygon fill="#8dd3c7" stroke="#000000" points="810.1572,-122 807.1572,-126 786.1572,-126 783.1572,-122 733.8428,-122 733.8428,-86 810.1572,-86 810.1572,-122"/>
<text text-anchor="middle" x="772" y="-99.8" font-family="Times,serif" font-size="14.00" fill="#000000">D3Module</text>
</g>
<!-- TestDashModule -->
<g id="node5" class="node">
<title>TestDashModule</title>
<polygon fill="#8dd3c7" stroke="#000000" points="507.4188,-187 504.4188,-191 483.4188,-191 480.4188,-187 394.5812,-187 394.5812,-151 507.4188,-151 507.4188,-187"/>
<text text-anchor="middle" x="451" y="-164.8" font-family="Times,serif" font-size="14.00" fill="#000000">TestDashModule</text>
</g>
<!-- D3Module&#45;&gt;TestDashModule -->
<g id="edge1" class="edge">
<title>D3Module&#45;&gt;TestDashModule</title>
<path fill="none" stroke="#000000" d="M772,-122.2843C772,-143.3211 772,-175 772,-175 772,-175 517.2813,-175 517.2813,-175"/>
<polygon fill="#000000" stroke="#000000" points="517.2813,-171.5001 507.2813,-175 517.2812,-178.5001 517.2813,-171.5001"/>
</g>
<!-- FlotChartModule -->
<g id="node2" class="node">
<title>FlotChartModule</title>
<polygon fill="#8dd3c7" stroke="#000000" points="715.7162,-122 712.7162,-126 691.7162,-126 688.7162,-122 602.2838,-122 602.2838,-86 715.7162,-86 715.7162,-122"/>
<text text-anchor="middle" x="659" y="-99.8" font-family="Times,serif" font-size="14.00" fill="#000000">FlotChartModule</text>
</g>
<!-- FlotChartModule&#45;&gt;TestDashModule -->
<g id="edge2" class="edge">
<title>FlotChartModule&#45;&gt;TestDashModule</title>
<path fill="none" stroke="#000000" d="M659,-122.0225C659,-139.3734 659,-163 659,-163 659,-163 517.2878,-163 517.2878,-163"/>
<polygon fill="#000000" stroke="#000000" points="517.2878,-159.5001 507.2878,-163 517.2878,-166.5001 517.2878,-159.5001"/>
</g>
<!-- SmartadminModule -->
<g id="node3" class="node">
<title>SmartadminModule</title>
<polygon fill="#8dd3c7" stroke="#000000" points="583.9846,-122 580.9846,-126 559.9846,-126 556.9846,-122 456.0154,-122 456.0154,-86 583.9846,-86 583.9846,-122"/>
<text text-anchor="middle" x="520" y="-99.8" font-family="Times,serif" font-size="14.00" fill="#000000">SmartadminModule</text>
</g>
<!-- SmartadminModule&#45;&gt;TestDashModule -->
<g id="edge3" class="edge">
<title>SmartadminModule&#45;&gt;TestDashModule</title>
<path fill="none" stroke="#000000" d="M481.6084,-122.1061C481.6084,-122.1061 481.6084,-140.991 481.6084,-140.991"/>
<polygon fill="#000000" stroke="#000000" points="478.1084,-140.9909 481.6084,-150.991 485.1084,-140.991 478.1084,-140.9909"/>
</g>
<!-- TestdashRouting -->
<g id="node4" class="node">
<title>TestdashRouting</title>
<polygon fill="#8dd3c7" stroke="#000000" points="438.3795,-122 435.3795,-126 414.3795,-126 411.3795,-122 327.6205,-122 327.6205,-86 438.3795,-86 438.3795,-122"/>
<text text-anchor="middle" x="383" y="-99.8" font-family="Times,serif" font-size="14.00" fill="#000000">TestdashRouting</text>
</g>
<!-- TestdashRouting&#45;&gt;TestDashModule -->
<g id="edge4" class="edge">
<title>TestdashRouting&#45;&gt;TestDashModule</title>
<path fill="none" stroke="#000000" d="M409.3406,-122.1061C409.3406,-122.1061 409.3406,-140.991 409.3406,-140.991"/>
<polygon fill="#000000" stroke="#000000" points="405.8407,-140.9909 409.3406,-150.991 412.8407,-140.991 405.8407,-140.9909"/>
</g>
<!-- TestdashRouting&#45;&gt;TestDashModule -->
<g id="edge5" class="edge">
<title>TestdashRouting&#45;&gt;TestDashModule</title>
<path fill="none" stroke="#000000" d="M423.8901,-122.1061C423.8901,-122.1061 423.8901,-140.991 423.8901,-140.991"/>
<polygon fill="#000000" stroke="#000000" points="420.3902,-140.9909 423.8901,-150.991 427.3902,-140.991 420.3902,-140.9909"/>
</g>
<!-- DashboardGridsterConfigService -->
<g id="node6" class="node">
<title>DashboardGridsterConfigService</title>
<ellipse fill="#fdb462" stroke="#000000" cx="164" cy="-104" rx="140.0685" ry="18"/>
<text text-anchor="middle" x="164" y="-99.8" font-family="Times,serif" font-size="14.00" fill="#000000">DashboardGridsterConfigService</text>
</g>
<!-- DashboardGridsterConfigService&#45;&gt;TestDashModule -->
<g id="edge6" class="edge">
<title>DashboardGridsterConfigService&#45;&gt;TestDashModule</title>
<path fill="none" stroke="#000000" d="M164,-122.1061C164,-141.3391 164,-169 164,-169 164,-169 384.6405,-169 384.6405,-169"/>
<polygon fill="#000000" stroke="#000000" points="384.6405,-172.5001 394.6405,-169 384.6404,-165.5001 384.6405,-172.5001"/>
</g>
</g>
</svg>
