<?xml version="1.0" encoding="UTF-8" standalone="no"?>
<!DOCTYPE svg PUBLIC "-//W3C//DTD SVG 1.1//EN"
 "http://www.w3.org/Graphics/SVG/1.1/DTD/svg11.dtd">
<!-- Generated by graphviz version 2.40.1 (20161225.0304)
 -->
<!-- Title: dependencies Pages: 1 -->
<svg width="504pt" height="284pt"
 viewBox="0.00 0.00 504.00 284.00" xmlns="http://www.w3.org/2000/svg" xmlns:xlink="http://www.w3.org/1999/xlink">
<g id="graph0" class="graph" transform="scale(1 1) rotate(0) translate(4 280)">
<title>dependencies</title>
<polygon fill="#ffffff" stroke="transparent" points="-4,4 -4,-280 500,-280 500,4 -4,4"/>
<text text-anchor="start" x="227.0091" y="-42.4" font-family="sans-serif" font-weight="bold" font-size="14.00" fill="#000000">Legend</text>
<polygon fill="#ffffb3" stroke="transparent" points="14,-10 14,-30 34,-30 34,-10 14,-10"/>
<text text-anchor="start" x="37.629" y="-15.4" font-family="sans-serif" font-size="14.00" fill="#000000"> &#160;Declarations</text>
<polygon fill="#8dd3c7" stroke="transparent" points="127,-10 127,-30 147,-30 147,-10 127,-10"/>
<text text-anchor="start" x="150.7251" y="-15.4" font-family="sans-serif" font-size="14.00" fill="#000000"> &#160;Module</text>
<polygon fill="#80b1d3" stroke="transparent" points="213,-10 213,-30 233,-30 233,-10 213,-10"/>
<text text-anchor="start" x="236.7812" y="-15.4" font-family="sans-serif" font-size="14.00" fill="#000000"> &#160;Bootstrap</text>
<polygon fill="#fdb462" stroke="transparent" points="310,-10 310,-30 330,-30 330,-10 310,-10"/>
<text text-anchor="start" x="333.6732" y="-15.4" font-family="sans-serif" font-size="14.00" fill="#000000"> &#160;Providers</text>
<polygon fill="#fb8072" stroke="transparent" points="406,-10 406,-30 426,-30 426,-10 406,-10"/>
<text text-anchor="start" x="429.7258" y="-15.4" font-family="sans-serif" font-size="14.00" fill="#000000"> &#160;Exports</text>
<g id="clust1" class="cluster">
<title>cluster_InlineGraphsModule</title>
<polygon fill="none" stroke="#000000" stroke-dasharray="1,5" points="83.5,-70 83.5,-268 412.5,-268 412.5,-70 83.5,-70"/>
</g>
<g id="clust2" class="cluster">
<title>cluster_InlineGraphsModule_declarations</title>
<polygon fill="none" stroke="#000000" points="95.5,-78 95.5,-130 401.5,-130 401.5,-78 95.5,-78"/>
</g>
<g id="clust6" class="cluster">
<title>cluster_InlineGraphsModule_exports</title>
<polygon fill="none" stroke="#000000" points="91.5,-208 91.5,-260 404.5,-260 404.5,-208 91.5,-208"/>
</g>
<!-- EasyPieChartContainer -->
<g id="node1" class="node">
<title>EasyPieChartContainer</title>
<polygon fill="#ffffb3" stroke="#000000" points="393.4102,-122 245.5898,-122 245.5898,-86 393.4102,-86 393.4102,-122"/>
<text text-anchor="middle" x="319.5" y="-99.8" font-family="Times,serif" font-size="14.00" fill="#000000">EasyPieChartContainer</text>
</g>
<!-- InlineGraphsModule -->
<g id="node3" class="node">
<title>InlineGraphsModule</title>
<polygon fill="#8dd3c7" stroke="#000000" points="232.6331,-187 229.6331,-191 208.6331,-191 205.6331,-187 100.3669,-187 100.3669,-151 232.6331,-151 232.6331,-187"/>
<text text-anchor="middle" x="166.5" y="-164.8" font-family="Times,serif" font-size="14.00" fill="#000000">InlineGraphsModule</text>
</g>
<!-- EasyPieChartContainer&#45;&gt;InlineGraphsModule -->
<g id="edge1" class="edge">
<title>EasyPieChartContainer&#45;&gt;InlineGraphsModule</title>
<path fill="none" stroke="#000000" d="M344.1516,-122.0225C344.1516,-139.3734 344.1516,-163 344.1516,-163 344.1516,-163 242.6509,-163 242.6509,-163"/>
<polygon fill="#000000" stroke="#000000" points="242.6509,-159.5001 232.6509,-163 242.6509,-166.5001 242.6509,-159.5001"/>
</g>
<!-- SparklineContainer -->
<g id="node2" class="node">
<title>SparklineContainer</title>
<polygon fill="#ffffb3" stroke="#000000" points="227.8613,-122 103.1387,-122 103.1387,-86 227.8613,-86 227.8613,-122"/>
<text text-anchor="middle" x="165.5" y="-99.8" font-family="Times,serif" font-size="14.00" fill="#000000">SparklineContainer</text>
</g>
<!-- SparklineContainer&#45;&gt;InlineGraphsModule -->
<g id="edge2" class="edge">
<title>SparklineContainer&#45;&gt;InlineGraphsModule</title>
<path fill="none" stroke="#000000" d="M165.5,-122.1061C165.5,-122.1061 165.5,-140.991 165.5,-140.991"/>
<polygon fill="#000000" stroke="#000000" points="162.0001,-140.9909 165.5,-150.991 169.0001,-140.991 162.0001,-140.9909"/>
</g>
<!-- EasyPieChartContainer  -->
<g id="node4" class="node">
<title>EasyPieChartContainer </title>
<polygon fill="#fb8072" stroke="#000000" points="396.9096,-252 246.0904,-252 246.0904,-216 396.9096,-216 396.9096,-252"/>
<text text-anchor="middle" x="321.5" y="-229.8" font-family="Times,serif" font-size="14.00" fill="#000000">EasyPieChartContainer </text>
</g>
<!-- InlineGraphsModule&#45;&gt;EasyPieChartContainer  -->
<g id="edge3" class="edge">
<title>InlineGraphsModule&#45;&gt;EasyPieChartContainer </title>
<path fill="none" stroke="#000000" stroke-dasharray="5,2" d="M232.6827,-175C264.1924,-175 295.0984,-175 295.0984,-175 295.0984,-175 295.0984,-205.9775 295.0984,-205.9775"/>
<polygon fill="#000000" stroke="#000000" points="291.5985,-205.9774 295.0984,-215.9775 298.5985,-205.9775 291.5985,-205.9774"/>
</g>
<!-- SparklineContainer  -->
<g id="node5" class="node">
<title>SparklineContainer </title>
<polygon fill="#fb8072" stroke="#000000" points="227.8617,-252 99.1383,-252 99.1383,-216 227.8617,-216 227.8617,-252"/>
<text text-anchor="middle" x="163.5" y="-229.8" font-family="Times,serif" font-size="14.00" fill="#000000">SparklineContainer </text>
</g>
<!-- InlineGraphsModule&#45;&gt;SparklineContainer  -->
<g id="edge4" class="edge">
<title>InlineGraphsModule&#45;&gt;SparklineContainer </title>
<path fill="none" stroke="#000000" stroke-dasharray="5,2" d="M163.9322,-187.1061C163.9322,-187.1061 163.9322,-205.991 163.9322,-205.991"/>
<polygon fill="#000000" stroke="#000000" points="160.4322,-205.9909 163.9322,-215.991 167.4322,-205.991 160.4322,-205.9909"/>
</g>
</g>
</svg>
