<?xml version="1.0" encoding="UTF-8" standalone="no"?>
<!DOCTYPE svg PUBLIC "-//W3C//DTD SVG 1.1//EN"
 "http://www.w3.org/Graphics/SVG/1.1/DTD/svg11.dtd">
<!-- Generated by graphviz version 2.40.1 (20161225.0304)
 -->
<!-- Title: dependencies Pages: 1 -->
<svg width="1989pt" height="284pt"
 viewBox="0.00 0.00 1989.00 284.00" xmlns="http://www.w3.org/2000/svg" xmlns:xlink="http://www.w3.org/1999/xlink">
<g id="graph0" class="graph" transform="scale(1 1) rotate(0) translate(4 280)">
<title>dependencies</title>
<polygon fill="#ffffff" stroke="transparent" points="-4,4 -4,-280 1985,-280 1985,4 -4,4"/>
<text text-anchor="start" x="969.5091" y="-42.4" font-family="sans-serif" font-weight="bold" font-size="14.00" fill="#000000">Legend</text>
<polygon fill="#ffffb3" stroke="transparent" points="756.5,-10 756.5,-30 776.5,-30 776.5,-10 756.5,-10"/>
<text text-anchor="start" x="780.129" y="-15.4" font-family="sans-serif" font-size="14.00" fill="#000000"> &#160;Declarations</text>
<polygon fill="#8dd3c7" stroke="transparent" points="869.5,-10 869.5,-30 889.5,-30 889.5,-10 869.5,-10"/>
<text text-anchor="start" x="893.2251" y="-15.4" font-family="sans-serif" font-size="14.00" fill="#000000"> &#160;Module</text>
<polygon fill="#80b1d3" stroke="transparent" points="955.5,-10 955.5,-30 975.5,-30 975.5,-10 955.5,-10"/>
<text text-anchor="start" x="979.2812" y="-15.4" font-family="sans-serif" font-size="14.00" fill="#000000"> &#160;Bootstrap</text>
<polygon fill="#fdb462" stroke="transparent" points="1052.5,-10 1052.5,-30 1072.5,-30 1072.5,-10 1052.5,-10"/>
<text text-anchor="start" x="1076.1732" y="-15.4" font-family="sans-serif" font-size="14.00" fill="#000000"> &#160;Providers</text>
<polygon fill="#fb8072" stroke="transparent" points="1148.5,-10 1148.5,-30 1168.5,-30 1168.5,-10 1148.5,-10"/>
<text text-anchor="start" x="1172.2258" y="-15.4" font-family="sans-serif" font-size="14.00" fill="#000000"> &#160;Exports</text>
<g id="clust1" class="cluster">
<title>cluster_AppModule</title>
<polygon fill="none" stroke="#000000" stroke-dasharray="1,5" points="8,-70 8,-268 1973,-268 1973,-70 8,-70"/>
</g>
<g id="clust2" class="cluster">
<title>cluster_AppModule_declarations</title>
<polygon fill="none" stroke="#000000" points="1138,-78 1138,-130 1965,-130 1965,-78 1138,-78"/>
</g>
<g id="clust9" class="cluster">
<title>cluster_AppModule_imports</title>
<polygon fill="none" stroke="#000000" points="842,-78 842,-130 1130,-130 1130,-78 842,-78"/>
</g>
<g id="clust11" class="cluster">
<title>cluster_AppModule_bootstrap</title>
<polygon fill="none" stroke="#000000" points="1017,-208 1017,-260 1141,-260 1141,-208 1017,-208"/>
</g>
<g id="clust12" class="cluster">
<title>cluster_AppModule_providers</title>
<polygon fill="none" stroke="#000000" points="16,-78 16,-130 834,-130 834,-78 16,-78"/>
</g>
<!-- AppComponent -->
<g id="node1" class="node">
<title>AppComponent</title>
<polygon fill="#ffffb3" stroke="#000000" points="1956.9399,-122 1851.0601,-122 1851.0601,-86 1956.9399,-86 1956.9399,-122"/>
<text text-anchor="middle" x="1904" y="-99.8" font-family="Times,serif" font-size="14.00" fill="#000000">AppComponent</text>
</g>
<!-- AppModule -->
<g id="node7" class="node">
<title>AppModule</title>
<polygon fill="#8dd3c7" stroke="#000000" points="1120.6571,-187 1117.6571,-191 1096.6571,-191 1093.6571,-187 1037.3429,-187 1037.3429,-151 1120.6571,-151 1120.6571,-187"/>
<text text-anchor="middle" x="1079" y="-164.8" font-family="Times,serif" font-size="14.00" fill="#000000">AppModule</text>
</g>
<!-- AppComponent&#45;&gt;AppModule -->
<g id="edge1" class="edge">
<title>AppComponent&#45;&gt;AppModule</title>
<path fill="none" stroke="#000000" d="M1904,-122.0908C1904,-145.1328 1904,-182 1904,-182 1904,-182 1130.7612,-182 1130.7612,-182"/>
<polygon fill="#000000" stroke="#000000" points="1130.7613,-178.5001 1120.7612,-182 1130.7612,-185.5001 1130.7613,-178.5001"/>
</g>
<!-- HeaderComponent -->
<g id="node2" class="node">
<title>HeaderComponent</title>
<polygon fill="#ffffb3" stroke="#000000" points="1832.7437,-122 1711.2563,-122 1711.2563,-86 1832.7437,-86 1832.7437,-122"/>
<text text-anchor="middle" x="1772" y="-99.8" font-family="Times,serif" font-size="14.00" fill="#000000">HeaderComponent</text>
</g>
<!-- HeaderComponent&#45;&gt;AppModule -->
<g id="edge2" class="edge">
<title>HeaderComponent&#45;&gt;AppModule</title>
<path fill="none" stroke="#000000" d="M1772,-122.0449C1772,-143.6623 1772,-177 1772,-177 1772,-177 1130.7896,-177 1130.7896,-177"/>
<polygon fill="#000000" stroke="#000000" points="1130.7897,-173.5001 1120.7896,-177 1130.7896,-180.5001 1130.7897,-173.5001"/>
</g>
<!-- HomeComponent -->
<g id="node3" class="node">
<title>HomeComponent</title>
<polygon fill="#ffffb3" stroke="#000000" points="1692.5451,-122 1577.4549,-122 1577.4549,-86 1692.5451,-86 1692.5451,-122"/>
<text text-anchor="middle" x="1635" y="-99.8" font-family="Times,serif" font-size="14.00" fill="#000000">HomeComponent</text>
</g>
<!-- HomeComponent&#45;&gt;AppModule -->
<g id="edge3" class="edge">
<title>HomeComponent&#45;&gt;AppModule</title>
<path fill="none" stroke="#000000" d="M1635,-122.2228C1635,-142.3652 1635,-172 1635,-172 1635,-172 1130.7904,-172 1130.7904,-172"/>
<polygon fill="#000000" stroke="#000000" points="1130.7904,-168.5001 1120.7904,-172 1130.7903,-175.5001 1130.7904,-168.5001"/>
</g>
<!-- LoginComponent -->
<g id="node4" class="node">
<title>LoginComponent</title>
<polygon fill="#ffffb3" stroke="#000000" points="1559.2758,-122 1444.7242,-122 1444.7242,-86 1559.2758,-86 1559.2758,-122"/>
<text text-anchor="middle" x="1502" y="-99.8" font-family="Times,serif" font-size="14.00" fill="#000000">LoginComponent</text>
</g>
<!-- LoginComponent&#45;&gt;AppModule -->
<g id="edge4" class="edge">
<title>LoginComponent&#45;&gt;AppModule</title>
<path fill="none" stroke="#000000" d="M1502,-122.2222C1502,-140.8285 1502,-167 1502,-167 1502,-167 1130.7165,-167 1130.7165,-167"/>
<polygon fill="#000000" stroke="#000000" points="1130.7166,-163.5001 1120.7165,-167 1130.7165,-170.5001 1130.7166,-163.5001"/>
</g>
<!-- SelfalertComponent -->
<g id="node5" class="node">
<title>SelfalertComponent</title>
<polygon fill="#ffffb3" stroke="#000000" points="1426.252,-122 1297.748,-122 1297.748,-86 1426.252,-86 1426.252,-122"/>
<text text-anchor="middle" x="1362" y="-99.8" font-family="Times,serif" font-size="14.00" fill="#000000">SelfalertComponent</text>
</g>
<!-- SelfalertComponent&#45;&gt;AppModule -->
<g id="edge5" class="edge">
<title>SelfalertComponent&#45;&gt;AppModule</title>
<path fill="none" stroke="#000000" d="M1362,-122.0336C1362,-139.0597 1362,-162 1362,-162 1362,-162 1130.7576,-162 1130.7576,-162"/>
<polygon fill="#000000" stroke="#000000" points="1130.7577,-158.5001 1120.7576,-162 1130.7576,-165.5001 1130.7577,-158.5001"/>
</g>
<!-- SignpageComponent -->
<g id="node6" class="node">
<title>SignpageComponent</title>
<polygon fill="#ffffb3" stroke="#000000" points="1279.9355,-122 1146.0645,-122 1146.0645,-86 1279.9355,-86 1279.9355,-122"/>
<text text-anchor="middle" x="1213" y="-99.8" font-family="Times,serif" font-size="14.00" fill="#000000">SignpageComponent</text>
</g>
<!-- SignpageComponent&#45;&gt;AppModule -->
<g id="edge6" class="edge">
<title>SignpageComponent&#45;&gt;AppModule</title>
<path fill="none" stroke="#000000" d="M1213,-122.2396C1213,-137.5706 1213,-157 1213,-157 1213,-157 1130.6639,-157 1130.6639,-157"/>
<polygon fill="#000000" stroke="#000000" points="1130.6639,-153.5001 1120.6639,-157 1130.6639,-160.5001 1130.6639,-153.5001"/>
</g>
<!-- AppComponent  -->
<g id="node10" class="node">
<title>AppComponent </title>
<polygon fill="#80b1d3" stroke="#000000" points="1133.439,-252 1024.561,-252 1024.561,-216 1133.439,-216 1133.439,-252"/>
<text text-anchor="middle" x="1079" y="-229.8" font-family="Times,serif" font-size="14.00" fill="#000000">AppComponent </text>
</g>
<!-- AppModule&#45;&gt;AppComponent  -->
<g id="edge9" class="edge">
<title>AppModule&#45;&gt;AppComponent </title>
<path fill="none" stroke="#000000" stroke-dasharray="1,5" d="M1079,-187.1061C1079,-187.1061 1079,-205.991 1079,-205.991"/>
<polygon fill="#000000" stroke="#000000" points="1075.5001,-205.9909 1079,-215.991 1082.5001,-205.991 1075.5001,-205.9909"/>
</g>
<!-- CoreModule -->
<g id="node8" class="node">
<title>CoreModule</title>
<polygon fill="#8dd3c7" stroke="#000000" points="1122.2619,-122 1119.2619,-126 1098.2619,-126 1095.2619,-122 1035.7381,-122 1035.7381,-86 1122.2619,-86 1122.2619,-122"/>
<text text-anchor="middle" x="1079" y="-99.8" font-family="Times,serif" font-size="14.00" fill="#000000">CoreModule</text>
</g>
<!-- CoreModule&#45;&gt;AppModule -->
<g id="edge7" class="edge">
<title>CoreModule&#45;&gt;AppModule</title>
<path fill="none" stroke="#000000" d="M1079,-122.1061C1079,-122.1061 1079,-140.991 1079,-140.991"/>
<polygon fill="#000000" stroke="#000000" points="1075.5001,-140.9909 1079,-150.991 1082.5001,-140.991 1075.5001,-140.9909"/>
</g>
<!-- SmartadminLayoutModule -->
<g id="node9" class="node">
<title>SmartadminLayoutModule</title>
<polygon fill="#8dd3c7" stroke="#000000" points="1017.6428,-122 1014.6428,-126 993.6428,-126 990.6428,-122 850.3572,-122 850.3572,-86 1017.6428,-86 1017.6428,-122"/>
<text text-anchor="middle" x="934" y="-99.8" font-family="Times,serif" font-size="14.00" fill="#000000">SmartadminLayoutModule</text>
</g>
<!-- SmartadminLayoutModule&#45;&gt;AppModule -->
<g id="edge8" class="edge">
<title>SmartadminLayoutModule&#45;&gt;AppModule</title>
<path fill="none" stroke="#000000" d="M934,-122.2396C934,-137.5706 934,-157 934,-157 934,-157 1027.06,-157 1027.06,-157"/>
<polygon fill="#000000" stroke="#000000" points="1027.06,-160.5001 1037.06,-157 1027.06,-153.5001 1027.06,-160.5001"/>
</g>
<!-- AlertService -->
<g id="node11" class="node">
<title>AlertService</title>
<ellipse fill="#fdb462" stroke="#000000" cx="766" cy="-104" rx="59.6646" ry="18"/>
<text text-anchor="middle" x="766" y="-99.8" font-family="Times,serif" font-size="14.00" fill="#000000">AlertService</text>
</g>
<!-- AlertService&#45;&gt;AppModule -->
<g id="edge10" class="edge">
<title>AlertService&#45;&gt;AppModule</title>
<path fill="none" stroke="#000000" d="M766,-122.0336C766,-139.0597 766,-162 766,-162 766,-162 1027.1122,-162 1027.1122,-162"/>
<polygon fill="#000000" stroke="#000000" points="1027.1122,-165.5001 1037.1122,-162 1027.1122,-158.5001 1027.1122,-165.5001"/>
</g>
<!-- AppState -->
<g id="node12" class="node">
<title>AppState</title>
<ellipse fill="#fdb462" stroke="#000000" cx="641" cy="-104" rx="46.9477" ry="18"/>
<text text-anchor="middle" x="641" y="-99.8" font-family="Times,serif" font-size="14.00" fill="#000000">AppState</text>
</g>
<!-- AppState&#45;&gt;AppModule -->
<g id="edge11" class="edge">
<title>AppState&#45;&gt;AppModule</title>
<path fill="none" stroke="#000000" d="M641,-122.2222C641,-140.8285 641,-167 641,-167 641,-167 1027.0027,-167 1027.0027,-167"/>
<polygon fill="#000000" stroke="#000000" points="1027.0028,-170.5001 1037.0027,-167 1027.0027,-163.5001 1027.0028,-170.5001"/>
</g>
<!-- AuthService -->
<g id="node13" class="node">
<title>AuthService</title>
<ellipse fill="#fdb462" stroke="#000000" cx="517" cy="-104" rx="59.1083" ry="18"/>
<text text-anchor="middle" x="517" y="-99.8" font-family="Times,serif" font-size="14.00" fill="#000000">AuthService</text>
</g>
<!-- AuthService&#45;&gt;AppModule -->
<g id="edge12" class="edge">
<title>AuthService&#45;&gt;AppModule</title>
<path fill="none" stroke="#000000" d="M517,-122.2228C517,-142.3652 517,-172 517,-172 517,-172 1027.2178,-172 1027.2178,-172"/>
<polygon fill="#000000" stroke="#000000" points="1027.2178,-175.5001 1037.2178,-172 1027.2178,-168.5001 1027.2178,-175.5001"/>
</g>
<!-- DashboardGridsterConfigService -->
<g id="node14" class="node">
<title>DashboardGridsterConfigService</title>
<ellipse fill="#fdb462" stroke="#000000" cx="299" cy="-104" rx="140.0685" ry="18"/>
<text text-anchor="middle" x="299" y="-99.8" font-family="Times,serif" font-size="14.00" fill="#000000">DashboardGridsterConfigService</text>
</g>
<!-- DashboardGridsterConfigService&#45;&gt;AppModule -->
<g id="edge13" class="edge">
<title>DashboardGridsterConfigService&#45;&gt;AppModule</title>
<path fill="none" stroke="#000000" d="M299,-122.0449C299,-143.6623 299,-177 299,-177 299,-177 1027.3396,-177 1027.3396,-177"/>
<polygon fill="#000000" stroke="#000000" points="1027.3396,-180.5001 1037.3396,-177 1027.3395,-173.5001 1027.3396,-180.5001"/>
</g>
<!-- DataService -->
<g id="node15" class="node">
<title>DataService</title>
<ellipse fill="#fdb462" stroke="#000000" cx="82" cy="-104" rx="58.4415" ry="18"/>
<text text-anchor="middle" x="82" y="-99.8" font-family="Times,serif" font-size="14.00" fill="#000000">DataService</text>
</g>
<!-- DataService&#45;&gt;AppModule -->
<g id="edge14" class="edge">
<title>DataService&#45;&gt;AppModule</title>
<path fill="none" stroke="#000000" d="M82,-122.0908C82,-145.1328 82,-182 82,-182 82,-182 1027.1138,-182 1027.1138,-182"/>
<polygon fill="#000000" stroke="#000000" points="1027.1138,-185.5001 1037.1138,-182 1027.1137,-178.5001 1027.1138,-185.5001"/>
</g>
</g>
</svg>
